{
.appVersion = "895";
copyright = "Copyright (c) 2011-2016, Cyreal (contact@cyreal.org)";
customParameters = (
{
name = openTypeNameLicenseURL;
value = "http://scripts.sil.org/OFL";
},
{
name = fsType;
value = (
);
},
{
name = vendorID;
value = CYRE;
},
{
name = licenseURL;
value = "http://scripts.sil.org/OFL";
},
{
name = license;
value = "This Font Software is licensed under the SIL Open Font License, Version 1.1. This license is available with a FAQ at: http://scripts.sil.org/OFL";
},
{
name = unicodeRanges;
value = (
"0",
"1",
"2",
"7",
"9",
"29",
"116"
);
},
{
name = codePageRanges;
value = (
1252,
1250,
1251,
1258
);
}
);
date = "2011-11-21 19:53:38 +0000";
designer = "Manvel Shmavonyan";
designerURL = "http://cyreal.org";
familyName = Marmelad;
featurePrefixes = (
{
automatic = 1;
code = "languagesystem DFLT dflt;\012";
name = Languagesystems;
}
);
features = (
{
automatic = 1;
code = "feature sups;\012feature frac;\012feature ordn;\012";
name = aalt;
},
{
automatic = 1;
code = "sub one by onesuperior;\012sub two by twosuperior;\012sub three by threesuperior;\012sub four by foursuperior;\012";
name = sups;
},
{
automatic = 1;
code = "sub one slash four by onequarter;\012sub one slash two by onehalf;\012sub three slash four by threequarters;\012";
name = frac;
},
{
automatic = 1;
code = "sub [zero one two three four five six seven eight nine] [A a]' by ordfeminine;\012sub [zero one two three four five six seven eight nine] [O o]' by ordmasculine;\012";
name = ordn;
},
{
automatic = 1;
code = "sub f i by fi;\012sub f l by fl;\012";
name = liga;
}
);
fontMaster = (
{
alignmentZones = (
"{760, 16}",
"{709, 16}",
"{502, 16}",
"{0, -16}",
"{-220, -16}"
);
ascender = 760;
capHeight = 709;
descender = -220;
horizontalStems = (
55,
49
);
id = UUID0;
verticalStems = (
108,
104
);
xHeight = 502;
}
);
glyphs = (
{
glyphname = A;
lastChange = "2016-08-03 16:06:21 +0000";
layers = (
{
layerId = UUID0;
paths = (
{
closed = 1;
nodes = (
"181 190 LINE",
"462 190 LINE",
"515 53 LINE",
"532 6 OFFCURVE",
"571 0 OFFCURVE",
"590 0 CURVE SMOOTH",
"619 0 OFFCURVE",
"629 16 OFFCURVE",
"629 33 CURVE SMOOTH",
"629 38 OFFCURVE",
"628 43 OFFCURVE",
"627 48 CURVE",
"398 682 LINE",
"392 700 OFFCURVE",
"364 709 OFFCURVE",
"337 709 CURVE SMOOTH",
"312 709 OFFCURVE",
"288 701 OFFCURVE",
"282 685 CURVE",
"47 52 LINE",
"44 44 OFFCURVE",
"42 35 OFFCURVE",
"42 27 CURVE SMOOTH",
"42 12 OFFCURVE",
"50 0 OFFCURVE",
"69 0 CURVE SMOOTH",
"88 0 OFFCURVE",
"112 6 OFFCURVE",
"130 53 CURVE"
);
},
{
closed = 1;
nodes = (
"447 242 LINE",
"197 242 LINE",
"320 591 LINE",
"326 591 LINE"
);
}
);
width = 675;
}
);
unicode = 0041;
},
{
glyphname = AE;
lastChange = "2016-08-03 16:06:21 +0000";
layers = (
{
layerId = UUID0;
paths = (
{
closed = 1;
nodes = (
"853 535 OFFCURVE",
"867 550 OFFCURVE",
"867 585 CURVE SMOOTH",
"867 672 LINE SMOOTH",
"867 702 OFFCURVE",
"846 709 OFFCURVE",
"807 709 CURVE SMOOTH",
"462 709 LINE SMOOTH",
"436 709 OFFCURVE",
"412 700 OFFCURVE",
"403 685 CURVE SMOOTH",
"30 52 LINE SMOOTH",
"25 43 OFFCURVE",
"20 32 OFFCURVE",
"20 24 CURVE SMOOTH",
"20 11 OFFCURVE",
"29 0 OFFCURVE",
"48 0 CURVE SMOOTH",
"69 0 OFFCURVE",
"90 6 OFFCURVE",
"109 40 CURVE SMOOTH",
"193 190 LINE",
"431 190 LINE",
"431 50 LINE SMOOTH",
"431 15 OFFCURVE",
"446 0 OFFCURVE",
"477 0 CURVE SMOOTH",
"822 0 LINE SMOOTH",
"861 0 OFFCURVE",
"882 7 OFFCURVE",
"882 37 CURVE SMOOTH",
"882 124 LINE SMOOTH",
"882 159 OFFCURVE",
"868 174 OFFCURVE",
"839 174 CURVE SMOOTH",
"801 174 OFFCURVE",
"781 157 OFFCURVE",
"781 109 CURVE SMOOTH",
"781 53 LINE",
"539 53 LINE",
"539 339 LINE",
"739 339 LINE SMOOTH",
"753 339 OFFCURVE",
"767 353 OFFCURVE",
"767 366 CURVE SMOOTH",
"767 380 OFFCURVE",
"758 394 OFFCURVE",
"739 394 CURVE SMOOTH",
"539 394 LINE",
"539 656 LINE",
"766 656 LINE",
"766 600 LINE SMOOTH",
"766 552 OFFCURVE",
"786 535 OFFCURVE",
"824 535 CURVE SMOOTH"
);
},
{
closed = 1;
nodes = (
"431 242 LINE",
"219 242 LINE",
"425 590 LINE",
"431 590 LINE"
);
}
);
width = 922;
}
);
unicode = 00C6;
},
{
glyphname = B;
lastChange = "2016-08-03 16:06:21 +0000";
layers = (
{
layerId = UUID0;
paths = (
{
closed = 1;
nodes = (
"100 50 LINE SMOOTH",
"100 15 OFFCURVE",
"115 0 OFFCURVE",
"146 0 CURVE SMOOTH",
"356 0 LINE SMOOTH",
"449 0 OFFCURVE",
"610 30 OFFCURVE",
"610 212 CURVE SMOOTH",
"610 289 OFFCURVE",
"566 358 OFFCURVE",
"460 376 CURVE",
"460 381 LINE",
"532 399 OFFCURVE",
"573 468 OFFCURVE",
"573 531 CURVE SMOOTH",
"573 651 OFFCURVE",
"496 709 OFFCURVE",
"351 709 CURVE SMOOTH",
"146 709 LINE SMOOTH",
"115 709 OFFCURVE",
"100 694 OFFCURVE",
"100 659 CURVE"
);
},
{
closed = 1;
nodes = (
"332 345 LINE",
"403 345 OFFCURVE",
"497 309 OFFCURVE",
"497 202 CURVE SMOOTH",
"497 82 OFFCURVE",
"403 53 OFFCURVE",
"342 53 CURVE SMOOTH",
"208 53 LINE",
"208 345 LINE"
);
},
{
closed = 1;
nodes = (
"315 656 LINE",
"373 656 OFFCURVE",
"460 630 OFFCURVE",
"460 534 CURVE SMOOTH",
"460 432 OFFCURVE",
"380 398 OFFCURVE",
"323 398 CURVE SMOOTH",
"208 398 LINE",
"208 656 LINE"
);
}
);
width = 670;
}
);
unicode = 0042;
},
{
glyphname = C;
lastChange = "2016-08-03 16:06:21 +0000";
layers = (
{
layerId = UUID0;
paths = (
{
closed = 1;
nodes = (
"532 529 OFFCURVE",
"546 544 OFFCURVE",
"546 579 CURVE SMOOTH",
"546 639 LINE SMOOTH",
"546 670 OFFCURVE",
"536 678 OFFCURVE",
"505 688 CURVE SMOOTH",
"458 703 OFFCURVE",
"409 709 OFFCURVE",
"359 709 CURVE SMOOTH",
"186 709 OFFCURVE",
"53 598 OFFCURVE",
"53 348 CURVE SMOOTH",
"53 132 OFFCURVE",
"143 0 OFFCURVE",
"351 0 CURVE SMOOTH",
"431 0 OFFCURVE",
"482 14 OFFCURVE",
"531 34 CURVE SMOOTH",
"548 41 LINE SMOOTH",
"557 45 OFFCURVE",
"561 53 OFFCURVE",
"561 61 CURVE SMOOTH",
"561 75 OFFCURVE",
"551 91 OFFCURVE",
"537 91 CURVE SMOOTH",
"534 91 OFFCURVE",
"532 90 OFFCURVE",
"529 89 CURVE SMOOTH",
"510 81 LINE SMOOTH",
"467 63 OFFCURVE",
"420 52 OFFCURVE",
"379 52 CURVE SMOOTH",
"249 52 OFFCURVE",
"166 116 OFFCURVE",
"166 346 CURVE SMOOTH",
"166 555 OFFCURVE",
"249 658 OFFCURVE",
"372 658 CURVE SMOOTH",
"398 658 OFFCURVE",
"422 655 OFFCURVE",
"445 650 CURVE",
"445 594 LINE SMOOTH",
"445 546 OFFCURVE",
"465 529 OFFCURVE",
"503 529 CURVE SMOOTH"
);
}
);
width = 581;
}
);
unicode = 0043;
},
{
glyphname = Ccedilla;
lastChange = "2016-08-03 16:06:21 +0000";
layers = (
{
layerId = UUID0;
paths = (
{
closed = 1;
nodes = (
"532 529 OFFCURVE",
"546 544 OFFCURVE",
"546 579 CURVE SMOOTH",
"546 639 LINE SMOOTH",
"546 670 OFFCURVE",
"536 678 OFFCURVE",
"505 688 CURVE SMOOTH",
"458 703 OFFCURVE",
"409 709 OFFCURVE",
"359 709 CURVE SMOOTH",
"186 709 OFFCURVE",
"53 598 OFFCURVE",
"53 348 CURVE SMOOTH",
"53 143 OFFCURVE",
"133 14 OFFCURVE",
"319 1 CURVE",
"319 -81 LINE",
"371 -81 OFFCURVE",
"400 -85 OFFCURVE",
"400 -123 CURVE SMOOTH",
"400 -140 OFFCURVE",
"387 -159 OFFCURVE",
"351 -159 CURVE SMOOTH",
"329 -159 OFFCURVE",
"305 -147 OFFCURVE",
"290 -147 CURVE SMOOTH",
"276 -147 OFFCURVE",
"268 -157 OFFCURVE",
"268 -167 CURVE SMOOTH",
"268 -196 OFFCURVE",
"328 -210 OFFCURVE",
"363 -210 CURVE SMOOTH",
"430 -210 OFFCURVE",
"480 -176 OFFCURVE",
"480 -120 CURVE SMOOTH",
"480 -58 OFFCURVE",
"427 -42 OFFCURVE",
"374 -42 CURVE",
"374 0 LINE",
"441 2 OFFCURVE",
"487 16 OFFCURVE",
"531 34 CURVE SMOOTH",
"548 41 LINE SMOOTH",
"557 45 OFFCURVE",
"561 53 OFFCURVE",
"561 61 CURVE SMOOTH",
"561 75 OFFCURVE",
"551 91 OFFCURVE",
"537 91 CURVE SMOOTH",
"534 91 OFFCURVE",
"532 90 OFFCURVE",
"529 89 CURVE SMOOTH",
"510 81 LINE SMOOTH",
"467 63 OFFCURVE",
"420 52 OFFCURVE",
"379 52 CURVE SMOOTH",
"249 52 OFFCURVE",
"166 116 OFFCURVE",
"166 346 CURVE SMOOTH",
"166 555 OFFCURVE",
"249 658 OFFCURVE",
"372 658 CURVE SMOOTH",
"398 658 OFFCURVE",
"422 655 OFFCURVE",
"445 650 CURVE",
"445 594 LINE SMOOTH",
"445 546 OFFCURVE",
"465 529 OFFCURVE",
"503 529 CURVE SMOOTH"
);
}
);
width = 581;
}
);
unicode = 00C7;
},
{
glyphname = D;
lastChange = "2016-08-03 16:06:21 +0000";
layers = (
{
layerId = UUID0;
paths = (
{
closed = 1;
nodes = (
"100 50 LINE SMOOTH",
"100 15 OFFCURVE",
"115 0 OFFCURVE",
"146 0 CURVE SMOOTH",
"294 0 LINE SMOOTH",
"431 0 OFFCURVE",
"640 75 OFFCURVE",
"640 358 CURVE SMOOTH",
"640 665 OFFCURVE",
"436 709 OFFCURVE",
"289 709 CURVE SMOOTH",
"146 709 LINE SMOOTH",
"115 709 OFFCURVE",
"100 694 OFFCURVE",
"100 659 CURVE"
);
},
{
closed = 1;
nodes = (
"277 656 LINE",
"415 656 OFFCURVE",
"527 579 OFFCURVE",
"527 358 CURVE SMOOTH",
"527 142 OFFCURVE",
"415 54 OFFCURVE",
"277 54 CURVE SMOOTH",
"230 54 LINE",
"230 53 LINE",
"208 53 LINE",
"208 656 LINE"
);
}
);
width = 693;
}
);
unicode = 0044;
},
{
glyphname = Eth;
lastChange = "2016-08-03 16:06:21 +0000";
layers = (
{
layerId = UUID0;
paths = (
{
closed = 1;
nodes = (
"36 394 LINE",
"22 394 OFFCURVE",
"15 380 OFFCURVE",
"15 366 CURVE SMOOTH",
"15 353 OFFCURVE",
"22 339 OFFCURVE",
"36 339 CURVE SMOOTH",
"100 339 LINE",
"100 50 LINE SMOOTH",
"100 15 OFFCURVE",
"115 0 OFFCURVE",
"146 0 CURVE SMOOTH",
"294 0 LINE SMOOTH",
"431 0 OFFCURVE",
"640 75 OFFCURVE",
"640 358 CURVE SMOOTH",
"640 665 OFFCURVE",
"436 709 OFFCURVE",
"289 709 CURVE SMOOTH",
"146 709 LINE SMOOTH",
"115 709 OFFCURVE",
"100 694 OFFCURVE",
"100 659 CURVE SMOOTH",
"100 394 LINE"
);
},
{
closed = 1;
nodes = (
"277 656 LINE",
"415 656 OFFCURVE",
"527 579 OFFCURVE",
"527 358 CURVE SMOOTH",
"527 142 OFFCURVE",
"415 54 OFFCURVE",
"277 54 CURVE SMOOTH",
"230 54 LINE",
"230 53 LINE",
"208 53 LINE",
"208 339 LINE",
"377 339 LINE SMOOTH",
"391 339 OFFCURVE",
"398 353 OFFCURVE",
"398 366 CURVE SMOOTH",
"398 380 OFFCURVE",
"391 394 OFFCURVE",
"377 394 CURVE SMOOTH",
"208 394 LINE",
"208 656 LINE"
);
}
);
width = 693;
}
);
unicode = 00D0;
},
{
glyphname = E;
lastChange = "2016-08-03 16:06:21 +0000";
layers = (
{
layerId = UUID0;
paths = (
{
closed = 1;
nodes = (
"532 535 OFFCURVE",
"546 550 OFFCURVE",
"546 585 CURVE",
"546 672 LINE",
"546 702 OFFCURVE",
"525 709 OFFCURVE",
"486 709 CURVE",
"146 709 LINE",
"115 709 OFFCURVE",
"100 694 OFFCURVE",
"100 659 CURVE",
"100 50 LINE",
"100 15 OFFCURVE",
"115 0 OFFCURVE",
"146 0 CURVE",
"501 0 LINE",
"540 0 OFFCURVE",
"561 7 OFFCURVE",
"561 37 CURVE",
"561 124 LINE",
"561 159 OFFCURVE",
"547 174 OFFCURVE",
"518 174 CURVE SMOOTH",
"480 174 OFFCURVE",
"460 157 OFFCURVE",
"460 109 CURVE",
"460 53 LINE",
"208 53 LINE",
"208 339 LINE",
"418 339 LINE SMOOTH",
"432 339 OFFCURVE",
"446 353 OFFCURVE",
"446 366 CURVE SMOOTH",
"446 380 OFFCURVE",
"437 394 OFFCURVE",
"418 394 CURVE SMOOTH",
"208 394 LINE",
"208 656 LINE",
"445 656 LINE",
"445 600 LINE",
"445 552 OFFCURVE",
"465 535 OFFCURVE",
"503 535 CURVE SMOOTH"
);
}
);
width = 601;
}
);
unicode = 0045;
},
{
glyphname = F;
lastChange = "2016-08-03 16:06:21 +0000";
layers = (
{
layerId = UUID0;
paths = (
{
closed = 1;
nodes = (
"418 334 LINE",
"432 334 OFFCURVE",
"446 348 OFFCURVE",
"446 361 CURVE SMOOTH",
"446 375 OFFCURVE",
"437 389 OFFCURVE",
"418 389 CURVE SMOOTH",
"208 389 LINE",
"208 656 LINE",
"445 656 LINE",
"445 610 LINE SMOOTH",
"445 562 OFFCURVE",
"465 545 OFFCURVE",
"503 545 CURVE SMOOTH",
"532 545 OFFCURVE",
"546 560 OFFCURVE",
"546 595 CURVE SMOOTH",
"546 672 LINE SMOOTH",
"546 702 OFFCURVE",
"525 709 OFFCURVE",
"486 709 CURVE SMOOTH",
"146 709 LINE SMOOTH",
"115 709 OFFCURVE",
"100 694 OFFCURVE",
"100 659 CURVE SMOOTH",
"100 50 LINE SMOOTH",
"100 15 OFFCURVE",
"115 0 OFFCURVE",
"146 0 CURVE SMOOTH",
"187 0 OFFCURVE",
"208 17 OFFCURVE",
"208 65 CURVE SMOOTH",
"208 334 LINE"
);
}
);
width = 556;
}
);
unicode = 0046;
},
{
glyphname = G;
lastChange = "2016-08-03 16:06:21 +0000";
layers = (
{
layerId = UUID0;
paths = (
{
closed = 1;
nodes = (
"563 529 OFFCURVE",
"577 544 OFFCURVE",
"577 579 CURVE SMOOTH",
"577 638 LINE SMOOTH",
"577 669 OFFCURVE",
"567 677 OFFCURVE",
"536 687 CURVE SMOOTH",
"487 702 OFFCURVE",
"433 709 OFFCURVE",
"383 709 CURVE SMOOTH",
"204 709 OFFCURVE",
"53 599 OFFCURVE",
"53 349 CURVE SMOOTH",
"53 133 OFFCURVE",
"145 0 OFFCURVE",
"366 0 CURVE SMOOTH",
"444 0 OFFCURVE",
"509 10 OFFCURVE",
"578 37 CURVE SMOOTH",
"598 45 OFFCURVE",
"610 55 OFFCURVE",
"610 95 CURVE SMOOTH",
"610 302 LINE SMOOTH",
"610 327 OFFCURVE",
"603 342 OFFCURVE",
"566 342 CURVE SMOOTH",
"396 342 LINE SMOOTH",
"377 342 OFFCURVE",
"368 328 OFFCURVE",
"368 314 CURVE SMOOTH",
"368 301 OFFCURVE",
"376 287 OFFCURVE",
"393 287 CURVE SMOOTH",
"505 287 LINE",
"505 71 LINE",
"464 54 OFFCURVE",
"418 51 OFFCURVE",
"385 51 CURVE SMOOTH",
"251 51 OFFCURVE",
"166 117 OFFCURVE",
"166 347 CURVE SMOOTH",
"166 556 OFFCURVE",
"267 658 OFFCURVE",
"395 658 CURVE SMOOTH",
"424 658 OFFCURVE",
"448 657 OFFCURVE",
"476 650 CURVE",
"476 594 LINE SMOOTH",
"476 546 OFFCURVE",
"496 529 OFFCURVE",
"534 529 CURVE SMOOTH"
);
}
);
width = 680;
}
);
unicode = 0047;
},
{
glyphname = H;
lastChange = "2016-08-03 16:06:21 +0000";
layers = (
{
layerId = UUID0;
paths = (
{
closed = 1;
nodes = (
"555 709 OFFCURVE",
"534 692 OFFCURVE",
"534 644 CURVE",
"534 394 LINE",
"208 394 LINE",
"208 632 LINE",
"208 683 OFFCURVE",
"185 709 OFFCURVE",
"144 709 CURVE SMOOTH",
"113 709 OFFCURVE",
"100 696 OFFCURVE",
"100 659 CURVE",
"100 50 LINE",
"100 15 OFFCURVE",
"115 0 OFFCURVE",
"146 0 CURVE SMOOTH",
"187 0 OFFCURVE",
"208 17 OFFCURVE",
"208 65 CURVE",
"208 339 LINE",
"534 339 LINE",
"534 77 LINE",
"534 26 OFFCURVE",
"557 0 OFFCURVE",
"598 0 CURVE SMOOTH",
"629 0 OFFCURVE",
"642 13 OFFCURVE",
"642 50 CURVE",
"642 659 LINE",
"642 694 OFFCURVE",
"627 709 OFFCURVE",
"596 709 CURVE SMOOTH"
);
}
);
width = 742;
}
);
unicode = 0048;
},
{
glyphname = I;
lastChange = "2016-08-03 16:06:21 +0000";
layers = (
{
layerId = UUID0;
paths = (
{
closed = 1;
nodes = (
"358 0 LINE",
"384 0 OFFCURVE",
"388 12 OFFCURVE",
"388 24 CURVE SMOOTH",
"388 39 OFFCURVE",
"382 53 OFFCURVE",
"348 53 CURVE SMOOTH",
"258 53 LINE",
"258 656 LINE",
"348 656 LINE SMOOTH",
"382 656 OFFCURVE",
"388 670 OFFCURVE",
"388 685 CURVE SMOOTH",
"388 697 OFFCURVE",
"384 709 OFFCURVE",
"358 709 CURVE SMOOTH",
"50 709 LINE SMOOTH",
"24 709 OFFCURVE",
"20 697 OFFCURVE",
"20 685 CURVE SMOOTH",
"20 670 OFFCURVE",
"26 656 OFFCURVE",
"60 656 CURVE SMOOTH",
"150 656 LINE",
"150 53 LINE",
"60 53 LINE SMOOTH",
"26 53 OFFCURVE",
"20 39 OFFCURVE",
"20 24 CURVE SMOOTH",
"20 12 OFFCURVE",
"24 0 OFFCURVE",
"50 0 CURVE SMOOTH"
);
}
);
width = 408;
}
);
unicode = 0049;
},
{
glyphname = J;
lastChange = "2016-08-03 16:06:21 +0000";
layers = (
{
layerId = UUID0;
paths = (
{
closed = 1;
nodes = (
"321 709 OFFCURVE",
"300 692 OFFCURVE",
"300 644 CURVE SMOOTH",
"300 208 LINE SMOOTH",
"300 138 OFFCURVE",
"276 52 OFFCURVE",
"178 52 CURVE SMOOTH",
"167 52 OFFCURVE",
"148 53 OFFCURVE",
"136 55 CURVE",
"136 104 LINE SMOOTH",
"136 152 OFFCURVE",
"116 169 OFFCURVE",
"78 169 CURVE SMOOTH",
"49 169 OFFCURVE",
"35 154 OFFCURVE",
"35 119 CURVE SMOOTH",
"35 52 LINE",
"35 37 OFFCURVE",
"41 28 OFFCURVE",
"55 21 CURVE SMOOTH",
"77 10 OFFCURVE",
"139 0 OFFCURVE",
"176 0 CURVE SMOOTH",
"383 0 OFFCURVE",
"408 171 OFFCURVE",
"408 261 CURVE SMOOTH",
"408 659 LINE SMOOTH",
"408 694 OFFCURVE",
"393 709 OFFCURVE",
"362 709 CURVE SMOOTH"
);
}
);
width = 484;
}
);
unicode = 004A;
},
{
glyphname = K;
lastChange = "2016-08-03 16:06:21 +0000";
layers = (
{
layerId = UUID0;
paths = (
{
closed = 1;
nodes = (
"208 632 LINE",
"208 683 OFFCURVE",
"185 709 OFFCURVE",
"144 709 CURVE SMOOTH",
"113 709 OFFCURVE",
"100 696 OFFCURVE",
"100 659 CURVE SMOOTH",
"100 50 LINE SMOOTH",
"100 15 OFFCURVE",
"115 0 OFFCURVE",
"146 0 CURVE SMOOTH",
"187 0 OFFCURVE",
"208 17 OFFCURVE",
"208 65 CURVE SMOOTH",
"208 315 LINE",
"226 334 LINE",
"475 49 LINE SMOOTH",
"511 7 OFFCURVE",
"538 0 OFFCURVE",
"565 0 CURVE SMOOTH",
"590 0 OFFCURVE",
"606 18 OFFCURVE",
"606 37 CURVE SMOOTH",
"606 47 OFFCURVE",
"600 57 OFFCURVE",
"592 66 CURVE SMOOTH",
"303 390 LINE",
"589 665 LINE SMOOTH",
"592 668 OFFCURVE",
"594 672 OFFCURVE",
"594 677 CURVE SMOOTH",
"594 692 OFFCURVE",
"579 709 OFFCURVE",
"558 709 CURVE SMOOTH",
"545 709 OFFCURVE",
"532 704 OFFCURVE",
"518 689 CURVE SMOOTH",
"208 382 LINE"
);
}
);
width = 611;
}
);
unicode = 004B;
},
{
glyphname = L;
lastChange = "2016-08-03 16:06:21 +0000";
layers = (
{
layerId = UUID0;
paths = (
{
closed = 1;
nodes = (
"455 187 OFFCURVE",
"435 170 OFFCURVE",
"435 122 CURVE SMOOTH",
"435 53 LINE",
"208 53 LINE",
"208 632 LINE SMOOTH",
"208 683 OFFCURVE",
"185 709 OFFCURVE",
"144 709 CURVE SMOOTH",
"113 709 OFFCURVE",
"100 696 OFFCURVE",
"100 659 CURVE SMOOTH",
"100 50 LINE SMOOTH",
"100 15 OFFCURVE",
"115 0 OFFCURVE",
"146 0 CURVE SMOOTH",
"476 0 LINE SMOOTH",
"515 0 OFFCURVE",
"536 8 OFFCURVE",
"536 32 CURVE SMOOTH",
"536 137 LINE SMOOTH",
"536 172 OFFCURVE",
"522 187 OFFCURVE",
"493 187 CURVE SMOOTH"
);
}
);
width = 571;
}
);
unicode = 004C;
},
{
glyphname = Lslash;
lastChange = "2016-08-03 16:06:21 +0000";
layers = (
{
layerId = UUID0;
paths = (
{
closed = 1;
nodes = (
"424 445 LINE",
"428 447 OFFCURVE",
"429 451 OFFCURVE",
"429 456 CURVE SMOOTH",
"428 472 OFFCURVE",
"409 494 OFFCURVE",
"396 494 CURVE SMOOTH",
"394 494 OFFCURVE",
"393 494 OFFCURVE",
"391 493 CURVE SMOOTH",
"232 392 LINE",
"232 632 LINE SMOOTH",
"232 683 OFFCURVE",
"209 709 OFFCURVE",
"168 709 CURVE SMOOTH",
"137 709 OFFCURVE",
"124 696 OFFCURVE",
"124 659 CURVE SMOOTH",
"124 323 LINE",
"3 246 LINE SMOOTH",
"0 244 OFFCURVE",
"-2 240 OFFCURVE",
"-2 237 CURVE SMOOTH",
"-1 223 OFFCURVE",
"19 201 OFFCURVE",
"32 201 CURVE SMOOTH",
"34 201 OFFCURVE",
"36 202 OFFCURVE",
"38 203 CURVE SMOOTH",
"124 257 LINE",
"124 50 LINE SMOOTH",
"124 15 OFFCURVE",
"139 0 OFFCURVE",
"170 0 CURVE SMOOTH",
"500 0 LINE SMOOTH",
"539 0 OFFCURVE",
"560 8 OFFCURVE",
"560 32 CURVE SMOOTH",
"560 137 LINE SMOOTH",
"560 172 OFFCURVE",
"546 187 OFFCURVE",
"517 187 CURVE SMOOTH",
"479 187 OFFCURVE",
"459 170 OFFCURVE",
"459 122 CURVE SMOOTH",
"459 53 LINE",
"232 53 LINE",
"232 324 LINE"
);
}
);
width = 595;
}
);
unicode = 0141;
},
{
glyphname = M;
lastChange = "2016-08-03 16:06:21 +0000";
layers = (
{
background = {
paths = (
{
closed = 1;
nodes = (
"764 0 OFFCURVE",
"777 13 OFFCURVE",
"777 50 CURVE",
"777 656 LINE",
"777 693 OFFCURVE",
"743 709 OFFCURVE",
"709 709 CURVE SMOOTH",
"678 709 OFFCURVE",
"647 696 OFFCURVE",
"632 656 CURVE",
"439 150 LINE",
"434 150 LINE",
"229 661 LINE",
"215 697 OFFCURVE",
"189 709 OFFCURVE",
"164 709 CURVE SMOOTH",
"132 709 OFFCURVE",
"100 691 OFFCURVE",
"100 656 CURVE",
"100 45 LINE",
"100 12 OFFCURVE",
"119 0 OFFCURVE",
"138 0 CURVE SMOOTH",
"156 0 OFFCURVE",
"179 13 OFFCURVE",
"179 56 CURVE",
"179 502 LINE",
"188 502 LINE",
"377 37 LINE SMOOTH",
"387 12 OFFCURVE",
"405 0 OFFCURVE",
"423 0 CURVE SMOOTH",
"442 0 OFFCURVE",
"460 13 OFFCURVE",
"470 37 CURVE SMOOTH",
"660 514 LINE",
"669 514 LINE",
"669 77 LINE",
"669 26 OFFCURVE",
"692 0 OFFCURVE",
"733 0 CURVE SMOOTH"
);
}
);
};
layerId = UUID0;
paths = (
{
closed = 1;
nodes = (
"767 0 OFFCURVE",
"777 13 OFFCURVE",
"777 50 CURVE",
"777 656 LINE",
"777 693 OFFCURVE",
"760 709 OFFCURVE",
"726 709 CURVE SMOOTH",
"695 709 OFFCURVE",
"660 696 OFFCURVE",
"645 656 CURVE",
"436 130 LINE",
"431 130 LINE",
"239 661 LINE",
"225 697 OFFCURVE",
"189 709 OFFCURVE",
"164 709 CURVE SMOOTH",
"132 709 OFFCURVE",
"100 691 OFFCURVE",
"100 656 CURVE",
"100 45 LINE",
"100 12 OFFCURVE",
"119 0 OFFCURVE",
"138 0 CURVE SMOOTH",
"156 0 OFFCURVE",
"179 13 OFFCURVE",
"179 56 CURVE",
"179 561 LINE",
"186 561 LINE",
"378 37 LINE SMOOTH",
"388 12 OFFCURVE",
"403 0 OFFCURVE",
"421 0 CURVE SMOOTH",
"440 0 OFFCURVE",
"453 13 OFFCURVE",
"463 37 CURVE SMOOTH",
"669 561 LINE",
"676 561 LINE",
"676 77 LINE",
"676 26 OFFCURVE",
"695 0 OFFCURVE",
"736 0 CURVE SMOOTH"
);
}
);
width = 877;
}
);
unicode = 004D;
},
{
glyphname = N;
lastChange = "2016-08-03 16:06:21 +0000";
layers = (
{
layerId = UUID0;
paths = (
{
closed = 1;
nodes = (
"156 0 OFFCURVE",
"179 13 OFFCURVE",
"179 56 CURVE",
"179 561 LINE",
"185 561 LINE",
"512 40 LINE SMOOTH",
"528 15 OFFCURVE",
"551 0 OFFCURVE",
"585 0 CURVE SMOOTH",
"616 0 OFFCURVE",
"643 19 OFFCURVE",
"643 58 CURVE SMOOTH",
"643 664 LINE",
"643 697 OFFCURVE",
"624 709 OFFCURVE",
"605 709 CURVE SMOOTH",
"587 709 OFFCURVE",
"564 696 OFFCURVE",
"564 653 CURVE",
"564 148 LINE",
"559 148 LINE",
"232 667 LINE SMOOTH",
"210 701 OFFCURVE",
"187 709 OFFCURVE",
"160 709 CURVE SMOOTH",
"128 709 OFFCURVE",
"100 690 OFFCURVE",
"100 655 CURVE",
"100 45 LINE",
"100 12 OFFCURVE",
"119 0 OFFCURVE",
"138 0 CURVE SMOOTH"
);
}
);
width = 743;
}
);
unicode = 004E;
},
{
glyphname = O;
lastChange = "2016-08-03 16:06:21 +0000";
layers = (
{
layerId = UUID0;
paths = (
{
closed = 1;
nodes = (
"663 461 OFFCURVE",
"630 709 OFFCURVE",
"357 709 CURVE SMOOTH",
"84 709 OFFCURVE",
"53 461 OFFCURVE",
"53 354 CURVE SMOOTH",
"53 245 OFFCURVE",
"84 0 OFFCURVE",
"357 0 CURVE SMOOTH",
"630 0 OFFCURVE",
"663 245 OFFCURVE",
"663 354 CURVE SMOOTH"
);
},
{
closed = 1;
nodes = (
"550 253 OFFCURVE",
"533 51 OFFCURVE",
"357 51 CURVE SMOOTH",
"184 51 OFFCURVE",
"166 253 OFFCURVE",
"166 354 CURVE SMOOTH",
"166 455 OFFCURVE",
"184 658 OFFCURVE",
"357 658 CURVE SMOOTH",
"533 658 OFFCURVE",
"550 455 OFFCURVE",
"550 354 CURVE SMOOTH"
);
}
);
width = 716;
}
);
unicode = 004F;
},
{
glyphname = Oslash;
lastChange = "2016-08-03 16:06:21 +0000";
layers = (
{
layerId = UUID0;
paths = (
{
closed = 1;
nodes = (
"617 744 LINE",
"618 746 OFFCURVE",
"618 748 OFFCURVE",
"618 750 CURVE SMOOTH",
"618 765 OFFCURVE",
"593 785 OFFCURVE",
"574 785 CURVE SMOOTH",
"569 785 OFFCURVE",
"564 783 OFFCURVE",
"562 779 CURVE SMOOTH",
"504 677 LINE",
"465 697 OFFCURVE",
"417 709 OFFCURVE",
"357 709 CURVE SMOOTH",
"84 709 OFFCURVE",
"53 461 OFFCURVE",
"53 354 CURVE SMOOTH",
"53 281 OFFCURVE",
"67 147 OFFCURVE",
"157 67 CURVE",
"97 -40 LINE SMOOTH",
"96 -42 OFFCURVE",
"96 -43 OFFCURVE",
"96 -45 CURVE SMOOTH",
"96 -59 OFFCURVE",
"120 -76 OFFCURVE",
"138 -76 CURVE SMOOTH",
"144 -76 OFFCURVE",
"148 -74 OFFCURVE",
"151 -70 CURVE SMOOTH",
"209 32 LINE",
"248 12 OFFCURVE",
"297 0 OFFCURVE",
"357 0 CURVE SMOOTH",
"630 0 OFFCURVE",
"663 245 OFFCURVE",
"663 354 CURVE SMOOTH",
"663 425 OFFCURVE",
"648 559 OFFCURVE",
"558 640 CURVE"
);
},
{
closed = 1;
nodes = (
"550 253 OFFCURVE",
"533 51 OFFCURVE",
"357 51 CURVE SMOOTH",
"308 51 OFFCURVE",
"271 67 OFFCURVE",
"244 92 CURVE",
"512 560 LINE",
"545 494 OFFCURVE",
"550 409 OFFCURVE",
"550 354 CURVE SMOOTH"
);
},
{
closed = 1;
nodes = (
"166 455 OFFCURVE",
"184 658 OFFCURVE",
"357 658 CURVE SMOOTH",
"406 658 OFFCURVE",
"442 642 OFFCURVE",
"470 617 CURVE",
"204 148 LINE",
"171 214 OFFCURVE",
"166 299 OFFCURVE",
"166 354 CURVE SMOOTH"
);
}
);
width = 716;
}
);
unicode = 00D8;
},
{
glyphname = OE;
lastChange = "2016-08-03 16:06:21 +0000";
layers = (
{
layerId = UUID0;
paths = (
{
closed = 1;
nodes = (
"857 535 OFFCURVE",
"871 550 OFFCURVE",
"871 585 CURVE SMOOTH",
"871 672 LINE SMOOTH",
"871 702 OFFCURVE",
"850 709 OFFCURVE",
"811 709 CURVE SMOOTH",
"367 709 LINE SMOOTH",
"94 709 OFFCURVE",
"53 461 OFFCURVE",
"53 354 CURVE SMOOTH",
"53 245 OFFCURVE",
"94 0 OFFCURVE",
"367 0 CURVE SMOOTH",
"826 0 LINE SMOOTH",
"865 0 OFFCURVE",
"886 7 OFFCURVE",
"886 37 CURVE SMOOTH",
"886 124 LINE SMOOTH",
"886 159 OFFCURVE",
"872 174 OFFCURVE",
"843 174 CURVE SMOOTH",
"805 174 OFFCURVE",
"785 157 OFFCURVE",
"785 109 CURVE SMOOTH",
"785 53 LINE",
"546 53 LINE",
"546 339 LINE",
"743 339 LINE SMOOTH",
"757 339 OFFCURVE",
"771 353 OFFCURVE",
"771 366 CURVE SMOOTH",
"771 380 OFFCURVE",
"762 394 OFFCURVE",
"743 394 CURVE SMOOTH",
"546 394 LINE",
"546 656 LINE",
"770 656 LINE",
"770 600 LINE SMOOTH",
"770 552 OFFCURVE",
"790 535 OFFCURVE",
"828 535 CURVE SMOOTH"
);
},
{
closed = 1;
nodes = (
"194 51 OFFCURVE",
"166 253 OFFCURVE",
"166 354 CURVE SMOOTH",
"166 455 OFFCURVE",
"194 658 OFFCURVE",
"367 658 CURVE SMOOTH",
"397 658 OFFCURVE",
"416 656 OFFCURVE",
"438 652 CURVE",
"438 57 LINE",
"416 52 OFFCURVE",
"397 51 OFFCURVE",
"367 51 CURVE SMOOTH"
);
}
);
width = 926;
}
);
unicode = 0152;
},
{
glyphname = P;
lastChange = "2016-08-03 16:06:21 +0000";
layers = (
{
layerId = UUID0;
paths = (
{
closed = 1;
nodes = (
"312 275 LINE",
"496 275 OFFCURVE",
"582 377 OFFCURVE",
"582 502 CURVE SMOOTH",
"582 704 OFFCURVE",
"389 709 OFFCURVE",
"311 709 CURVE SMOOTH",
"144 709 LINE SMOOTH",
"113 709 OFFCURVE",
"100 696 OFFCURVE",
"100 659 CURVE SMOOTH",
"100 50 LINE SMOOTH",
"100 15 OFFCURVE",
"115 0 OFFCURVE",
"146 0 CURVE SMOOTH",
"187 0 OFFCURVE",
"208 17 OFFCURVE",
"208 65 CURVE SMOOTH",
"208 275 LINE"
);
},
{
closed = 1;
nodes = (
"311 656 LINE",
"430 656 OFFCURVE",
"469 595 OFFCURVE",
"469 502 CURVE SMOOTH",
"469 379 OFFCURVE",
"407 328 OFFCURVE",
"311 328 CURVE SMOOTH",
"208 328 LINE",
"208 656 LINE"
);
}
);
width = 617;
}
);
unicode = 0050;
},
{
glyphname = Thorn;
lastChange = "2016-08-03 16:06:21 +0000";
layers = (
{
layerId = UUID0;
paths = (
{
closed = 1;
nodes = (
"208 632 LINE",
"208 683 OFFCURVE",
"185 709 OFFCURVE",
"144 709 CURVE SMOOTH",
"113 709 OFFCURVE",
"100 696 OFFCURVE",
"100 659 CURVE SMOOTH",
"100 50 LINE SMOOTH",
"100 15 OFFCURVE",
"115 0 OFFCURVE",
"146 0 CURVE SMOOTH",
"187 0 OFFCURVE",
"208 17 OFFCURVE",
"208 65 CURVE SMOOTH",
"208 142 LINE",
"307 142 LINE SMOOTH",
"491 142 OFFCURVE",
"577 244 OFFCURVE",
"577 369 CURVE SMOOTH",
"577 571 OFFCURVE",
"384 576 OFFCURVE",
"306 576 CURVE SMOOTH",
"208 576 LINE"
);
},
{
closed = 1;
nodes = (
"306 523 LINE",
"425 523 OFFCURVE",
"464 462 OFFCURVE",
"464 369 CURVE SMOOTH",
"464 246 OFFCURVE",
"402 195 OFFCURVE",
"306 195 CURVE SMOOTH",
"208 195 LINE",
"208 523 LINE"
);
}
);
width = 622;
}
);
unicode = 00DE;
},
{
glyphname = Q;
lastChange = "2016-08-03 16:06:21 +0000";
layers = (
{
layerId = UUID0;
paths = (
{
closed = 1;
nodes = (
"663 461 OFFCURVE",
"630 709 OFFCURVE",
"357 709 CURVE SMOOTH",
"84 709 OFFCURVE",
"53 461 OFFCURVE",
"53 354 CURVE SMOOTH",
"53 245 OFFCURVE",
"84 0 OFFCURVE",
"357 0 CURVE SMOOTH",
"398 0 OFFCURVE",
"434 6 OFFCURVE",
"465 16 CURVE",
"506 -32 LINE SMOOTH",
"524 -54 OFFCURVE",
"546 -62 OFFCURVE",
"566 -62 CURVE SMOOTH",
"590 -62 OFFCURVE",
"609 -50 OFFCURVE",
"609 -35 CURVE SMOOTH",
"609 -30 OFFCURVE",
"607 -25 OFFCURVE",
"603 -20 CURVE SMOOTH",
"539 57 LINE",
"646 139 OFFCURVE",
"663 276 OFFCURVE",
"663 354 CURVE SMOOTH"
);
},
{
closed = 1;
nodes = (
"550 284 OFFCURVE",
"543 186 OFFCURVE",
"490 115 CURVE",
"439 176 LINE SMOOTH",
"420 200 OFFCURVE",
"397 209 OFFCURVE",
"378 209 CURVE SMOOTH",
"357 209 OFFCURVE",
"340 196 OFFCURVE",
"340 178 CURVE SMOOTH",
"340 170 OFFCURVE",
"344 161 OFFCURVE",
"352 151 CURVE SMOOTH",
"425 63 LINE",
"406 55 OFFCURVE",
"383 51 OFFCURVE",
"357 51 CURVE SMOOTH",
"184 51 OFFCURVE",
"166 253 OFFCURVE",
"166 354 CURVE SMOOTH",
"166 455 OFFCURVE",
"184 658 OFFCURVE",
"357 658 CURVE SMOOTH",
"533 658 OFFCURVE",
"550 455 OFFCURVE",
"550 354 CURVE SMOOTH"
);
}
);
width = 716;
}
);
unicode = 0051;
},
{
glyphname = R;
lastChange = "2016-08-03 16:06:21 +0000";
layers = (
{
layerId = UUID0;
paths = (
{
closed = 1;
nodes = (
"100 50 LINE",
"100 15 OFFCURVE",
"115 0 OFFCURVE",
"146 0 CURVE SMOOTH",
"187 0 OFFCURVE",
"208 17 OFFCURVE",
"208 65 CURVE SMOOTH",
"208 319 LINE",
"299 319 LINE",
"467 38 LINE SMOOTH",
"484 10 OFFCURVE",
"511 0 OFFCURVE",
"535 0 CURVE SMOOTH",
"570 0 OFFCURVE",
"586 14 OFFCURVE",
"586 33 CURVE SMOOTH",
"586 41 OFFCURVE",
"583 50 OFFCURVE",
"577 59 CURVE SMOOTH",
"411 326 LINE",
"494 340 OFFCURVE",
"586 413 OFFCURVE",
"586 516 CURVE SMOOTH",
"586 672 OFFCURVE",
"467 709 OFFCURVE",
"333 709 CURVE SMOOTH",
"144 709 LINE SMOOTH",
"113 709 OFFCURVE",
"100 696 OFFCURVE",
"100 659 CURVE"
);
},
{
closed = 1;
nodes = (
"323 656 LINE",
"380 656 OFFCURVE",
"473 646 OFFCURVE",
"473 522 CURVE SMOOTH",
"473 409 OFFCURVE",
"385 372 OFFCURVE",
"315 372 CURVE SMOOTH",
"208 372 LINE",
"208 656 LINE"
);
}
);
width = 643;
}
);
unicode = 0052;
},
{
glyphname = S;
lastChange = "2016-08-03 16:06:21 +0000";
layers = (
{
layerId = UUID0;
paths = (
{
closed = 1;
nodes = (
"511 527 OFFCURVE",
"525 542 OFFCURVE",
"525 575 CURVE SMOOTH",
"525 633 LINE SMOOTH",
"525 662 OFFCURVE",
"515 670 OFFCURVE",
"484 680 CURVE SMOOTH",
"433 695 OFFCURVE",
"376 709 OFFCURVE",
"299 709 CURVE SMOOTH",
"147 709 OFFCURVE",
"61 635 OFFCURVE",
"61 528 CURVE SMOOTH",
"61 408 OFFCURVE",
"153 372 OFFCURVE",
"291 321 CURVE SMOOTH",
"405 279 OFFCURVE",
"459 251 OFFCURVE",
"459 183 CURVE SMOOTH",
"459 118 OFFCURVE",
"401 51 OFFCURVE",
"287 51 CURVE SMOOTH",
"244 51 OFFCURVE",
"204 59 OFFCURVE",
"165 72 CURVE",
"165 126 LINE SMOOTH",
"165 172 OFFCURVE",
"145 189 OFFCURVE",
"107 189 CURVE SMOOTH",
"78 189 OFFCURVE",
"64 174 OFFCURVE",
"64 141 CURVE SMOOTH",
"64 81 LINE SMOOTH",
"64 52 OFFCURVE",
"74 45 OFFCURVE",
"103 33 CURVE SMOOTH",
"150 15 OFFCURVE",
"230 0 OFFCURVE",
"291 0 CURVE SMOOTH",
"472 0 OFFCURVE",
"571 83 OFFCURVE",
"571 194 CURVE SMOOTH",
"571 309 OFFCURVE",
"483 341 OFFCURVE",
"308 404 CURVE SMOOTH",
"207 441 OFFCURVE",
"173 465 OFFCURVE",
"173 534 CURVE SMOOTH",
"173 589 OFFCURVE",
"212 658 OFFCURVE",
"306 658 CURVE SMOOTH",
"342 658 OFFCURVE",
"375 654 OFFCURVE",
"407 645 CURVE SMOOTH",
"413 643 OFFCURVE",
"418 641 OFFCURVE",
"424 640 CURVE",
"424 589 LINE SMOOTH",
"424 543 OFFCURVE",
"444 527 OFFCURVE",
"482 527 CURVE SMOOTH"
);
}
);
width = 631;
}
);
unicode = 0053;
},
{
glyphname = Scedilla;
lastChange = "2016-08-03 16:06:21 +0000";
layers = (
{
layerId = UUID0;
paths = (
{
closed = 1;
nodes = (
"511 527 OFFCURVE",
"525 542 OFFCURVE",
"525 575 CURVE SMOOTH",
"525 633 LINE SMOOTH",
"525 662 OFFCURVE",
"515 670 OFFCURVE",
"484 680 CURVE SMOOTH",
"433 695 OFFCURVE",
"376 709 OFFCURVE",
"299 709 CURVE SMOOTH",
"147 709 OFFCURVE",
"61 635 OFFCURVE",
"61 528 CURVE SMOOTH",
"61 408 OFFCURVE",
"153 372 OFFCURVE",
"291 321 CURVE SMOOTH",
"405 279 OFFCURVE",
"459 251 OFFCURVE",
"459 183 CURVE SMOOTH",
"459 118 OFFCURVE",
"401 51 OFFCURVE",
"287 51 CURVE SMOOTH",
"244 51 OFFCURVE",
"204 59 OFFCURVE",
"165 72 CURVE",
"165 126 LINE SMOOTH",
"165 172 OFFCURVE",
"145 189 OFFCURVE",
"107 189 CURVE SMOOTH",
"78 189 OFFCURVE",
"64 174 OFFCURVE",
"64 141 CURVE SMOOTH",
"64 81 LINE SMOOTH",
"64 52 OFFCURVE",
"74 45 OFFCURVE",
"103 33 CURVE SMOOTH",
"143 17 OFFCURVE",
"208 4 OFFCURVE",
"265 0 CURVE",
"265 -81 LINE",
"317 -81 OFFCURVE",
"346 -85 OFFCURVE",
"346 -123 CURVE SMOOTH",
"346 -140 OFFCURVE",
"333 -159 OFFCURVE",
"297 -159 CURVE SMOOTH",
"275 -159 OFFCURVE",
"251 -147 OFFCURVE",
"236 -147 CURVE SMOOTH",
"222 -147 OFFCURVE",
"214 -157 OFFCURVE",
"214 -167 CURVE SMOOTH",
"214 -196 OFFCURVE",
"274 -210 OFFCURVE",
"309 -210 CURVE SMOOTH",
"376 -210 OFFCURVE",
"426 -176 OFFCURVE",
"426 -120 CURVE SMOOTH",
"426 -58 OFFCURVE",
"373 -42 OFFCURVE",
"320 -42 CURVE",
"320 0 LINE",
"482 9 OFFCURVE",
"571 89 OFFCURVE",
"571 194 CURVE SMOOTH",
"571 309 OFFCURVE",
"483 341 OFFCURVE",
"308 404 CURVE SMOOTH",
"207 441 OFFCURVE",
"173 465 OFFCURVE",
"173 534 CURVE SMOOTH",
"173 589 OFFCURVE",
"212 658 OFFCURVE",
"306 658 CURVE SMOOTH",
"342 658 OFFCURVE",
"375 654 OFFCURVE",
"407 645 CURVE SMOOTH",
"413 643 OFFCURVE",
"418 641 OFFCURVE",
"424 640 CURVE",
"424 589 LINE SMOOTH",
"424 543 OFFCURVE",
"444 527 OFFCURVE",
"482 527 CURVE SMOOTH"
);
}
);
width = 631;
}
);
unicode = 015E;
},
{
glyphname = T;
lastChange = "2016-08-03 16:06:21 +0000";
layers = (
{
layerId = UUID0;
paths = (
{
closed = 1;
nodes = (
"529 656 LINE",
"529 585 LINE SMOOTH",
"529 537 OFFCURVE",
"549 520 OFFCURVE",
"587 520 CURVE SMOOTH",
"616 520 OFFCURVE",
"630 535 OFFCURVE",
"630 570 CURVE SMOOTH",
"630 672 LINE SMOOTH",
"630 702 OFFCURVE",
"609 709 OFFCURVE",
"570 709 CURVE SMOOTH",
"80 709 LINE SMOOTH",
"41 709 OFFCURVE",
"20 702 OFFCURVE",
"20 672 CURVE SMOOTH",
"20 570 LINE SMOOTH",
"20 535 OFFCURVE",
"34 520 OFFCURVE",
"63 520 CURVE SMOOTH",
"101 520 OFFCURVE",
"121 537 OFFCURVE",
"121 585 CURVE SMOOTH",
"121 656 LINE",
"271 656 LINE",
"271 50 LINE SMOOTH",
"271 15 OFFCURVE",
"286 0 OFFCURVE",
"317 0 CURVE SMOOTH",
"358 0 OFFCURVE",
"379 12 OFFCURVE",
"379 60 CURVE SMOOTH",
"379 656 LINE"
);
}
);
width = 650;
}
);
unicode = 0054;
},
{
glyphname = U;
lastChange = "2016-08-03 16:06:21 +0000";
layers = (
{
layerId = UUID0;
paths = (
{
closed = 1;
nodes = (
"201 632 LINE",
"201 683 OFFCURVE",
"178 709 OFFCURVE",
"137 709 CURVE SMOOTH",
"106 709 OFFCURVE",
"93 696 OFFCURVE",
"93 659 CURVE",
"93 251 LINE",
"93 157 OFFCURVE",
"118 -15 OFFCURVE",
"358 -15 CURVE SMOOTH",
"588 -15 OFFCURVE",
"625 160 OFFCURVE",
"625 254 CURVE",
"625 664 LINE",
"625 697 OFFCURVE",
"606 709 OFFCURVE",
"587 709 CURVE SMOOTH",
"569 709 OFFCURVE",
"546 696 OFFCURVE",
"546 653 CURVE",
"546 223 LINE",
"546 122 OFFCURVE",
"483 46 OFFCURVE",
"378 46 CURVE SMOOTH",
"267 46 OFFCURVE",
"201 111 OFFCURVE",
"201 219 CURVE"
);
}
);
width = 718;
}
);
unicode = 0055;
},
{
glyphname = V;
lastChange = "2016-08-03 16:06:21 +0000";
layers = (
{
layerId = UUID0;
paths = (
{
closed = 1;
nodes = (
"495 656 LINE",
"511 704 OFFCURVE",
"533 709 OFFCURVE",
"552 709 CURVE SMOOTH",
"571 709 OFFCURVE",
"583 697 OFFCURVE",
"583 682 CURVE SMOOTH",
"583 674 OFFCURVE",
"581 665 OFFCURVE",
"578 657 CURVE SMOOTH",
"360 40 LINE SMOOTH",
"349 9 OFFCURVE",
"325 0 OFFCURVE",
"297 0 CURVE SMOOTH",
"273 0 OFFCURVE",
"246 9 OFFCURVE",
"237 36 CURVE SMOOTH",
"22 650 LINE SMOOTH",
"19 658 OFFCURVE",
"18 665 OFFCURVE",
"18 672 CURVE SMOOTH",
"18 692 OFFCURVE",
"30 709 OFFCURVE",
"61 709 CURVE SMOOTH",
"80 709 OFFCURVE",
"114 704 OFFCURVE",
"130 656 CURVE SMOOTH",
"308 113 LINE",
"314 113 LINE"
);
}
);
width = 597;
}
);
unicode = 0056;
},
{
glyphname = W;
lastChange = "2016-08-03 16:06:21 +0000";
layers = (
{
layerId = UUID0;
paths = (
{
closed = 1;
nodes = (
"741 656 LINE",
"756 704 OFFCURVE",
"778 709 OFFCURVE",
"797 709 CURVE SMOOTH",
"815 709 OFFCURVE",
"827 697 OFFCURVE",
"827 682 CURVE SMOOTH",
"827 674 OFFCURVE",
"825 665 OFFCURVE",
"822 657 CURVE",
"655 40 LINE SMOOTH",
"646 9 OFFCURVE",
"620 0 OFFCURVE",
"593 0 CURVE SMOOTH",
"571 0 OFFCURVE",
"541 9 OFFCURVE",
"534 36 CURVE SMOOTH",
"429 517 LINE",
"427 517 LINE",
"311 40 LINE SMOOTH",
"303 9 OFFCURVE",
"275 0 OFFCURVE",
"249 0 CURVE SMOOTH",
"226 0 OFFCURVE",
"197 9 OFFCURVE",
"190 36 CURVE SMOOTH",
"30 650 LINE",
"27 658 OFFCURVE",
"26 665 OFFCURVE",
"26 672 CURVE SMOOTH",
"26 692 OFFCURVE",
"38 709 OFFCURVE",
"68 709 CURVE SMOOTH",
"87 709 OFFCURVE",
"121 704 OFFCURVE",
"136 656 CURVE",
"260 113 LINE",
"266 113 LINE",
"385 646 LINE SMOOTH",
"395 688 OFFCURVE",
"408 709 OFFCURVE",
"439 709 CURVE SMOOTH",
"470 709 OFFCURVE",
"484 679 OFFCURVE",
"490 649 CURVE SMOOTH",
"604 113 LINE",
"610 113 LINE"
);
}
);
width = 849;
}
);
unicode = 0057;
},
{
glyphname = X;
lastChange = "2016-08-03 16:06:21 +0000";
layers = (
{
layerId = UUID0;
paths = (
{
closed = 1;
nodes = (
"311 434 LINE",
"305 434 LINE",
"180 656 LINE SMOOTH",
"163 687 OFFCURVE",
"140 709 OFFCURVE",
"102 709 CURVE SMOOTH",
"80 709 OFFCURVE",
"63 693 OFFCURVE",
"63 675 CURVE SMOOTH",
"63 667 OFFCURVE",
"65 659 OFFCURVE",
"70 651 CURVE SMOOTH",
"241 366 LINE",
"41 54 LINE SMOOTH",
"36 46 OFFCURVE",
"30 33 OFFCURVE",
"30 22 CURVE SMOOTH",
"30 11 OFFCURVE",
"38 0 OFFCURVE",
"60 0 CURVE SMOOTH",
"78 0 OFFCURVE",
"98 5 OFFCURVE",
"128 54 CURVE SMOOTH",
"285 307 LINE",
"289 307 LINE",
"439 52 LINE SMOOTH",
"460 16 OFFCURVE",
"479 0 OFFCURVE",
"520 0 CURVE SMOOTH",
"544 0 OFFCURVE",
"559 15 OFFCURVE",
"559 32 CURVE SMOOTH",
"559 41 OFFCURVE",
"556 52 OFFCURVE",
"551 60 CURVE SMOOTH",
"354 382 LINE",
"522 655 LINE SMOOTH",
"530 666 OFFCURVE",
"533 677 OFFCURVE",
"533 685 CURVE SMOOTH",
"533 700 OFFCURVE",
"518 709 OFFCURVE",
"503 709 CURVE SMOOTH",
"479 709 OFFCURVE",
"461 693 OFFCURVE",
"439 656 CURVE SMOOTH"
);
}
);
width = 589;
}
);
unicode = 0058;
},
{
glyphname = Y;
lastChange = "2016-08-03 16:06:21 +0000";
layers = (
{
layerId = UUID0;
paths = (
{
closed = 1;
nodes = (
"309 0 OFFCURVE",
"329 12 OFFCURVE",
"329 60 CURVE SMOOTH",
"329 268 LINE",
"528 654 LINE SMOOTH",
"531 660 OFFCURVE",
"533 668 OFFCURVE",
"533 676 CURVE SMOOTH",
"533 693 OFFCURVE",
"525 709 OFFCURVE",
"505 709 CURVE SMOOTH",
"482 709 OFFCURVE",
"462 694 OFFCURVE",
"444 656 CURVE SMOOTH",
"294 343 LINE",
"290 343 LINE",
"131 657 LINE SMOOTH",
"110 699 OFFCURVE",
"87 709 OFFCURVE",
"54 709 CURVE SMOOTH",
"32 709 OFFCURVE",
"18 694 OFFCURVE",
"18 674 CURVE SMOOTH",
"18 666 OFFCURVE",
"20 658 OFFCURVE",
"24 649 CURVE SMOOTH",
"221 268 LINE",
"221 50 LINE SMOOTH",
"221 15 OFFCURVE",
"237 0 OFFCURVE",
"268 0 CURVE SMOOTH"
);
}
);
width = 547;
}
);
unicode = 0059;
},
{
glyphname = Z;
lastChange = "2016-08-03 16:06:21 +0000";
layers = (
{
layerId = UUID0;
paths = (
{
closed = 1;
nodes = (
"492 0 LINE",
"531 0 OFFCURVE",
"552 7 OFFCURVE",
"552 37 CURVE SMOOTH",
"552 124 LINE SMOOTH",
"552 159 OFFCURVE",
"538 174 OFFCURVE",
"509 174 CURVE SMOOTH",
"471 174 OFFCURVE",
"451 157 OFFCURVE",
"451 109 CURVE SMOOTH",
"451 53 LINE",
"144 53 LINE",
"536 624 LINE SMOOTH",
"541 631 OFFCURVE",
"544 647 OFFCURVE",
"544 658 CURVE SMOOTH",
"544 684 OFFCURVE",
"530 709 OFFCURVE",
"499 709 CURVE SMOOTH",
"122 709 LINE SMOOTH",
"83 709 OFFCURVE",
"62 702 OFFCURVE",
"62 672 CURVE SMOOTH",
"62 585 LINE SMOOTH",
"62 550 OFFCURVE",
"76 535 OFFCURVE",
"105 535 CURVE SMOOTH",
"143 535 OFFCURVE",
"163 552 OFFCURVE",
"163 600 CURVE SMOOTH",
"163 656 LINE",
"431 656 LINE",
"48 85 LINE SMOOTH",
"43 77 OFFCURVE",
"40 61 OFFCURVE",
"40 49 CURVE SMOOTH",
"40 24 OFFCURVE",
"53 0 OFFCURVE",
"85 0 CURVE SMOOTH"
);
}
);
width = 592;
}
);
unicode = 005A;
},
{
glyphname = a;
lastChange = "2016-08-03 16:06:21 +0000";
layers = (
{
layerId = UUID0;
paths = (
{
closed = 1;
nodes = (
"373 94 LINE",
"373 29 OFFCURVE",
"390 0 OFFCURVE",
"434 0 CURVE SMOOTH",
"466 0 OFFCURVE",
"473 17 OFFCURVE",
"473 47 CURVE SMOOTH",
"473 321 LINE SMOOTH",
"473 440 OFFCURVE",
"436 502 OFFCURVE",
"288 502 CURVE SMOOTH",
"245 502 OFFCURVE",
"184 494 OFFCURVE",
"139 475 CURVE SMOOTH",
"108 462 OFFCURVE",
"84 447 OFFCURVE",
"84 419 CURVE SMOOTH",
"84 401 OFFCURVE",
"95 385 OFFCURVE",
"119 385 CURVE SMOOTH",
"140 385 OFFCURVE",
"160 398 OFFCURVE",
"180 420 CURVE SMOOTH",
"199 441 OFFCURVE",
"226 462 OFFCURVE",
"268 462 CURVE SMOOTH",
"338 462 OFFCURVE",
"368 430 OFFCURVE",
"368 338 CURVE SMOOTH",
"368 310 LINE",
"295 310 LINE SMOOTH",
"93 310 OFFCURVE",
"43 221 OFFCURVE",
"43 135 CURVE SMOOTH",
"43 55 OFFCURVE",
"92 0 OFFCURVE",
"194 0 CURVE SMOOTH",
"271 0 OFFCURVE",
"326 29 OFFCURVE",
"370 95 CURVE"
);
},
{
closed = 1;
nodes = (
"369 268 LINE",
"369 184 LINE SMOOTH",
"369 104 OFFCURVE",
"283 67 OFFCURVE",
"234 67 CURVE SMOOTH",
"182 67 OFFCURVE",
"147 88 OFFCURVE",
"147 149 CURVE SMOOTH",
"147 214 OFFCURVE",
"182 268 OFFCURVE",
"311 268 CURVE SMOOTH"
);
}
);
width = 546;
}
);
unicode = 0061;
},
{
glyphname = ae;
lastChange = "2016-08-03 16:06:21 +0000";
layers = (
{
layerId = UUID0;
paths = (
{
closed = 1;
nodes = (
"730 97 OFFCURVE",
"697 44 OFFCURVE",
"616 44 CURVE SMOOTH",
"517 44 OFFCURVE",
"477 121 OFFCURVE",
"477 230 CURVE SMOOTH",
"477 237 OFFCURVE",
"477 244 OFFCURVE",
"478 252 CURVE",
"747 252 LINE SMOOTH",
"773 252 OFFCURVE",
"804 260 OFFCURVE",
"804 301 CURVE SMOOTH",
"804 434 OFFCURVE",
"721 502 OFFCURVE",
"603 502 CURVE SMOOTH",
"535 502 OFFCURVE",
"481 484 OFFCURVE",
"442 448 CURVE",
"415 484 OFFCURVE",
"368 502 OFFCURVE",
"288 502 CURVE SMOOTH",
"245 502 OFFCURVE",
"184 494 OFFCURVE",
"139 475 CURVE SMOOTH",
"108 462 OFFCURVE",
"84 447 OFFCURVE",
"84 419 CURVE SMOOTH",
"84 401 OFFCURVE",
"95 385 OFFCURVE",
"119 385 CURVE SMOOTH",
"140 385 OFFCURVE",
"160 398 OFFCURVE",
"180 420 CURVE SMOOTH",
"199 441 OFFCURVE",
"226 462 OFFCURVE",
"268 462 CURVE SMOOTH",
"338 462 OFFCURVE",
"368 430 OFFCURVE",
"368 338 CURVE SMOOTH",
"368 310 LINE",
"295 310 LINE SMOOTH",
"93 310 OFFCURVE",
"43 221 OFFCURVE",
"43 135 CURVE SMOOTH",
"43 55 OFFCURVE",
"92 0 OFFCURVE",
"204 0 CURVE SMOOTH",
"271 0 OFFCURVE",
"360 44 OFFCURVE",
"393 110 CURVE",
"396 110 LINE",
"431 41 OFFCURVE",
"499 0 OFFCURVE",
"605 0 CURVE SMOOTH",
"695 0 OFFCURVE",
"752 36 OFFCURVE",
"789 82 CURVE SMOOTH",
"798 93 OFFCURVE",
"802 102 OFFCURVE",
"802 116 CURVE SMOOTH",
"802 129 OFFCURVE",
"790 137 OFFCURVE",
"779 137 CURVE SMOOTH",
"769 137 OFFCURVE",
"761 134 OFFCURVE",
"754 126 CURVE SMOOTH"
);
},
{
closed = 1;
nodes = (
"369 268 LINE",
"369 184 LINE SMOOTH",
"369 104 OFFCURVE",
"283 67 OFFCURVE",
"234 67 CURVE SMOOTH",
"182 67 OFFCURVE",
"147 88 OFFCURVE",
"147 149 CURVE SMOOTH",
"147 214 OFFCURVE",
"182 268 OFFCURVE",
"311 268 CURVE SMOOTH"
);
},
{
closed = 1;
nodes = (
"648 462 OFFCURVE",
"702 419 OFFCURVE",
"702 323 CURVE SMOOTH",
"702 300 OFFCURVE",
"690 294 OFFCURVE",
"668 294 CURVE SMOOTH",
"481 294 LINE",
"490 414 OFFCURVE",
"536 462 OFFCURVE",
"597 462 CURVE SMOOTH"
);
}
);
width = 844;
}
);
unicode = 00E6;
},
{
glyphname = b;
lastChange = "2016-08-03 16:06:21 +0000";
layers = (
{
layerId = UUID0;
paths = (
{
closed = 1;
nodes = (
"184 678 LINE",
"184 738 OFFCURVE",
"164 760 OFFCURVE",
"120 760 CURVE SMOOTH",
"88 760 OFFCURVE",
"80 743 OFFCURVE",
"80 713 CURVE SMOOTH",
"80 110 LINE SMOOTH",
"80 53 OFFCURVE",
"114 35 OFFCURVE",
"146 23 CURVE SMOOTH",
"180 10 OFFCURVE",
"227 0 OFFCURVE",
"275 0 CURVE SMOOTH",
"421 0 OFFCURVE",
"513 94 OFFCURVE",
"513 276 CURVE SMOOTH",
"513 463 OFFCURVE",
"430 502 OFFCURVE",
"342 502 CURVE SMOOTH",
"258 502 OFFCURVE",
"212 457 OFFCURVE",
"186 410 CURVE",
"184 410 LINE"
);
},
{
closed = 1;
nodes = (
"183 322 LINE",
"183 380 OFFCURVE",
"251 435 OFFCURVE",
"302 435 CURVE SMOOTH",
"359 435 OFFCURVE",
"405 409 OFFCURVE",
"405 268 CURVE SMOOTH",
"405 100 OFFCURVE",
"353 40 OFFCURVE",
"275 40 CURVE SMOOTH",
"215 40 OFFCURVE",
"183 66 OFFCURVE",
"183 93 CURVE SMOOTH"
);
}
);
width = 566;
}
);
unicode = 0062;
},
{
glyphname = c;
lastChange = "2016-08-03 16:06:21 +0000";
layers = (
{
layerId = UUID0;
paths = (
{
closed = 1;
nodes = (
"398 97 OFFCURVE",
"368 44 OFFCURVE",
"287 44 CURVE SMOOTH",
"190 44 OFFCURVE",
"158 119 OFFCURVE",
"158 250 CURVE SMOOTH",
"158 412 OFFCURVE",
"202 462 OFFCURVE",
"285 462 CURVE SMOOTH",
"334 462 OFFCURVE",
"352 430 OFFCURVE",
"363 398 CURVE SMOOTH",
"372 372 OFFCURVE",
"386 356 OFFCURVE",
"417 356 CURVE SMOOTH",
"436 356 OFFCURVE",
"459 370 OFFCURVE",
"459 395 CURVE SMOOTH",
"459 429 OFFCURVE",
"432 455 OFFCURVE",
"404 472 CURVE SMOOTH",
"370 492 OFFCURVE",
"332 502 OFFCURVE",
"287 502 CURVE SMOOTH",
"155 502 OFFCURVE",
"50 435 OFFCURVE",
"50 250 CURVE SMOOTH",
"50 107 OFFCURVE",
"109 0 OFFCURVE",
"276 0 CURVE SMOOTH",
"366 0 OFFCURVE",
"420 36 OFFCURVE",
"457 82 CURVE SMOOTH",
"466 93 OFFCURVE",
"470 102 OFFCURVE",
"470 116 CURVE SMOOTH",
"470 129 OFFCURVE",
"458 137 OFFCURVE",
"447 137 CURVE SMOOTH",
"437 137 OFFCURVE",
"429 134 OFFCURVE",
"422 126 CURVE SMOOTH"
);
}
);
width = 490;
}
);
unicode = 0063;
},
{
glyphname = ccedilla;
lastChange = "2016-08-03 16:06:21 +0000";
layers = (
{
layerId = UUID0;
paths = (
{
closed = 1;
nodes = (
"398 97 OFFCURVE",
"368 44 OFFCURVE",
"287 44 CURVE SMOOTH",
"190 44 OFFCURVE",
"158 119 OFFCURVE",
"158 250 CURVE SMOOTH",
"158 412 OFFCURVE",
"202 462 OFFCURVE",
"285 462 CURVE SMOOTH",
"334 462 OFFCURVE",
"352 430 OFFCURVE",
"363 398 CURVE SMOOTH",
"372 372 OFFCURVE",
"386 356 OFFCURVE",
"417 356 CURVE SMOOTH",
"436 356 OFFCURVE",
"459 370 OFFCURVE",
"459 395 CURVE SMOOTH",
"459 429 OFFCURVE",
"432 455 OFFCURVE",
"404 472 CURVE SMOOTH",
"370 492 OFFCURVE",
"332 502 OFFCURVE",
"287 502 CURVE SMOOTH",
"155 502 OFFCURVE",
"50 435 OFFCURVE",
"50 250 CURVE SMOOTH",
"50 118 OFFCURVE",
"100 17 OFFCURVE",
"239 2 CURVE",
"239 -75 LINE",
"288 -75 OFFCURVE",
"316 -79 OFFCURVE",
"316 -115 CURVE SMOOTH",
"316 -131 OFFCURVE",
"304 -149 OFFCURVE",
"269 -149 CURVE SMOOTH",
"248 -149 OFFCURVE",
"225 -138 OFFCURVE",
"211 -138 CURVE SMOOTH",
"198 -138 OFFCURVE",
"190 -147 OFFCURVE",
"190 -157 CURVE SMOOTH",
"190 -185 OFFCURVE",
"247 -198 OFFCURVE",
"281 -198 CURVE SMOOTH",
"345 -198 OFFCURVE",
"392 -166 OFFCURVE",
"392 -112 CURVE SMOOTH",
"392 -53 OFFCURVE",
"342 -38 OFFCURVE",
"291 -38 CURVE",
"291 0 LINE",
"372 4 OFFCURVE",
"422 38 OFFCURVE",
"457 82 CURVE SMOOTH",
"466 93 OFFCURVE",
"470 102 OFFCURVE",
"470 116 CURVE SMOOTH",
"470 129 OFFCURVE",
"458 137 OFFCURVE",
"447 137 CURVE SMOOTH",
"437 137 OFFCURVE",
"429 134 OFFCURVE",
"422 126 CURVE SMOOTH"
);
}
);
width = 490;
}
);
unicode = 00E7;
},
{
glyphname = d;
lastChange = "2016-08-03 16:06:21 +0000";
layers = (
{
layerId = UUID0;
paths = (
{
closed = 1;
nodes = (
"142 502 OFFCURVE",
"50 421 OFFCURVE",
"50 229 CURVE SMOOTH",
"50 55 OFFCURVE",
"136 0 OFFCURVE",
"221 0 CURVE SMOOTH",
"304 0 OFFCURVE",
"348 52 OFFCURVE",
"380 105 CURVE",
"383 104 LINE",
"383 39 OFFCURVE",
"400 0 OFFCURVE",
"444 0 CURVE SMOOTH",
"476 0 OFFCURVE",
"483 17 OFFCURVE",
"483 47 CURVE SMOOTH",
"483 713 LINE SMOOTH",
"483 743 OFFCURVE",
"475 760 OFFCURVE",
"443 760 CURVE SMOOTH",
"399 760 OFFCURVE",
"379 738 OFFCURVE",
"379 678 CURVE SMOOTH",
"379 485 LINE",
"354 495 OFFCURVE",
"320 502 OFFCURVE",
"288 502 CURVE SMOOTH"
);
},
{
closed = 1;
nodes = (
"158 415 OFFCURVE",
"210 462 OFFCURVE",
"288 462 CURVE SMOOTH",
"348 462 OFFCURVE",
"380 430 OFFCURVE",
"380 403 CURVE SMOOTH",
"380 194 LINE SMOOTH",
"380 135 OFFCURVE",
"316 67 OFFCURVE",
"261 67 CURVE SMOOTH",
"205 67 OFFCURVE",
"158 109 OFFCURVE",
"158 237 CURVE SMOOTH"
);
}
);
width = 563;
}
);
unicode = 0064;
},
{
glyphname = eth;
lastChange = "2016-08-03 16:06:21 +0000";
layers = (
{
layerId = UUID0;
paths = (
{
closed = 1;
nodes = (
"505 711 LINE",
"512 715 OFFCURVE",
"515 721 OFFCURVE",
"515 728 CURVE SMOOTH",
"515 739 OFFCURVE",
"506 754 OFFCURVE",
"492 754 CURVE SMOOTH",
"489 754 OFFCURVE",
"487 753 OFFCURVE",
"484 752 CURVE SMOOTH",
"389 702 LINE",
"344 739 OFFCURVE",
"285 760 OFFCURVE",
"210 760 CURVE SMOOTH",
"179 760 OFFCURVE",
"100 756 OFFCURVE",
"100 723 CURVE SMOOTH",
"100 713 OFFCURVE",
"107 704 OFFCURVE",
"117 704 CURVE SMOOTH",
"138 704 OFFCURVE",
"152 716 OFFCURVE",
"198 716 CURVE SMOOTH",
"246 716 OFFCURVE",
"286 696 OFFCURVE",
"317 664 CURVE",
"211 609 LINE SMOOTH",
"203 605 OFFCURVE",
"200 599 OFFCURVE",
"200 592 CURVE SMOOTH",
"200 580 OFFCURVE",
"210 566 OFFCURVE",
"223 566 CURVE SMOOTH",
"226 566 OFFCURVE",
"229 566 OFFCURVE",
"232 568 CURVE SMOOTH",
"346 628 LINE",
"377 580 OFFCURVE",
"395 519 OFFCURVE",
"400 462 CURVE",
"360 489 OFFCURVE",
"315 499 OFFCURVE",
"265 499 CURVE SMOOTH",
"131 499 OFFCURVE",
"50 395 OFFCURVE",
"50 249 CURVE SMOOTH",
"50 97 OFFCURVE",
"135 0 OFFCURVE",
"275 0 CURVE SMOOTH",
"454 0 OFFCURVE",
"509 175 OFFCURVE",
"509 343 CURVE SMOOTH",
"509 481 OFFCURVE",
"483 594 OFFCURVE",
"423 668 CURVE"
);
},
{
closed = 1;
nodes = (
"210 40 OFFCURVE",
"157 98 OFFCURVE",
"157 242 CURVE SMOOTH",
"157 356 OFFCURVE",
"186 459 OFFCURVE",
"282 459 CURVE SMOOTH",
"318 459 OFFCURVE",
"367 440 OFFCURVE",
"402 396 CURVE",
"402 261 OFFCURVE",
"397 40 OFFCURVE",
"271 40 CURVE SMOOTH"
);
}
);
width = 577;
}
);
unicode = 00F0;
},
{
glyphname = e;
lastChange = "2016-08-03 16:06:21 +0000";
layers = (
{
layerId = UUID0;
paths = (
{
closed = 1;
nodes = (
"411 97 OFFCURVE",
"378 44 OFFCURVE",
"297 44 CURVE SMOOTH",
"198 44 OFFCURVE",
"158 121 OFFCURVE",
"158 230 CURVE SMOOTH",
"158 237 OFFCURVE",
"158 244 OFFCURVE",
"159 252 CURVE",
"428 252 LINE SMOOTH",
"454 252 OFFCURVE",
"485 260 OFFCURVE",
"485 301 CURVE SMOOTH",
"485 434 OFFCURVE",
"402 502 OFFCURVE",
"284 502 CURVE SMOOTH",
"132 502 OFFCURVE",
"50 410 OFFCURVE",
"50 239 CURVE SMOOTH",
"50 94 OFFCURVE",
"126 0 OFFCURVE",
"286 0 CURVE SMOOTH",
"376 0 OFFCURVE",
"433 36 OFFCURVE",
"470 82 CURVE SMOOTH",
"479 93 OFFCURVE",
"483 102 OFFCURVE",
"483 116 CURVE SMOOTH",
"483 129 OFFCURVE",
"471 137 OFFCURVE",
"460 137 CURVE SMOOTH",
"450 137 OFFCURVE",
"442 134 OFFCURVE",
"435 126 CURVE SMOOTH"
);
},
{
closed = 1;
nodes = (
"329 462 OFFCURVE",
"383 419 OFFCURVE",
"383 323 CURVE SMOOTH",
"383 300 OFFCURVE",
"371 294 OFFCURVE",
"349 294 CURVE SMOOTH",
"162 294 LINE",
"171 414 OFFCURVE",
"217 462 OFFCURVE",
"278 462 CURVE SMOOTH"
);
}
);
width = 525;
}
);
unicode = 0065;
},
{
glyphname = f;
lastChange = "2016-08-03 16:06:21 +0000";
layers = (
{
layerId = UUID0;
paths = (
{
closed = 1;
nodes = (
"24 451 OFFCURVE",
"33 445 OFFCURVE",
"56 445 CURVE SMOOTH",
"111 445 LINE",
"111 47 LINE SMOOTH",
"111 17 OFFCURVE",
"119 0 OFFCURVE",
"151 0 CURVE SMOOTH",
"195 0 OFFCURVE",
"215 8 OFFCURVE",
"215 68 CURVE SMOOTH",
"215 445 LINE",
"326 445 LINE SMOOTH",
"348 445 OFFCURVE",
"361 458 OFFCURVE",
"361 471 CURVE SMOOTH",
"361 482 OFFCURVE",
"351 493 OFFCURVE",
"326 493 CURVE SMOOTH",
"215 493 LINE",
"215 578 LINE SMOOTH",
"215 694 OFFCURVE",
"262 720 OFFCURVE",
"303 720 CURVE SMOOTH",
"328 720 OFFCURVE",
"341 711 OFFCURVE",
"351 699 CURVE SMOOTH",
"361 687 OFFCURVE",
"376 670 OFFCURVE",
"396 670 CURVE SMOOTH",
"422 670 OFFCURVE",
"436 684 OFFCURVE",
"436 705 CURVE SMOOTH",
"436 732 OFFCURVE",
"399 760 OFFCURVE",
"338 760 CURVE SMOOTH",
"278 760 OFFCURVE",
"231 741 OFFCURVE",
"193 710 CURVE SMOOTH",
"152 676 OFFCURVE",
"117 619 OFFCURVE",
"112 493 CURVE",
"55 493 LINE",
"41 492 OFFCURVE",
"24 489 OFFCURVE",
"24 466 CURVE SMOOTH"
);
}
);
width = 353;
}
);
unicode = 0066;
},
{
glyphname = g;
lastChange = "2016-08-03 16:06:21 +0000";
layers = (
{
layerId = UUID0;
paths = (
{
closed = 1;
nodes = (
"191 -180 OFFCURVE",
"133 -145 OFFCURVE",
"133 -90 CURVE SMOOTH",
"133 -42 OFFCURVE",
"166 -30 OFFCURVE",
"166 -15 CURVE SMOOTH",
"166 -5 OFFCURVE",
"158 5 OFFCURVE",
"143 5 CURVE SMOOTH",
"119 5 OFFCURVE",
"55 -32 OFFCURVE",
"55 -97 CURVE SMOOTH",
"55 -168 OFFCURVE",
"125 -220 OFFCURVE",
"236 -220 CURVE SMOOTH",
"414 -220 OFFCURVE",
"522 -138 OFFCURVE",
"522 -31 CURVE SMOOTH",
"522 44 OFFCURVE",
"448 104 OFFCURVE",
"277 112 CURVE SMOOTH",
"182 116 OFFCURVE",
"166 135 OFFCURVE",
"166 152 CURVE SMOOTH",
"166 178 OFFCURVE",
"190 183 OFFCURVE",
"223 208 CURVE",
"245 201 OFFCURVE",
"280 199 OFFCURVE",
"303 199 CURVE SMOOTH",
"408 199 OFFCURVE",
"502 258 OFFCURVE",
"502 350 CURVE SMOOTH",
"502 385 OFFCURVE",
"486 419 OFFCURVE",
"465 442 CURVE",
"492 458 OFFCURVE",
"522 481 OFFCURVE",
"522 508 CURVE SMOOTH",
"522 531 OFFCURVE",
"506 550 OFFCURVE",
"487 550 CURVE SMOOTH",
"425 550 OFFCURVE",
"448 481 OFFCURVE",
"427 471 CURVE",
"394 494 OFFCURVE",
"335 502 OFFCURVE",
"302 502 CURVE SMOOTH",
"200 502 OFFCURVE",
"101 459 OFFCURVE",
"101 344 CURVE SMOOTH",
"101 303 OFFCURVE",
"122 249 OFFCURVE",
"175 228 CURVE",
"175 225 LINE",
"130 194 OFFCURVE",
"52 185 OFFCURVE",
"52 128 CURVE SMOOTH",
"52 67 OFFCURVE",
"123 44 OFFCURVE",
"229 36 CURVE SMOOTH",
"324 29 OFFCURVE",
"419 12 OFFCURVE",
"419 -60 CURVE SMOOTH",
"419 -118 OFFCURVE",
"357 -180 OFFCURVE",
"263 -180 CURVE SMOOTH"
);
},
{
closed = 1;
nodes = (
"399 285 OFFCURVE",
"361 239 OFFCURVE",
"302 239 CURVE SMOOTH",
"239 239 OFFCURVE",
"204 284 OFFCURVE",
"204 348 CURVE SMOOTH",
"204 419 OFFCURVE",
"242 462 OFFCURVE",
"302 462 CURVE SMOOTH",
"364 462 OFFCURVE",
"399 416 OFFCURVE",
"399 352 CURVE SMOOTH"
);
}
);
width = 568;
}
);
unicode = 0067;
},
{
glyphname = h;
lastChange = "2016-08-03 16:06:21 +0000";
layers = (
{
layerId = UUID0;
paths = (
{
closed = 1;
nodes = (
"184 678 LINE",
"184 738 OFFCURVE",
"164 760 OFFCURVE",
"120 760 CURVE SMOOTH",
"88 760 OFFCURVE",
"80 743 OFFCURVE",
"80 713 CURVE SMOOTH",
"80 47 LINE SMOOTH",
"80 17 OFFCURVE",
"88 0 OFFCURVE",
"120 0 CURVE SMOOTH",
"164 0 OFFCURVE",
"184 11 OFFCURVE",
"184 71 CURVE SMOOTH",
"184 310 LINE SMOOTH",
"184 375 OFFCURVE",
"255 435 OFFCURVE",
"311 435 CURVE SMOOTH",
"357 435 OFFCURVE",
"396 411 OFFCURVE",
"396 332 CURVE SMOOTH",
"396 82 LINE SMOOTH",
"396 22 OFFCURVE",
"416 0 OFFCURVE",
"460 0 CURVE SMOOTH",
"492 0 OFFCURVE",
"500 17 OFFCURVE",
"500 47 CURVE SMOOTH",
"500 351 LINE SMOOTH",
"500 452 OFFCURVE",
"453 502 OFFCURVE",
"359 502 CURVE SMOOTH",
"276 502 OFFCURVE",
"219 453 OFFCURVE",
"186 400 CURVE",
"184 400 LINE"
);
}
);
width = 580;
}
);
unicode = 0068;
},
{
glyphname = i;
lastChange = "2016-08-03 16:06:21 +0000";
layers = (
{
layerId = UUID0;
paths = (
{
closed = 1;
nodes = (
"189 434 LINE",
"189 480 OFFCURVE",
"169 502 OFFCURVE",
"125 502 CURVE SMOOTH",
"93 502 OFFCURVE",
"85 485 OFFCURVE",
"85 455 CURVE",
"85 47 LINE",
"85 17 OFFCURVE",
"93 0 OFFCURVE",
"125 0 CURVE SMOOTH",
"169 0 OFFCURVE",
"189 8 OFFCURVE",
"189 68 CURVE"
);
},
{
closed = 1;
nodes = (
"73 595 OFFCURVE",
"101 567 OFFCURVE",
"135 567 CURVE SMOOTH",
"169 567 OFFCURVE",
"197 595 OFFCURVE",
"197 629 CURVE SMOOTH",
"197 663 OFFCURVE",
"169 691 OFFCURVE",
"135 691 CURVE SMOOTH",
"101 691 OFFCURVE",
"73 663 OFFCURVE",
"73 629 CURVE SMOOTH"
);
}
);
width = 274;
}
);
unicode = 0069;
},
{
glyphname = idotless;
lastChange = "2016-08-03 16:49:19 +0000";
layers = (
{
layerId = UUID0;
paths = (
{
closed = 1;
nodes = (
"189 435 LINE",
"189 480 OFFCURVE",
"169 502 OFFCURVE",
"125 502 CURVE SMOOTH",
"93 502 OFFCURVE",
"85 485 OFFCURVE",
"85 455 CURVE",
"85 47 LINE",
"85 17 OFFCURVE",
"93 0 OFFCURVE",
"125 0 CURVE SMOOTH",
"169 0 OFFCURVE",
"189 8 OFFCURVE",
"189 68 CURVE"
);
}
);
width = 274;
}
);
unicode = 0131;
},
{
glyphname = j;
lastChange = "2016-08-03 16:06:21 +0000";
layers = (
{
layerId = UUID0;
paths = (
{
closed = 1;
nodes = (
"85 44 LINE",
"85 -28 OFFCURVE",
"81 -71 OFFCURVE",
"70 -101 CURVE SMOOTH",
"56 -139 OFFCURVE",
"25 -150 OFFCURVE",
"6 -162 CURVE SMOOTH",
"-9 -172 OFFCURVE",
"-17 -182 OFFCURVE",
"-17 -199 CURVE SMOOTH",
"-17 -214 OFFCURVE",
"-2 -220 OFFCURVE",
"13 -220 CURVE SMOOTH",
"27 -220 OFFCURVE",
"42 -213 OFFCURVE",
"56 -203 CURVE SMOOTH",
"90 -179 OFFCURVE",
"118 -137 OFFCURVE",
"131 -116 CURVE SMOOTH",
"170 -50 OFFCURVE",
"189 27 OFFCURVE",
"189 121 CURVE SMOOTH",
"189 434 LINE SMOOTH",
"189 480 OFFCURVE",
"169 502 OFFCURVE",
"125 502 CURVE SMOOTH",
"93 502 OFFCURVE",
"85 485 OFFCURVE",
"85 455 CURVE"
);
},
{
closed = 1;
nodes = (
"73 595 OFFCURVE",
"101 567 OFFCURVE",
"135 567 CURVE SMOOTH",
"169 567 OFFCURVE",
"197 595 OFFCURVE",
"197 629 CURVE SMOOTH",
"197 663 OFFCURVE",
"169 691 OFFCURVE",
"135 691 CURVE SMOOTH",
"101 691 OFFCURVE",
"73 663 OFFCURVE",
"73 629 CURVE SMOOTH"
);
}
);
width = 274;
}
);
unicode = 006A;
},
{
glyphname = k;
lastChange = "2016-08-03 16:06:21 +0000";
layers = (
{
layerId = UUID0;
paths = (
{
closed = 1;
nodes = (
"184 678 LINE",
"184 738 OFFCURVE",
"164 760 OFFCURVE",
"120 760 CURVE SMOOTH",
"88 760 OFFCURVE",
"80 743 OFFCURVE",
"80 713 CURVE SMOOTH",
"80 47 LINE SMOOTH",
"80 17 OFFCURVE",
"88 0 OFFCURVE",
"120 0 CURVE SMOOTH",
"164 0 OFFCURVE",
"184 11 OFFCURVE",
"184 71 CURVE SMOOTH",
"184 231 LINE",
"195 243 LINE",
"254 173 OFFCURVE",
"313 99 OFFCURVE",
"369 31 CURVE SMOOTH",
"384 13 OFFCURVE",
"397 0 OFFCURVE",
"445 0 CURVE SMOOTH",
"489 0 OFFCURVE",
"493 9 OFFCURVE",
"493 19 CURVE SMOOTH",
"493 28 OFFCURVE",
"486 38 OFFCURVE",
"475 51 CURVE SMOOTH",
"412 125 OFFCURVE",
"335 213 OFFCURVE",
"268 293 CURVE",
"317 332 OFFCURVE",
"352 364 OFFCURVE",
"392 390 CURVE SMOOTH",
"454 432 OFFCURVE",
"492 446 OFFCURVE",
"492 475 CURVE SMOOTH",
"492 487 OFFCURVE",
"487 502 OFFCURVE",
"463 502 CURVE SMOOTH",
"416 502 OFFCURVE",
"375 453 OFFCURVE",
"320 403 CURVE SMOOTH",
"184 279 LINE"
);
}
);
width = 513;
}
);
unicode = 006B;
},
{
glyphname = l;
lastChange = "2016-08-03 16:06:21 +0000";
layers = (
{
layerId = UUID0;
paths = (
{
closed = 1;
nodes = (
"189 678 LINE",
"189 738 OFFCURVE",
"169 760 OFFCURVE",
"125 760 CURVE SMOOTH",
"93 760 OFFCURVE",
"85 743 OFFCURVE",
"85 713 CURVE SMOOTH",
"85 47 LINE SMOOTH",
"85 17 OFFCURVE",
"93 0 OFFCURVE",
"125 0 CURVE SMOOTH",
"169 0 OFFCURVE",
"189 8 OFFCURVE",
"189 68 CURVE SMOOTH"
);
}
);
width = 274;
}
);
unicode = 006C;
},
{
glyphname = lslash;
lastChange = "2016-08-03 16:06:21 +0000";
layers = (
{
layerId = UUID0;
paths = (
{
closed = 1;
nodes = (
"9 296 LINE",
"3 292 OFFCURVE",
"0 286 OFFCURVE",
"0 279 CURVE SMOOTH",
"0 263 OFFCURVE",
"13 247 OFFCURVE",
"28 247 CURVE SMOOTH",
"31 247 OFFCURVE",
"35 248 OFFCURVE",
"38 250 CURVE SMOOTH",
"111 295 LINE",
"111 47 LINE SMOOTH",
"111 17 OFFCURVE",
"119 0 OFFCURVE",
"151 0 CURVE SMOOTH",
"195 0 OFFCURVE",
"215 8 OFFCURVE",
"215 68 CURVE SMOOTH",
"215 360 LINE",
"330 432 LINE SMOOTH",
"337 436 OFFCURVE",
"340 443 OFFCURVE",
"340 450 CURVE SMOOTH",
"340 466 OFFCURVE",
"326 481 OFFCURVE",
"312 481 CURVE SMOOTH",
"309 481 OFFCURVE",
"306 481 OFFCURVE",
"303 479 CURVE SMOOTH",
"215 424 LINE",
"215 678 LINE SMOOTH",
"215 738 OFFCURVE",
"195 760 OFFCURVE",
"151 760 CURVE SMOOTH",
"119 760 OFFCURVE",
"111 743 OFFCURVE",
"111 713 CURVE SMOOTH",
"111 359 LINE"
);
}
);
width = 340;
}
);
unicode = 0142;
},
{
glyphname = m;
lastChange = "2016-08-03 16:06:21 +0000";
layers = (
{
layerId = UUID0;
paths = (
{
closed = 1;
nodes = (
"646 82 LINE",
"646 22 OFFCURVE",
"665 0 OFFCURVE",
"709 0 CURVE SMOOTH",
"741 0 OFFCURVE",
"749 17 OFFCURVE",
"749 47 CURVE SMOOTH",
"749 351 LINE SMOOTH",
"749 449 OFFCURVE",
"710 502 OFFCURVE",
"621 502 CURVE SMOOTH",
"538 502 OFFCURVE",
"497 452 OFFCURVE",
"464 399 CURVE",
"462 399 LINE",
"451 466 OFFCURVE",
"410 502 OFFCURVE",
"338 502 CURVE SMOOTH",
"255 502 OFFCURVE",
"216 462 OFFCURVE",
"183 409 CURVE",
"181 409 LINE",
"181 416 LINE SMOOTH",
"181 475 OFFCURVE",
"159 502 OFFCURVE",
"123 502 CURVE SMOOTH",
"93 502 OFFCURVE",
"80 491 OFFCURVE",
"80 459 CURVE SMOOTH",
"80 47 LINE SMOOTH",
"80 17 OFFCURVE",
"88 0 OFFCURVE",
"120 0 CURVE SMOOTH",
"164 0 OFFCURVE",
"183 11 OFFCURVE",
"183 71 CURVE SMOOTH",
"183 320 LINE SMOOTH",
"183 385 OFFCURVE",
"242 435 OFFCURVE",
"290 435 CURVE SMOOTH",
"336 435 OFFCURVE",
"363 411 OFFCURVE",
"363 332 CURVE SMOOTH",
"363 47 LINE SMOOTH",
"363 17 OFFCURVE",
"371 0 OFFCURVE",
"403 0 CURVE SMOOTH",
"447 0 OFFCURVE",
"466 11 OFFCURVE",
"466 71 CURVE SMOOTH",
"466 310 LINE SMOOTH",
"466 375 OFFCURVE",
"525 435 OFFCURVE",
"573 435 CURVE SMOOTH",
"619 435 OFFCURVE",
"646 411 OFFCURVE",
"646 332 CURVE SMOOTH"
);
}
);
width = 829;
}
);
unicode = 006D;
},
{
glyphname = n;
lastChange = "2016-08-03 16:06:21 +0000";
layers = (
{
layerId = UUID0;
paths = (
{
closed = 1;
nodes = (
"80 47 LINE",
"80 17 OFFCURVE",
"88 0 OFFCURVE",
"120 0 CURVE SMOOTH",
"164 0 OFFCURVE",
"184 11 OFFCURVE",
"184 71 CURVE SMOOTH",
"184 320 LINE SMOOTH",
"184 385 OFFCURVE",
"255 435 OFFCURVE",
"311 435 CURVE SMOOTH",
"357 435 OFFCURVE",
"396 411 OFFCURVE",
"396 332 CURVE SMOOTH",
"396 82 LINE SMOOTH",
"396 22 OFFCURVE",
"416 0 OFFCURVE",
"460 0 CURVE SMOOTH",
"492 0 OFFCURVE",
"500 17 OFFCURVE",
"500 47 CURVE SMOOTH",
"500 351 LINE SMOOTH",
"500 452 OFFCURVE",
"453 502 OFFCURVE",
"359 502 CURVE SMOOTH",
"276 502 OFFCURVE",
"217 462 OFFCURVE",
"184 409 CURVE",
"182 409 LINE",
"182 416 LINE SMOOTH",
"182 475 OFFCURVE",
"159 502 OFFCURVE",
"123 502 CURVE SMOOTH",
"93 502 OFFCURVE",
"80 491 OFFCURVE",
"80 459 CURVE SMOOTH"
);
}
);
width = 580;
}
);
unicode = 006E;
},
{
glyphname = o;
lastChange = "2016-08-03 16:06:21 +0000";
layers = (
{
layerId = UUID0;
paths = (
{
closed = 1;
nodes = (
"421 0 OFFCURVE",
"508 80 OFFCURVE",
"508 251 CURVE SMOOTH",
"508 426 OFFCURVE",
"416 502 OFFCURVE",
"279 502 CURVE SMOOTH",
"143 502 OFFCURVE",
"50 426 OFFCURVE",
"50 251 CURVE SMOOTH",
"50 80 OFFCURVE",
"137 0 OFFCURVE",
"279 0 CURVE SMOOTH"
);
},
{
closed = 1;
nodes = (
"208 40 OFFCURVE",
"158 82 OFFCURVE",
"158 251 CURVE SMOOTH",
"158 420 OFFCURVE",
"213 462 OFFCURVE",
"279 462 CURVE SMOOTH",
"347 462 OFFCURVE",
"400 420 OFFCURVE",
"400 251 CURVE SMOOTH",
"400 80 OFFCURVE",
"350 40 OFFCURVE",
"279 40 CURVE SMOOTH"
);
}
);
width = 558;
}
);
unicode = 006F;
},
{
glyphname = oslash;
lastChange = "2016-08-03 16:06:21 +0000";
layers = (
{
layerId = UUID0;
paths = (
{
closed = 1;
nodes = (
"470 537 LINE",
"471 539 OFFCURVE",
"471 540 OFFCURVE",
"471 542 CURVE SMOOTH",
"471 556 OFFCURVE",
"447 571 OFFCURVE",
"429 571 CURVE SMOOTH",
"423 571 OFFCURVE",
"418 569 OFFCURVE",
"416 565 CURVE SMOOTH",
"372 487 LINE",
"344 497 OFFCURVE",
"313 502 OFFCURVE",
"279 502 CURVE SMOOTH",
"143 502 OFFCURVE",
"50 426 OFFCURVE",
"50 251 CURVE SMOOTH",
"50 157 OFFCURVE",
"76 91 OFFCURVE",
"123 50 CURVE",
"69 -45 LINE SMOOTH",
"68 -47 OFFCURVE",
"68 -48 OFFCURVE",
"68 -50 CURVE SMOOTH",
"68 -63 OFFCURVE",
"90 -77 OFFCURVE",
"107 -77 CURVE SMOOTH",
"112 -77 OFFCURVE",
"117 -75 OFFCURVE",
"119 -71 CURVE SMOOTH",
"171 20 LINE",
"202 6 OFFCURVE",
"238 0 OFFCURVE",
"279 0 CURVE SMOOTH",
"421 0 OFFCURVE",
"508 80 OFFCURVE",
"508 251 CURVE SMOOTH",
"508 352 OFFCURVE",
"477 420 OFFCURVE",
"425 459 CURVE"
);
},
{
closed = 1;
nodes = (
"248 40 OFFCURVE",
"221 48 OFFCURVE",
"201 71 CURVE",
"382 385 LINE",
"393 353 OFFCURVE",
"400 310 OFFCURVE",
"400 251 CURVE SMOOTH",
"400 80 OFFCURVE",
"350 40 OFFCURVE",
"279 40 CURVE SMOOTH"
);
},
{
closed = 1;
nodes = (
"158 420 OFFCURVE",
"213 462 OFFCURVE",
"279 462 CURVE SMOOTH",
"304 462 OFFCURVE",
"326 456 OFFCURVE",
"345 441 CURVE",
"170 132 LINE",
"162 162 OFFCURVE",
"158 201 OFFCURVE",
"158 251 CURVE SMOOTH"
);
}
);
width = 558;
}
);
unicode = 00F8;
},
{
glyphname = oe;
lastChange = "2016-08-03 16:06:21 +0000";
layers = (
{
layerId = UUID0;
paths = (
{
closed = 1;
nodes = (
"761 97 OFFCURVE",
"728 44 OFFCURVE",
"647 44 CURVE SMOOTH",
"548 44 OFFCURVE",
"508 121 OFFCURVE",
"508 230 CURVE SMOOTH",
"508 237 OFFCURVE",
"508 244 OFFCURVE",
"509 252 CURVE",
"778 252 LINE SMOOTH",
"804 252 OFFCURVE",
"835 260 OFFCURVE",
"835 301 CURVE SMOOTH",
"835 434 OFFCURVE",
"752 502 OFFCURVE",
"634 502 CURVE SMOOTH",
"554 502 OFFCURVE",
"495 477 OFFCURVE",
"456 428 CURVE",
"416 478 OFFCURVE",
"354 502 OFFCURVE",
"279 502 CURVE SMOOTH",
"143 502 OFFCURVE",
"50 426 OFFCURVE",
"50 251 CURVE SMOOTH",
"50 80 OFFCURVE",
"137 0 OFFCURVE",
"279 0 CURVE SMOOTH",
"355 0 OFFCURVE",
"415 23 OFFCURVE",
"454 71 CURVE",
"492 25 OFFCURVE",
"552 0 OFFCURVE",
"636 0 CURVE SMOOTH",
"726 0 OFFCURVE",
"783 36 OFFCURVE",
"820 82 CURVE SMOOTH",
"829 93 OFFCURVE",
"833 102 OFFCURVE",
"833 116 CURVE SMOOTH",
"833 129 OFFCURVE",
"821 137 OFFCURVE",
"810 137 CURVE SMOOTH",
"800 137 OFFCURVE",
"792 134 OFFCURVE",
"785 126 CURVE SMOOTH"
);
},
{
closed = 1;
nodes = (
"208 40 OFFCURVE",
"158 82 OFFCURVE",
"158 251 CURVE SMOOTH",
"158 420 OFFCURVE",
"213 462 OFFCURVE",
"279 462 CURVE SMOOTH",
"347 462 OFFCURVE",
"400 420 OFFCURVE",
"400 251 CURVE SMOOTH",
"400 80 OFFCURVE",
"350 40 OFFCURVE",
"279 40 CURVE SMOOTH"
);
},
{
closed = 1;
nodes = (
"679 462 OFFCURVE",
"733 419 OFFCURVE",
"733 323 CURVE SMOOTH",
"733 300 OFFCURVE",
"721 294 OFFCURVE",
"699 294 CURVE SMOOTH",
"512 294 LINE",
"521 414 OFFCURVE",
"567 462 OFFCURVE",
"628 462 CURVE SMOOTH"
);
}
);
width = 875;
}
);
unicode = 0153;
},
{
glyphname = p;
lastChange = "2016-08-03 16:06:21 +0000";
layers = (
{
layerId = UUID0;
paths = (
{
closed = 1;
nodes = (
"80 -173 LINE",
"80 -203 OFFCURVE",
"88 -220 OFFCURVE",
"120 -220 CURVE SMOOTH",
"164 -220 OFFCURVE",
"184 -209 OFFCURVE",
"184 -149 CURVE SMOOTH",
"184 19 LINE",
"210 7 OFFCURVE",
"243 0 OFFCURVE",
"275 0 CURVE SMOOTH",
"421 0 OFFCURVE",
"513 89 OFFCURVE",
"513 276 CURVE SMOOTH",
"513 458 OFFCURVE",
"430 502 OFFCURVE",
"342 502 CURVE SMOOTH",
"259 502 OFFCURVE",
"215 461 OFFCURVE",
"183 408 CURVE",
"182 408 LINE",
"182 416 LINE",
"181 476 OFFCURVE",
"161 502 OFFCURVE",
"119 502 CURVE SMOOTH",
"96 502 OFFCURVE",
"80 492 OFFCURVE",
"80 459 CURVE SMOOTH"
);
},
{
closed = 1;
nodes = (
"405 95 OFFCURVE",
"353 40 OFFCURVE",
"275 40 CURVE SMOOTH",
"215 40 OFFCURVE",
"183 74 OFFCURVE",
"183 101 CURVE SMOOTH",
"183 318 LINE SMOOTH",
"183 377 OFFCURVE",
"247 435 OFFCURVE",
"302 435 CURVE SMOOTH",
"359 435 OFFCURVE",
"405 404 OFFCURVE",
"405 268 CURVE SMOOTH"
);
}
);
width = 566;
}
);
unicode = 0070;
},
{
glyphname = thorn;
lastChange = "2016-08-03 16:06:21 +0000";
layers = (
{
layerId = UUID0;
paths = (
{
closed = 1;
nodes = (
"80 -173 LINE",
"80 -203 OFFCURVE",
"88 -220 OFFCURVE",
"120 -220 CURVE SMOOTH",
"164 -220 OFFCURVE",
"184 -209 OFFCURVE",
"184 -149 CURVE SMOOTH",
"184 19 LINE",
"210 7 OFFCURVE",
"243 0 OFFCURVE",
"275 0 CURVE SMOOTH",
"421 0 OFFCURVE",
"513 89 OFFCURVE",
"513 276 CURVE SMOOTH",
"513 458 OFFCURVE",
"430 502 OFFCURVE",
"342 502 CURVE SMOOTH",
"259 502 OFFCURVE",
"215 461 OFFCURVE",
"183 408 CURVE",
"182 408 LINE",
"189 491 LINE",
"189 674 LINE SMOOTH",
"189 734 OFFCURVE",
"168 760 OFFCURVE",
"126 760 CURVE SMOOTH",
"103 760 OFFCURVE",
"80 750 OFFCURVE",
"80 717 CURVE SMOOTH"
);
},
{
closed = 1;
nodes = (
"405 95 OFFCURVE",
"353 40 OFFCURVE",
"275 40 CURVE SMOOTH",
"215 40 OFFCURVE",
"183 74 OFFCURVE",
"183 101 CURVE SMOOTH",
"183 318 LINE SMOOTH",
"183 377 OFFCURVE",
"247 435 OFFCURVE",
"302 435 CURVE SMOOTH",
"359 435 OFFCURVE",
"405 404 OFFCURVE",
"405 268 CURVE SMOOTH"
);
}
);
width = 566;
}
);
unicode = 00FE;
},
{
glyphname = q;
lastChange = "2016-08-03 16:06:21 +0000";
layers = (
{
layerId = UUID0;
paths = (
{
closed = 1;
nodes = (
"483 392 LINE",
"483 449 OFFCURVE",
"449 467 OFFCURVE",
"417 479 CURVE SMOOTH",
"383 492 OFFCURVE",
"336 502 OFFCURVE",
"288 502 CURVE SMOOTH",
"142 502 OFFCURVE",
"50 418 OFFCURVE",
"50 226 CURVE SMOOTH",
"50 44 OFFCURVE",
"133 0 OFFCURVE",
"221 0 CURVE SMOOTH",
"305 0 OFFCURVE",
"351 45 OFFCURVE",
"377 92 CURVE",
"379 92 LINE",
"379 -144 LINE SMOOTH",
"379 -204 OFFCURVE",
"399 -215 OFFCURVE",
"443 -215 CURVE SMOOTH",
"475 -215 OFFCURVE",
"483 -198 OFFCURVE",
"483 -168 CURVE SMOOTH"
);
},
{
closed = 1;
nodes = (
"380 180 LINE",
"380 122 OFFCURVE",
"312 67 OFFCURVE",
"261 67 CURVE SMOOTH",
"204 67 OFFCURVE",
"158 98 OFFCURVE",
"158 234 CURVE SMOOTH",
"158 412 OFFCURVE",
"210 462 OFFCURVE",
"288 462 CURVE SMOOTH",
"348 462 OFFCURVE",
"380 436 OFFCURVE",
"380 409 CURVE SMOOTH"
);
}
);
width = 563;
}
);
unicode = 0071;
},
{
glyphname = r;
lastChange = "2016-08-03 16:06:21 +0000";
layers = (
{
layerId = UUID0;
paths = (
{
closed = 1;
nodes = (
"403 486 OFFCURVE",
"392 502 OFFCURVE",
"357 502 CURVE SMOOTH",
"345 502 LINE SMOOTH",
"256 502 OFFCURVE",
"208 429 OFFCURVE",
"184 391 CURVE",
"182 391 LINE",
"182 416 LINE",
"182 475 OFFCURVE",
"159 502 OFFCURVE",
"123 502 CURVE SMOOTH",
"93 502 OFFCURVE",
"80 491 OFFCURVE",
"80 459 CURVE",
"80 47 LINE",
"80 17 OFFCURVE",
"88 0 OFFCURVE",
"120 0 CURVE SMOOTH",
"164 0 OFFCURVE",
"184 11 OFFCURVE",
"184 71 CURVE",
"184 295 LINE",
"184 355 OFFCURVE",
"224 420 OFFCURVE",
"332 420 CURVE SMOOTH",
"365 420 LINE SMOOTH",
"394 420 OFFCURVE",
"404 435 OFFCURVE",
"404 459 CURVE"
);
}
);
width = 395;
}
);
unicode = 0072;
},
{
glyphname = s;
lastChange = "2016-08-03 16:06:21 +0000";
layers = (
{
layerId = UUID0;
paths = (
{
closed = 1;
nodes = (
"349 63 OFFCURVE",
"299 40 OFFCURVE",
"246 40 CURVE SMOOTH",
"179 40 OFFCURVE",
"156 72 OFFCURVE",
"143 99 CURVE SMOOTH",
"133 121 OFFCURVE",
"117 135 OFFCURVE",
"88 135 CURVE SMOOTH",
"70 135 OFFCURVE",
"49 120 OFFCURVE",
"49 98 CURVE SMOOTH",
"49 68 OFFCURVE",
"71 46 OFFCURVE",
"98 32 CURVE SMOOTH",
"130 15 OFFCURVE",
"183 0 OFFCURVE",
"244 0 CURVE SMOOTH",
"366 0 OFFCURVE",
"451 59 OFFCURVE",
"451 149 CURVE SMOOTH",
"451 230 OFFCURVE",
"359 262 OFFCURVE",
"277 291 CURVE SMOOTH",
"209 315 OFFCURVE",
"156 334 OFFCURVE",
"156 388 CURVE SMOOTH",
"156 440 OFFCURVE",
"197 462 OFFCURVE",
"242 462 CURVE SMOOTH",
"295 462 OFFCURVE",
"318 437 OFFCURVE",
"331 410 CURVE SMOOTH",
"341 388 OFFCURVE",
"356 374 OFFCURVE",
"385 374 CURVE SMOOTH",
"405 374 OFFCURVE",
"424 388 OFFCURVE",
"424 410 CURVE SMOOTH",
"424 440 OFFCURVE",
"398 463 OFFCURVE",
"371 477 CURVE SMOOTH",
"339 494 OFFCURVE",
"291 502 OFFCURVE",
"241 502 CURVE SMOOTH",
"183 502 OFFCURVE",
"56 482 OFFCURVE",
"56 369 CURVE SMOOTH",
"56 283 OFFCURVE",
"126 257 OFFCURVE",
"218 226 CURVE SMOOTH",
"290 201 OFFCURVE",
"349 181 OFFCURVE",
"349 122 CURVE SMOOTH"
);
}
);
width = 494;
}
);
unicode = 0073;
},
{
glyphname = scedilla;
lastChange = "2016-08-03 16:06:21 +0000";
layers = (
{
layerId = UUID0;
paths = (
{
closed = 1;
nodes = (
"349 63 OFFCURVE",
"299 40 OFFCURVE",
"246 40 CURVE SMOOTH",
"179 40 OFFCURVE",
"156 72 OFFCURVE",
"143 99 CURVE SMOOTH",
"133 121 OFFCURVE",
"117 135 OFFCURVE",
"88 135 CURVE SMOOTH",
"70 135 OFFCURVE",
"49 120 OFFCURVE",
"49 98 CURVE SMOOTH",
"49 68 OFFCURVE",
"71 46 OFFCURVE",
"98 32 CURVE SMOOTH",
"125 18 OFFCURVE",
"166 5 OFFCURVE",
"215 1 CURVE",
"215 -75 LINE",
"264 -75 OFFCURVE",
"292 -79 OFFCURVE",
"292 -115 CURVE SMOOTH",
"292 -131 OFFCURVE",
"280 -149 OFFCURVE",
"245 -149 CURVE SMOOTH",
"224 -149 OFFCURVE",
"201 -138 OFFCURVE",
"187 -138 CURVE SMOOTH",
"174 -138 OFFCURVE",
"166 -147 OFFCURVE",
"166 -157 CURVE SMOOTH",
"166 -185 OFFCURVE",
"223 -198 OFFCURVE",
"257 -198 CURVE SMOOTH",
"321 -198 OFFCURVE",
"368 -166 OFFCURVE",
"368 -112 CURVE SMOOTH",
"368 -53 OFFCURVE",
"318 -38 OFFCURVE",
"267 -38 CURVE",
"267 1 LINE",
"376 8 OFFCURVE",
"451 65 OFFCURVE",
"451 149 CURVE SMOOTH",
"451 230 OFFCURVE",
"359 262 OFFCURVE",
"277 291 CURVE SMOOTH",
"209 315 OFFCURVE",
"156 334 OFFCURVE",
"156 388 CURVE SMOOTH",
"156 440 OFFCURVE",
"197 462 OFFCURVE",
"242 462 CURVE SMOOTH",
"295 462 OFFCURVE",
"318 437 OFFCURVE",
"331 410 CURVE SMOOTH",
"341 388 OFFCURVE",
"356 374 OFFCURVE",
"385 374 CURVE SMOOTH",
"405 374 OFFCURVE",
"424 388 OFFCURVE",
"424 410 CURVE SMOOTH",
"424 440 OFFCURVE",
"398 463 OFFCURVE",
"371 477 CURVE SMOOTH",
"339 494 OFFCURVE",
"291 502 OFFCURVE",
"241 502 CURVE SMOOTH",
"183 502 OFFCURVE",
"56 482 OFFCURVE",
"56 369 CURVE SMOOTH",
"56 283 OFFCURVE",
"126 257 OFFCURVE",
"218 226 CURVE SMOOTH",
"290 201 OFFCURVE",
"349 181 OFFCURVE",
"349 122 CURVE SMOOTH"
);
}
);
width = 494;
}
);
unicode = 015F;
},
{
glyphname = germandbls;
lastChange = "2016-08-03 16:06:21 +0000";
layers = (
{
layerId = UUID0;
paths = (
{
closed = 1;
nodes = (
"80 47 LINE",
"80 17 OFFCURVE",
"88 0 OFFCURVE",
"120 0 CURVE SMOOTH",
"164 0 OFFCURVE",
"184 11 OFFCURVE",
"184 71 CURVE SMOOTH",
"184 574 LINE SMOOTH",
"184 637 OFFCURVE",
"196 719 OFFCURVE",
"288 719 CURVE SMOOTH",
"362 719 OFFCURVE",
"381 647 OFFCURVE",
"381 582 CURVE SMOOTH",
"381 491 OFFCURVE",
"345 438 OFFCURVE",
"284 438 CURVE SMOOTH",
"257 438 LINE SMOOTH",
"245 438 OFFCURVE",
"239 425 OFFCURVE",
"239 413 CURVE SMOOTH",
"239 401 OFFCURVE",
"244 389 OFFCURVE",
"256 389 CURVE SMOOTH",
"284 389 LINE SMOOTH",
"364 389 OFFCURVE",
"415 351 OFFCURVE",
"415 230 CURVE SMOOTH",
"415 89 OFFCURVE",
"364 45 OFFCURVE",
"314 45 CURVE SMOOTH",
"294 45 OFFCURVE",
"280 51 OFFCURVE",
"262 51 CURVE SMOOTH",
"251 51 OFFCURVE",
"245 43 OFFCURVE",
"245 33 CURVE SMOOTH",
"245 0 OFFCURVE",
"300 0 OFFCURVE",
"329 0 CURVE SMOOTH",
"422 0 OFFCURVE",
"520 60 OFFCURVE",
"520 231 CURVE SMOOTH",
"520 340 OFFCURVE",
"466 409 OFFCURVE",
"385 421 CURVE",
"385 425 LINE",
"451 447 OFFCURVE",
"486 509 OFFCURVE",
"486 582 CURVE SMOOTH",
"486 700 OFFCURVE",
"404 760 OFFCURVE",
"288 760 CURVE SMOOTH",
"105 760 OFFCURVE",
"80 629 OFFCURVE",
"80 517 CURVE SMOOTH"
);
}
);
width = 570;
}
);
unicode = 00DF;
},
{
glyphname = t;
lastChange = "2016-08-03 16:06:21 +0000";
layers = (
{
layerId = UUID0;
paths = (
{
closed = 1;
nodes = (
"213 573 LINE",
"213 611 OFFCURVE",
"210 628 OFFCURVE",
"186 628 CURVE SMOOTH",
"155 628 OFFCURVE",
"160 593 OFFCURVE",
"113 543 CURVE SMOOTH",
"67 493 OFFCURVE",
"22 501 OFFCURVE",
"22 475 CURVE SMOOTH",
"22 460 OFFCURVE",
"31 454 OFFCURVE",
"54 454 CURVE SMOOTH",
"109 454 LINE",
"109 158 LINE SMOOTH",
"109 68 OFFCURVE",
"140 0 OFFCURVE",
"261 0 CURVE SMOOTH",
"314 0 OFFCURVE",
"366 24 OFFCURVE",
"401 76 CURVE SMOOTH",
"407 84 OFFCURVE",
"416 103 OFFCURVE",
"416 114 CURVE SMOOTH",
"416 129 OFFCURVE",
"406 138 OFFCURVE",
"390 138 CURVE SMOOTH",
"345 138 OFFCURVE",
"353 44 OFFCURVE",
"273 44 CURVE SMOOTH",
"245 44 OFFCURVE",
"213 66 OFFCURVE",
"213 135 CURVE SMOOTH",
"213 454 LINE",
"324 454 LINE SMOOTH",
"346 454 OFFCURVE",
"359 467 OFFCURVE",
"359 480 CURVE SMOOTH",
"359 491 OFFCURVE",
"349 502 OFFCURVE",
"324 502 CURVE SMOOTH",
"213 502 LINE"
);
}
);
width = 426;
}
);
unicode = 0074;
},
{
glyphname = u;
lastChange = "2016-08-03 16:06:21 +0000";
layers = (
{
layerId = UUID0;
paths = (
{
closed = 1;
nodes = (
"184 420 LINE",
"184 480 OFFCURVE",
"164 502 OFFCURVE",
"120 502 CURVE SMOOTH",
"88 502 OFFCURVE",
"80 485 OFFCURVE",
"80 455 CURVE SMOOTH",
"80 151 LINE SMOOTH",
"80 50 OFFCURVE",
"127 0 OFFCURVE",
"221 0 CURVE SMOOTH",
"304 0 OFFCURVE",
"363 40 OFFCURVE",
"396 93 CURVE",
"398 93 LINE",
"398 86 LINE SMOOTH",
"398 22 OFFCURVE",
"421 0 OFFCURVE",
"457 0 CURVE SMOOTH",
"487 0 OFFCURVE",
"500 11 OFFCURVE",
"500 43 CURVE SMOOTH",
"500 455 LINE SMOOTH",
"500 485 OFFCURVE",
"492 502 OFFCURVE",
"460 502 CURVE SMOOTH",
"416 502 OFFCURVE",
"396 490 OFFCURVE",
"396 430 CURVE SMOOTH",
"396 182 LINE SMOOTH",
"396 117 OFFCURVE",
"325 67 OFFCURVE",
"269 67 CURVE SMOOTH",
"223 67 OFFCURVE",
"184 91 OFFCURVE",
"184 170 CURVE SMOOTH"
);
}
);
width = 580;
}
);
unicode = 0075;
},
{
glyphname = v;
lastChange = "2016-08-03 16:06:21 +0000";
layers = (
{
layerId = UUID0;
paths = (
{
closed = 1;
nodes = (
"414 502 OFFCURVE",
"403 472 OFFCURVE",
"394 440 CURVE SMOOTH",
"380 390 OFFCURVE",
"369 349 OFFCURVE",
"343 279 CURVE SMOOTH",
"275 98 LINE",
"270 98 LINE",
"149 435 LINE SMOOTH",
"132 484 OFFCURVE",
"98 502 OFFCURVE",
"67 502 CURVE SMOOTH",
"49 502 OFFCURVE",
"30 498 OFFCURVE",
"30 475 CURVE SMOOTH",
"30 469 OFFCURVE",
"31 461 OFFCURVE",
"35 452 CURVE SMOOTH",
"199 25 LINE SMOOTH",
"206 7 OFFCURVE",
"228 0 OFFCURVE",
"252 0 CURVE SMOOTH",
"279 0 OFFCURVE",
"303 7 OFFCURVE",
"310 25 CURVE SMOOTH",
"477 452 LINE SMOOTH",
"481 461 OFFCURVE",
"482 467 OFFCURVE",
"482 479 CURVE SMOOTH",
"482 496 OFFCURVE",
"467 502 OFFCURVE",
"450 502 CURVE SMOOTH"
);
}
);
width = 512;
}
);
unicode = 0076;
},
{
glyphname = w;
lastChange = "2016-08-03 16:06:21 +0000";
layers = (
{
layerId = UUID0;
paths = (
{
closed = 1;
nodes = (
"368 502 OFFCURVE",
"359 489 OFFCURVE",
"343 437 CURVE SMOOTH",
"331 398 OFFCURVE",
"310 309 OFFCURVE",
"285 234 CURVE SMOOTH",
"239 98 LINE",
"234 98 LINE",
"149 435 LINE SMOOTH",
"137 485 OFFCURVE",
"98 502 OFFCURVE",
"67 502 CURVE SMOOTH",
"49 502 OFFCURVE",
"30 498 OFFCURVE",
"30 475 CURVE SMOOTH",
"30 469 OFFCURVE",
"31 461 OFFCURVE",
"35 452 CURVE",
"163 25 LINE",
"170 7 OFFCURVE",
"192 0 OFFCURVE",
"216 0 CURVE SMOOTH",
"243 0 OFFCURVE",
"268 7 OFFCURVE",
"274 25 CURVE SMOOTH",
"380 337 LINE",
"386 337 LINE",
"472 25 LINE",
"479 7 OFFCURVE",
"501 0 OFFCURVE",
"525 0 CURVE SMOOTH",
"552 0 OFFCURVE",
"577 7 OFFCURVE",
"583 25 CURVE SMOOTH",
"733 452 LINE",
"737 461 OFFCURVE",
"738 467 OFFCURVE",
"738 479 CURVE SMOOTH",
"738 496 OFFCURVE",
"723 502 OFFCURVE",
"706 502 CURVE SMOOTH",
"670 502 OFFCURVE",
"658 470 OFFCURVE",
"649 438 CURVE SMOOTH",
"638 399 OFFCURVE",
"619 306 OFFCURVE",
"594 233 CURVE SMOOTH",
"548 98 LINE",
"543 98 LINE",
"462 408 LINE SMOOTH",
"444 476 OFFCURVE",
"437 502 OFFCURVE",
"400 502 CURVE SMOOTH"
);
}
);
width = 768;
}
);
unicode = 0077;
},
{
glyphname = x;
lastChange = "2016-08-03 16:06:21 +0000";
layers = (
{
layerId = UUID0;
paths = (
{
closed = 1;
nodes = (
"48 50 LINE",
"41 41 OFFCURVE",
"35 30 OFFCURVE",
"35 20 CURVE SMOOTH",
"35 7 OFFCURVE",
"46 0 OFFCURVE",
"62 0 CURVE SMOOTH",
"91 0 OFFCURVE",
"106 7 OFFCURVE",
"120 29 CURVE SMOOTH",
"233 199 LINE",
"235 199 LINE",
"332 48 LINE SMOOTH",
"349 21 OFFCURVE",
"363 0 OFFCURVE",
"411 0 CURVE SMOOTH",
"439 0 OFFCURVE",
"448 12 OFFCURVE",
"448 26 CURVE SMOOTH",
"448 33 OFFCURVE",
"444 42 OFFCURVE",
"436 55 CURVE SMOOTH",
"296 267 LINE",
"429 452 LINE SMOOTH",
"435 462 OFFCURVE",
"440 473 OFFCURVE",
"440 483 CURVE SMOOTH",
"440 496 OFFCURVE",
"429 502 OFFCURVE",
"415 502 CURVE SMOOTH",
"388 502 OFFCURVE",
"374 495 OFFCURVE",
"358 469 CURVE SMOOTH",
"258 307 LINE",
"254 307 LINE",
"167 452 LINE SMOOTH",
"148 485 OFFCURVE",
"127 502 OFFCURVE",
"85 502 CURVE SMOOTH",
"71 502 OFFCURVE",
"53 496 OFFCURVE",
"53 478 CURVE SMOOTH",
"53 469 OFFCURVE",
"56 456 OFFCURVE",
"67 439 CURVE SMOOTH",
"194 244 LINE"
);
}
);
width = 483;
}
);
unicode = 0078;
},
{
glyphname = y;
lastChange = "2016-08-03 16:06:21 +0000";
layers = (
{
layerId = UUID0;
paths = (
{
closed = 1;
nodes = (
"477 452 LINE",
"480 461 OFFCURVE",
"482 467 OFFCURVE",
"482 479 CURVE SMOOTH",
"482 496 OFFCURVE",
"467 502 OFFCURVE",
"450 502 CURVE SMOOTH",
"414 502 OFFCURVE",
"401 471 OFFCURVE",
"392 439 CURVE SMOOTH",
"378 389 OFFCURVE",
"369 353 OFFCURVE",
"345 283 CURVE SMOOTH",
"285 108 LINE",
"280 108 LINE",
"149 435 LINE SMOOTH",
"130 483 OFFCURVE",
"98 502 OFFCURVE",
"67 502 CURVE SMOOTH",
"49 502 OFFCURVE",
"30 498 OFFCURVE",
"30 475 CURVE SMOOTH",
"30 469 OFFCURVE",
"31 461 OFFCURVE",
"35 452 CURVE SMOOTH",
"233 -9 LINE",
"221 -47 OFFCURVE",
"209 -77 OFFCURVE",
"191 -102 CURVE SMOOTH",
"172 -128 OFFCURVE",
"142 -139 OFFCURVE",
"105 -139 CURVE SMOOTH",
"73 -139 OFFCURVE",
"51 -151 OFFCURVE",
"51 -184 CURVE SMOOTH",
"51 -204 OFFCURVE",
"72 -220 OFFCURVE",
"99 -220 CURVE SMOOTH",
"201 -220 OFFCURVE",
"265 -92 OFFCURVE",
"304 8 CURVE SMOOTH"
);
}
);
width = 512;
}
);
unicode = 0079;
},
{
glyphname = z;
lastChange = "2016-08-03 16:06:21 +0000";
layers = (
{
layerId = UUID0;
paths = (
{
closed = 1;
nodes = (
"83 502 LINE",
"64 502 OFFCURVE",
"51 494 OFFCURVE",
"51 471 CURVE SMOOTH",
"51 409 LINE SMOOTH",
"51 382 OFFCURVE",
"59 367 OFFCURVE",
"88 367 CURVE SMOOTH",
"129 367 OFFCURVE",
"143 377 OFFCURVE",
"143 431 CURVE SMOOTH",
"143 455 LINE",
"331 455 LINE",
"45 73 LINE SMOOTH",
"37 62 OFFCURVE",
"30 46 OFFCURVE",
"30 29 CURVE SMOOTH",
"30 16 OFFCURVE",
"38 0 OFFCURVE",
"68 0 CURVE SMOOTH",
"405 0 LINE SMOOTH",
"424 0 OFFCURVE",
"437 8 OFFCURVE",
"437 31 CURVE SMOOTH",
"437 93 LINE SMOOTH",
"437 120 OFFCURVE",
"429 135 OFFCURVE",
"400 135 CURVE SMOOTH",
"359 135 OFFCURVE",
"345 125 OFFCURVE",
"345 71 CURVE SMOOTH",
"345 47 LINE",
"141 47 LINE",
"429 429 LINE SMOOTH",
"437 439 OFFCURVE",
"444 456 OFFCURVE",
"444 473 CURVE SMOOTH",
"444 486 OFFCURVE",
"435 502 OFFCURVE",
"407 502 CURVE SMOOTH"
);
}
);
width = 474;
}
);
unicode = 007A;
},
{
glyphname = fi;
lastChange = "2016-08-03 16:06:21 +0000";
layers = (
{
layerId = UUID0;
paths = (
{
closed = 1;
nodes = (
"24 460 OFFCURVE",
"33 454 OFFCURVE",
"56 454 CURVE SMOOTH",
"111 454 LINE",
"111 47 LINE SMOOTH",
"111 17 OFFCURVE",
"119 0 OFFCURVE",
"151 0 CURVE SMOOTH",
"195 0 OFFCURVE",
"215 8 OFFCURVE",
"215 68 CURVE SMOOTH",
"215 454 LINE",
"396 454 LINE",
"396 47 LINE SMOOTH",
"396 17 OFFCURVE",
"404 0 OFFCURVE",
"436 0 CURVE SMOOTH",
"480 0 OFFCURVE",
"500 8 OFFCURVE",
"500 68 CURVE SMOOTH",
"500 435 LINE SMOOTH",
"500 480 OFFCURVE",
"480 502 OFFCURVE",
"436 502 CURVE SMOOTH",
"215 502 LINE",
"215 578 LINE SMOOTH",
"215 694 OFFCURVE",
"277 720 OFFCURVE",
"318 720 CURVE SMOOTH",
"343 720 OFFCURVE",
"371 706 OFFCURVE",
"381 694 CURVE SMOOTH",
"391 682 OFFCURVE",
"406 665 OFFCURVE",
"426 665 CURVE SMOOTH",
"452 665 OFFCURVE",
"466 679 OFFCURVE",
"466 700 CURVE SMOOTH",
"466 727 OFFCURVE",
"414 760 OFFCURVE",
"343 760 CURVE SMOOTH",
"293 760 OFFCURVE",
"234 744 OFFCURVE",
"196 713 CURVE SMOOTH",
"155 679 OFFCURVE",
"117 628 OFFCURVE",
"112 502 CURVE",
"55 502 LINE",
"41 501 OFFCURVE",
"24 498 OFFCURVE",
"24 475 CURVE SMOOTH"
);
}
);
width = 585;
}
);
unicode = FB01;
},
{
glyphname = fl;
lastChange = "2016-08-03 16:06:21 +0000";
layers = (
{
layerId = UUID0;
paths = (
{
closed = 1;
nodes = (
"500 662 LINE",
"497 732 OFFCURVE",
"425 760 OFFCURVE",
"343 760 CURVE SMOOTH",
"293 760 OFFCURVE",
"234 744 OFFCURVE",
"196 713 CURVE SMOOTH",
"155 679 OFFCURVE",
"117 628 OFFCURVE",
"112 502 CURVE",
"55 502 LINE",
"41 501 OFFCURVE",
"24 498 OFFCURVE",
"24 475 CURVE SMOOTH",
"24 460 OFFCURVE",
"33 454 OFFCURVE",
"56 454 CURVE SMOOTH",
"111 454 LINE",
"111 47 LINE SMOOTH",
"111 17 OFFCURVE",
"119 0 OFFCURVE",
"151 0 CURVE SMOOTH",
"195 0 OFFCURVE",
"215 8 OFFCURVE",
"215 68 CURVE SMOOTH",
"215 454 LINE",
"317 454 LINE SMOOTH",
"339 454 OFFCURVE",
"352 467 OFFCURVE",
"352 480 CURVE SMOOTH",
"352 491 OFFCURVE",
"342 502 OFFCURVE",
"317 502 CURVE SMOOTH",
"215 502 LINE",
"215 578 LINE SMOOTH",
"215 694 OFFCURVE",
"277 720 OFFCURVE",
"318 720 CURVE SMOOTH",
"352 720 OFFCURVE",
"374 711 OFFCURVE",
"396 689 CURVE",
"396 47 LINE SMOOTH",
"396 17 OFFCURVE",
"404 0 OFFCURVE",
"436 0 CURVE SMOOTH",
"480 0 OFFCURVE",
"500 8 OFFCURVE",
"500 68 CURVE SMOOTH"
);
}
);
width = 585;
}
);
unicode = FB02;
},
{
glyphname = ordfeminine;
lastChange = "2016-08-03 16:06:21 +0000";
layers = (
{
layerId = UUID0;
paths = (
{
closed = 1;
nodes = (
"351 348 OFFCURVE",
"357 361 OFFCURVE",
"357 385 CURVE",
"357 577 LINE",
"357 663 OFFCURVE",
"328 709 OFFCURVE",
"217 709 CURVE SMOOTH",
"185 709 OFFCURVE",
"140 703 OFFCURVE",
"108 690 CURVE SMOOTH",
"83 679 OFFCURVE",
"64 667 OFFCURVE",
"64 646 CURVE SMOOTH",
"64 632 OFFCURVE",
"73 620 OFFCURVE",
"97 620 CURVE SMOOTH",
"115 620 OFFCURVE",
"132 630 OFFCURVE",
"146 645 CURVE",
"159 657 OFFCURVE",
"181 674 OFFCURVE",
"203 674 CURVE SMOOTH",
"247 674 OFFCURVE",
"269 652 OFFCURVE",
"269 589 CURVE",
"269 572 LINE",
"222 572 LINE",
"72 572 OFFCURVE",
"35 511 OFFCURVE",
"35 448 CURVE SMOOTH",
"35 390 OFFCURVE",
"72 348 OFFCURVE",
"151 348 CURVE SMOOTH",
"202 348 OFFCURVE",
"241 366 OFFCURVE",
"272 403 CURVE",
"276 367 OFFCURVE",
"289 348 OFFCURVE",
"321 348 CURVE SMOOTH"
);
},
{
closed = 1;
nodes = (
"269 536 LINE",
"269 481 LINE",
"269 426 OFFCURVE",
"210 400 OFFCURVE",
"179 400 CURVE SMOOTH",
"147 400 OFFCURVE",
"123 414 OFFCURVE",
"123 456 CURVE SMOOTH",
"123 501 OFFCURVE",
"148 536 OFFCURVE",
"234 536 CURVE"
);
}
);
width = 412;
}
);
unicode = 00AA;
},
{
glyphname = ordmasculine;
lastChange = "2016-08-03 16:06:21 +0000";
layers = (
{
layerId = UUID0;
paths = (
{
closed = 1;
nodes = (
"312 348 OFFCURVE",
"377 406 OFFCURVE",
"377 528 CURVE SMOOTH",
"377 655 OFFCURVE",
"308 709 OFFCURVE",
"206 709 CURVE SMOOTH",
"104 709 OFFCURVE",
"35 655 OFFCURVE",
"35 528 CURVE SMOOTH",
"35 406 OFFCURVE",
"100 348 OFFCURVE",
"206 348 CURVE SMOOTH"
);
},
{
closed = 1;
nodes = (
"161 383 OFFCURVE",
"128 410 OFFCURVE",
"128 528 CURVE SMOOTH",
"128 647 OFFCURVE",
"163 674 OFFCURVE",
"206 674 CURVE SMOOTH",
"250 674 OFFCURVE",
"285 647 OFFCURVE",
"285 528 CURVE SMOOTH",
"285 410 OFFCURVE",
"252 383 OFFCURVE",
"206 383 CURVE SMOOTH"
);
}
);
width = 412;
}
);
unicode = 00BA;
},
{
glyphname = "A-cy";
lastChange = "2016-08-03 16:49:19 +0000";
layers = (
{
layerId = UUID0;
paths = (
{
closed = 1;
nodes = (
"181 190 LINE",
"462 190 LINE",
"515 53 LINE",
"532 6 OFFCURVE",
"571 0 OFFCURVE",
"590 0 CURVE SMOOTH",
"619 0 OFFCURVE",
"629 16 OFFCURVE",
"629 33 CURVE SMOOTH",
"629 38 OFFCURVE",
"628 43 OFFCURVE",
"627 48 CURVE",
"398 682 LINE",
"392 700 OFFCURVE",
"364 709 OFFCURVE",
"337 709 CURVE SMOOTH",
"312 709 OFFCURVE",
"288 701 OFFCURVE",
"282 685 CURVE",
"47 52 LINE",
"44 44 OFFCURVE",
"42 35 OFFCURVE",
"42 27 CURVE SMOOTH",
"42 12 OFFCURVE",
"50 0 OFFCURVE",
"69 0 CURVE SMOOTH",
"88 0 OFFCURVE",
"112 6 OFFCURVE",
"130 53 CURVE"
);
},
{
closed = 1;
nodes = (
"447 242 LINE",
"197 242 LINE",
"320 591 LINE",
"326 591 LINE"
);
}
);
width = 675;
}
);
unicode = 0410;
},
{
glyphname = "Be-cy";
lastChange = "2016-08-03 16:49:19 +0000";
layers = (
{
layerId = UUID0;
paths = (
{
closed = 1;
nodes = (
"540 535 OFFCURVE",
"554 550 OFFCURVE",
"554 585 CURVE SMOOTH",
"554 672 LINE SMOOTH",
"554 702 OFFCURVE",
"533 709 OFFCURVE",
"494 709 CURVE SMOOTH",
"146 709 LINE SMOOTH",
"115 709 OFFCURVE",
"100 694 OFFCURVE",
"100 659 CURVE SMOOTH",
"100 50 LINE SMOOTH",
"100 15 OFFCURVE",
"115 0 OFFCURVE",
"146 0 CURVE SMOOTH",
"351 0 LINE SMOOTH",
"438 0 OFFCURVE",
"600 39 OFFCURVE",
"600 211 CURVE SMOOTH",
"600 363 OFFCURVE",
"502 416 OFFCURVE",
"353 416 CURVE SMOOTH",
"208 416 LINE",
"208 656 LINE",
"453 656 LINE",
"453 600 LINE SMOOTH",
"453 552 OFFCURVE",
"473 535 OFFCURVE",
"511 535 CURVE SMOOTH"
);
},
{
closed = 1;
nodes = (
"333 363 LINE",
"425 363 OFFCURVE",
"487 323 OFFCURVE",
"487 211 CURVE SMOOTH",
"487 91 OFFCURVE",
"404 53 OFFCURVE",
"338 53 CURVE SMOOTH",
"208 53 LINE",
"208 363 LINE"
);
}
);
width = 646;
}
);
unicode = 0411;
},
{
glyphname = "Ve-cy";
lastChange = "2016-08-03 16:49:19 +0000";
layers = (
{
layerId = UUID0;
paths = (
{
closed = 1;
nodes = (
"100 50 LINE SMOOTH",
"100 15 OFFCURVE",
"115 0 OFFCURVE",
"146 0 CURVE SMOOTH",
"356 0 LINE SMOOTH",
"449 0 OFFCURVE",
"610 30 OFFCURVE",
"610 212 CURVE SMOOTH",
"610 289 OFFCURVE",
"566 358 OFFCURVE",
"460 376 CURVE",
"460 381 LINE",
"532 399 OFFCURVE",
"573 468 OFFCURVE",
"573 531 CURVE SMOOTH",
"573 651 OFFCURVE",
"496 709 OFFCURVE",
"351 709 CURVE SMOOTH",
"146 709 LINE SMOOTH",
"115 709 OFFCURVE",
"100 694 OFFCURVE",
"100 659 CURVE"
);
},
{
closed = 1;
nodes = (
"332 345 LINE",
"403 345 OFFCURVE",
"497 309 OFFCURVE",
"497 202 CURVE SMOOTH",
"497 82 OFFCURVE",
"403 53 OFFCURVE",
"342 53 CURVE SMOOTH",
"208 53 LINE",
"208 345 LINE"
);
},
{
closed = 1;
nodes = (
"315 656 LINE",
"373 656 OFFCURVE",
"460 630 OFFCURVE",
"460 534 CURVE SMOOTH",
"460 432 OFFCURVE",
"380 398 OFFCURVE",
"323 398 CURVE SMOOTH",
"208 398 LINE",
"208 656 LINE"
);
}
);
width = 670;
}
);
unicode = 0412;
},
{
glyphname = "Ge-cy";
lastChange = "2016-08-03 16:49:19 +0000";
layers = (
{
layerId = UUID0;
paths = (
{
closed = 1;
nodes = (
"208 656 LINE",
"435 656 LINE",
"435 580 LINE SMOOTH",
"435 532 OFFCURVE",
"455 515 OFFCURVE",
"493 515 CURVE SMOOTH",
"522 515 OFFCURVE",
"536 530 OFFCURVE",
"536 565 CURVE SMOOTH",
"536 672 LINE SMOOTH",
"536 702 OFFCURVE",
"515 709 OFFCURVE",
"476 709 CURVE SMOOTH",
"146 709 LINE SMOOTH",
"115 709 OFFCURVE",
"100 694 OFFCURVE",
"100 659 CURVE SMOOTH",
"100 50 LINE SMOOTH",
"100 15 OFFCURVE",
"115 0 OFFCURVE",
"146 0 CURVE SMOOTH",
"187 0 OFFCURVE",
"208 17 OFFCURVE",
"208 65 CURVE SMOOTH"
);
}
);
width = 551;
}
);
unicode = 0413;
},
{
glyphname = "Gheupturn-cy";
lastChange = "2016-08-03 16:49:19 +0000";
layers = (
{
layerId = UUID0;
paths = (
{
closed = 1;
nodes = (
"208 656 LINE",
"457 656 LINE SMOOTH",
"496 656 OFFCURVE",
"517 663 OFFCURVE",
"517 693 CURVE SMOOTH",
"517 800 LINE SMOOTH",
"517 835 OFFCURVE",
"503 850 OFFCURVE",
"474 850 CURVE SMOOTH",
"436 850 OFFCURVE",
"416 833 OFFCURVE",
"416 785 CURVE SMOOTH",
"416 709 LINE",
"146 709 LINE SMOOTH",
"115 709 OFFCURVE",
"100 694 OFFCURVE",
"100 659 CURVE SMOOTH",
"100 50 LINE SMOOTH",
"100 15 OFFCURVE",
"115 0 OFFCURVE",
"146 0 CURVE SMOOTH",
"187 0 OFFCURVE",
"208 17 OFFCURVE",
"208 65 CURVE SMOOTH"
);
}
);
width = 517;
}
);
unicode = 0490;
},
{
glyphname = "De-cy";
lastChange = "2016-08-03 16:49:19 +0000";
layers = (
{
layerId = UUID0;
paths = (
{
closed = 1;
nodes = (
"580 0 LINE",
"580 -102 LINE SMOOTH",
"580 -150 OFFCURVE",
"600 -167 OFFCURVE",
"638 -167 CURVE SMOOTH",
"667 -167 OFFCURVE",
"681 -152 OFFCURVE",
"681 -117 CURVE SMOOTH",
"681 16 LINE SMOOTH",
"681 46 OFFCURVE",
"660 53 OFFCURVE",
"621 53 CURVE SMOOTH",
"591 53 LINE",
"591 659 LINE SMOOTH",
"591 694 OFFCURVE",
"576 709 OFFCURVE",
"545 709 CURVE SMOOTH",
"213 709 LINE SMOOTH",
"182 709 OFFCURVE",
"169 696 OFFCURVE",
"169 659 CURVE SMOOTH",
"169 552 LINE SMOOTH",
"169 293 OFFCURVE",
"151 136 OFFCURVE",
"67 53 CURVE",
"57 53 LINE SMOOTH",
"20 52 OFFCURVE",
"0 45 OFFCURVE",
"0 16 CURVE SMOOTH",
"0 -117 LINE SMOOTH",
"0 -152 OFFCURVE",
"14 -167 OFFCURVE",
"43 -167 CURVE SMOOTH",
"81 -167 OFFCURVE",
"101 -150 OFFCURVE",
"101 -102 CURVE SMOOTH",
"101 0 LINE"
);
},
{
closed = 1;
nodes = (
"248 656 LINE",
"483 656 LINE",
"483 53 LINE",
"160 53 LINE",
"235 173 OFFCURVE",
"248 343 OFFCURVE",
"248 555 CURVE"
);
}
);
width = 707;
}
);
unicode = 0414;
},
{
glyphname = "Ie-cy";
lastChange = "2016-08-03 16:49:19 +0000";
layers = (
{
layerId = UUID0;
paths = (
{
closed = 1;
nodes = (
"532 535 OFFCURVE",
"546 550 OFFCURVE",
"546 585 CURVE",
"546 672 LINE",
"546 702 OFFCURVE",
"525 709 OFFCURVE",
"486 709 CURVE",
"146 709 LINE",
"115 709 OFFCURVE",
"100 694 OFFCURVE",
"100 659 CURVE",
"100 50 LINE",
"100 15 OFFCURVE",
"115 0 OFFCURVE",
"146 0 CURVE",
"501 0 LINE",
"540 0 OFFCURVE",
"561 7 OFFCURVE",
"561 37 CURVE",
"561 124 LINE",
"561 159 OFFCURVE",
"547 174 OFFCURVE",
"518 174 CURVE SMOOTH",
"480 174 OFFCURVE",
"460 157 OFFCURVE",
"460 109 CURVE",
"460 53 LINE",
"208 53 LINE",
"208 339 LINE",
"418 339 LINE SMOOTH",
"432 339 OFFCURVE",
"446 353 OFFCURVE",
"446 366 CURVE SMOOTH",
"446 380 OFFCURVE",
"437 394 OFFCURVE",
"418 394 CURVE SMOOTH",
"208 394 LINE",
"208 656 LINE",
"445 656 LINE",
"445 600 LINE",
"445 552 OFFCURVE",
"465 535 OFFCURVE",
"503 535 CURVE SMOOTH"
);
}
);
width = 601;
}
);
unicode = 0415;
},
{
glyphname = "Io-cy";
lastChange = "2016-08-03 16:49:19 +0000";
layers = (
{
layerId = UUID0;
paths = (
{
closed = 1;
nodes = (
"532 535 OFFCURVE",
"546 550 OFFCURVE",
"546 585 CURVE",
"546 672 LINE",
"546 702 OFFCURVE",
"525 709 OFFCURVE",
"486 709 CURVE",
"146 709 LINE",
"115 709 OFFCURVE",
"100 694 OFFCURVE",
"100 659 CURVE",
"100 50 LINE",
"100 15 OFFCURVE",
"115 0 OFFCURVE",
"146 0 CURVE",
"501 0 LINE",
"540 0 OFFCURVE",
"561 7 OFFCURVE",
"561 37 CURVE",
"561 124 LINE",
"561 159 OFFCURVE",
"547 174 OFFCURVE",
"518 174 CURVE SMOOTH",
"480 174 OFFCURVE",
"460 157 OFFCURVE",
"460 109 CURVE",
"460 53 LINE",
"208 53 LINE",
"208 339 LINE",
"418 339 LINE SMOOTH",
"432 339 OFFCURVE",
"446 353 OFFCURVE",
"446 366 CURVE SMOOTH",
"446 380 OFFCURVE",
"437 394 OFFCURVE",
"418 394 CURVE SMOOTH",
"208 394 LINE",
"208 656 LINE",
"445 656 LINE",
"445 600 LINE",
"445 552 OFFCURVE",
"465 535 OFFCURVE",
"503 535 CURVE SMOOTH"
);
},
{
closed = 1;
nodes = (
"353 816 OFFCURVE",
"385 783 OFFCURVE",
"421 783 CURVE SMOOTH",
"457 783 OFFCURVE",
"490 816 OFFCURVE",
"490 851 CURVE SMOOTH",
"490 889 OFFCURVE",
"457 920 OFFCURVE",
"421 920 CURVE SMOOTH",
"385 920 OFFCURVE",
"353 889 OFFCURVE",
"353 851 CURVE SMOOTH"
);
},
{
closed = 1;
nodes = (
"146 817 OFFCURVE",
"179 784 OFFCURVE",
"213 784 CURVE SMOOTH",
"251 784 OFFCURVE",
"283 817 OFFCURVE",
"283 852 CURVE SMOOTH",
"283 889 OFFCURVE",
"251 921 OFFCURVE",
"213 921 CURVE SMOOTH",
"179 921 OFFCURVE",
"146 889 OFFCURVE",
"146 852 CURVE SMOOTH"
);
}
);
width = 601;
}
);
unicode = 0401;
},
{
glyphname = "Zhe-cy";
lastChange = "2016-08-03 16:49:19 +0000";
layers = (
{
layerId = UUID0;
paths = (
{
closed = 1;
nodes = (
"411 389 LINE",
"394 389 LINE",
"138 689 LINE SMOOTH",
"125 705 OFFCURVE",
"112 709 OFFCURVE",
"99 709 CURVE SMOOTH",
"78 709 OFFCURVE",
"64 692 OFFCURVE",
"64 677 CURVE SMOOTH",
"64 672 OFFCURVE",
"66 668 OFFCURVE",
"69 665 CURVE SMOOTH",
"317 383 LINE",
"61 66 LINE SMOOTH",
"53 57 OFFCURVE",
"47 47 OFFCURVE",
"47 37 CURVE SMOOTH",
"47 18 OFFCURVE",
"64 0 OFFCURVE",
"88 0 CURVE SMOOTH",
"115 0 OFFCURVE",
"143 5 OFFCURVE",
"176 49 CURVE SMOOTH",
"394 335 LINE",
"411 335 LINE",
"411 50 LINE SMOOTH",
"411 15 OFFCURVE",
"426 0 OFFCURVE",
"462 0 CURVE SMOOTH",
"496 0 OFFCURVE",
"517 12 OFFCURVE",
"517 60 CURVE SMOOTH",
"517 335 LINE",
"534 335 LINE",
"752 49 LINE SMOOTH",
"785 5 OFFCURVE",
"813 0 OFFCURVE",
"840 0 CURVE SMOOTH",
"864 0 OFFCURVE",
"881 18 OFFCURVE",
"881 37 CURVE SMOOTH",
"881 47 OFFCURVE",
"875 57 OFFCURVE",
"867 66 CURVE SMOOTH",
"611 383 LINE",
"859 665 LINE SMOOTH",
"862 668 OFFCURVE",
"864 672 OFFCURVE",
"864 677 CURVE SMOOTH",
"864 692 OFFCURVE",
"850 709 OFFCURVE",
"829 709 CURVE SMOOTH",
"816 709 OFFCURVE",
"803 705 OFFCURVE",
"790 689 CURVE SMOOTH",
"534 389 LINE",
"517 389 LINE",
"517 650 LINE SMOOTH",
"517 701 OFFCURVE",
"494 709 OFFCURVE",
"460 709 CURVE SMOOTH",
"424 709 OFFCURVE",
"411 696 OFFCURVE",
"411 659 CURVE SMOOTH"
);
}
);
width = 886;
}
);
unicode = 0416;
},
{
glyphname = "Ze-cy";
lastChange = "2016-08-03 16:49:19 +0000";
layers = (
{
layerId = UUID0;
paths = (
{
closed = 1;
nodes = (
"141 125 LINE SMOOTH",
"141 171 OFFCURVE",
"121 188 OFFCURVE",
"83 188 CURVE SMOOTH",
"54 188 OFFCURVE",
"40 173 OFFCURVE",
"40 140 CURVE SMOOTH",
"40 80 LINE SMOOTH",
"40 51 OFFCURVE",
"50 44 OFFCURVE",
"79 32 CURVE SMOOTH",
"127 13 OFFCURVE",
"196 0 OFFCURVE",
"264 0 CURVE SMOOTH",
"463 0 OFFCURVE",
"536 111 OFFCURVE",
"536 207 CURVE SMOOTH",
"536 311 OFFCURVE",
"471 354 OFFCURVE",
"389 367 CURVE",
"389 373 LINE",
"452 393 OFFCURVE",
"513 437 OFFCURVE",
"513 533 CURVE SMOOTH",
"513 626 OFFCURVE",
"452 709 OFFCURVE",
"281 709 CURVE SMOOTH",
"219 709 OFFCURVE",
"154 700 OFFCURVE",
"95 682 CURVE SMOOTH",
"64 672 OFFCURVE",
"54 664 OFFCURVE",
"54 633 CURVE SMOOTH",
"54 576 LINE SMOOTH",
"54 541 OFFCURVE",
"68 526 OFFCURVE",
"97 526 CURVE SMOOTH",
"135 526 OFFCURVE",
"155 543 OFFCURVE",
"155 591 CURVE SMOOTH",
"155 647 LINE",
"186 654 OFFCURVE",
"223 658 OFFCURVE",
"261 658 CURVE SMOOTH",
"350 658 OFFCURVE",
"403 606 OFFCURVE",
"403 533 CURVE SMOOTH",
"403 462 OFFCURVE",
"375 394 OFFCURVE",
"265 394 CURVE SMOOTH",
"171 394 LINE SMOOTH",
"161 394 OFFCURVE",
"156 380 OFFCURVE",
"156 366 CURVE SMOOTH",
"156 352 OFFCURVE",
"161 339 OFFCURVE",
"171 339 CURVE SMOOTH",
"264 339 LINE SMOOTH",
"394 339 OFFCURVE",
"423 275 OFFCURVE",
"423 207 CURVE SMOOTH",
"423 135 OFFCURVE",
"377 51 OFFCURVE",
"259 51 CURVE SMOOTH",
"209 51 OFFCURVE",
"183 56 OFFCURVE",
"141 71 CURVE"
);
}
);
width = 601;
}
);
unicode = 0417;
},
{
glyphname = "Ii-cy";
lastChange = "2016-08-03 16:49:19 +0000";
layers = (
{
layerId = UUID0;
paths = (
{
closed = 1;
nodes = (
"553 709 OFFCURVE",
"543 692 OFFCURVE",
"532 674 CURVE SMOOTH",
"208 139 LINE",
"208 632 LINE",
"208 683 OFFCURVE",
"185 709 OFFCURVE",
"144 709 CURVE SMOOTH",
"113 709 OFFCURVE",
"100 696 OFFCURVE",
"100 659 CURVE",
"100 50 LINE",
"100 15 OFFCURVE",
"115 0 OFFCURVE",
"146 0 CURVE SMOOTH",
"187 0 OFFCURVE",
"199 19 OFFCURVE",
"208 35 CURVE SMOOTH",
"532 570 LINE",
"532 77 LINE",
"532 26 OFFCURVE",
"555 0 OFFCURVE",
"596 0 CURVE SMOOTH",
"627 0 OFFCURVE",
"640 13 OFFCURVE",
"640 50 CURVE",
"640 659 LINE",
"640 694 OFFCURVE",
"625 709 OFFCURVE",
"594 709 CURVE SMOOTH"
);
}
);
width = 740;
}
);
unicode = 0418;
},
{
glyphname = "Iishort-cy";
lastChange = "2016-08-03 16:49:19 +0000";
layers = (
{
layerId = UUID0;
paths = (
{
closed = 1;
nodes = (
"553 709 OFFCURVE",
"543 692 OFFCURVE",
"532 674 CURVE SMOOTH",
"208 139 LINE",
"208 632 LINE SMOOTH",
"208 683 OFFCURVE",
"185 709 OFFCURVE",
"144 709 CURVE SMOOTH",
"113 709 OFFCURVE",
"100 696 OFFCURVE",
"100 659 CURVE SMOOTH",
"100 50 LINE SMOOTH",
"100 15 OFFCURVE",
"115 0 OFFCURVE",
"146 0 CURVE SMOOTH",
"187 0 OFFCURVE",
"198 19 OFFCURVE",
"208 35 CURVE SMOOTH",
"532 570 LINE",
"532 77 LINE SMOOTH",
"532 26 OFFCURVE",
"555 0 OFFCURVE",
"596 0 CURVE SMOOTH",
"627 0 OFFCURVE",
"640 13 OFFCURVE",
"640 50 CURVE SMOOTH",
"640 659 LINE SMOOTH",
"640 694 OFFCURVE",
"625 709 OFFCURVE",
"594 709 CURVE SMOOTH"
);
},
{
closed = 1;
nodes = (
"443 837 OFFCURVE",
"424 805 OFFCURVE",
"370 805 CURVE SMOOTH",
"316 805 OFFCURVE",
"297 837 OFFCURVE",
"290 875 CURVE SMOOTH",
"283 913 OFFCURVE",
"257 922 OFFCURVE",
"228 922 CURVE SMOOTH",
"202 922 OFFCURVE",
"178 912 OFFCURVE",
"178 885 CURVE",
"183 806 OFFCURVE",
"252 764 OFFCURVE",
"370 764 CURVE SMOOTH",
"487 764 OFFCURVE",
"562 807 OFFCURVE",
"562 888 CURVE SMOOTH",
"562 913 OFFCURVE",
"535 922 OFFCURVE",
"512 922 CURVE SMOOTH",
"483 922 OFFCURVE",
"457 913 OFFCURVE",
"450 875 CURVE SMOOTH"
);
}
);
width = 740;
}
);
unicode = 0419;
},
{
glyphname = "Ka-cy";
lastChange = "2016-08-03 16:49:19 +0000";
layers = (
{
layerId = UUID0;
paths = (
{
closed = 1;
nodes = (
"208 632 LINE",
"208 683 OFFCURVE",
"185 709 OFFCURVE",
"144 709 CURVE SMOOTH",
"113 709 OFFCURVE",
"100 696 OFFCURVE",
"100 659 CURVE SMOOTH",
"100 50 LINE SMOOTH",
"100 15 OFFCURVE",
"115 0 OFFCURVE",
"146 0 CURVE SMOOTH",
"187 0 OFFCURVE",
"208 17 OFFCURVE",
"208 65 CURVE SMOOTH",
"208 334 LINE",
"229 334 LINE",
"480 49 LINE SMOOTH",
"517 8 OFFCURVE",
"543 0 OFFCURVE",
"570 0 CURVE SMOOTH",
"595 0 OFFCURVE",
"611 18 OFFCURVE",
"611 37 CURVE SMOOTH",
"611 47 OFFCURVE",
"605 57 OFFCURVE",
"597 66 CURVE SMOOTH",
"309 383 LINE",
"594 665 LINE SMOOTH",
"597 668 OFFCURVE",
"599 672 OFFCURVE",
"599 677 CURVE SMOOTH",
"599 692 OFFCURVE",
"584 709 OFFCURVE",
"563 709 CURVE SMOOTH",
"550 709 OFFCURVE",
"537 704 OFFCURVE",
"523 689 CURVE SMOOTH",
"229 389 LINE",
"208 389 LINE"
);
}
);
width = 606;
}
);
unicode = 041A;
},
{
glyphname = "El-cy";
lastChange = "2016-08-03 16:49:19 +0000";
layers = (
{
layerId = UUID0;
paths = (
{
closed = 1;
nodes = (
"242 709 LINE SMOOTH",
"211 709 OFFCURVE",
"198 696 OFFCURVE",
"198 659 CURVE SMOOTH",
"198 552 LINE SMOOTH",
"198 403 OFFCURVE",
"198 292 OFFCURVE",
"169 207 CURVE SMOOTH",
"151 154 OFFCURVE",
"121 116 OFFCURVE",
"74 100 CURVE SMOOTH",
"28 85 OFFCURVE",
"20 78 OFFCURVE",
"20 54 CURVE SMOOTH",
"20 27 OFFCURVE",
"38 0 OFFCURVE",
"63 0 CURVE SMOOTH",
"150 0 OFFCURVE",
"215 106 OFFCURVE",
"237 172 CURVE SMOOTH",
"268 267 OFFCURVE",
"277 388 OFFCURVE",
"277 555 CURVE SMOOTH",
"277 656 LINE",
"512 656 LINE",
"512 77 LINE SMOOTH",
"512 26 OFFCURVE",
"535 0 OFFCURVE",
"576 0 CURVE SMOOTH",
"607 0 OFFCURVE",
"620 13 OFFCURVE",
"620 50 CURVE SMOOTH",
"620 659 LINE SMOOTH",
"620 694 OFFCURVE",
"605 709 OFFCURVE",
"574 709 CURVE"
);
}
);
width = 720;
}
);
unicode = 041B;
},
{
glyphname = "En-cy";
lastChange = "2016-08-03 16:49:19 +0000";
layers = (
{
layerId = UUID0;
paths = (
{
closed = 1;
nodes = (
"555 709 OFFCURVE",
"534 692 OFFCURVE",
"534 644 CURVE",
"534 394 LINE",
"208 394 LINE",
"208 632 LINE",
"208 683 OFFCURVE",
"185 709 OFFCURVE",
"144 709 CURVE SMOOTH",
"113 709 OFFCURVE",
"100 696 OFFCURVE",
"100 659 CURVE",
"100 50 LINE",
"100 15 OFFCURVE",
"115 0 OFFCURVE",
"146 0 CURVE SMOOTH",
"187 0 OFFCURVE",
"208 17 OFFCURVE",
"208 65 CURVE",
"208 339 LINE",
"534 339 LINE",
"534 77 LINE",
"534 26 OFFCURVE",
"557 0 OFFCURVE",
"598 0 CURVE SMOOTH",
"629 0 OFFCURVE",
"642 13 OFFCURVE",
"642 50 CURVE",
"642 659 LINE",
"642 694 OFFCURVE",
"627 709 OFFCURVE",
"596 709 CURVE SMOOTH"
);
}
);
width = 742;
}
);
unicode = 041D;
},
{
glyphname = "O-cy";
lastChange = "2016-08-03 16:49:19 +0000";
layers = (
{
layerId = UUID0;
paths = (
{
closed = 1;
nodes = (
"663 461 OFFCURVE",
"630 709 OFFCURVE",
"357 709 CURVE SMOOTH",
"84 709 OFFCURVE",
"53 461 OFFCURVE",
"53 354 CURVE SMOOTH",
"53 245 OFFCURVE",
"84 0 OFFCURVE",
"357 0 CURVE SMOOTH",
"630 0 OFFCURVE",
"663 245 OFFCURVE",
"663 354 CURVE SMOOTH"
);
},
{
closed = 1;
nodes = (
"550 253 OFFCURVE",
"533 51 OFFCURVE",
"357 51 CURVE SMOOTH",
"184 51 OFFCURVE",
"166 253 OFFCURVE",
"166 354 CURVE SMOOTH",
"166 455 OFFCURVE",
"184 658 OFFCURVE",
"357 658 CURVE SMOOTH",
"533 658 OFFCURVE",
"550 455 OFFCURVE",
"550 354 CURVE SMOOTH"
);
}
);
width = 716;
}
);
unicode = 041E;
},
{
glyphname = "Pe-cy";
lastChange = "2016-08-03 16:49:19 +0000";
layers = (
{
layerId = UUID0;
paths = (
{
closed = 1;
nodes = (
"208 709 LINE",
"144 709 LINE",
"113 709 OFFCURVE",
"100 696 OFFCURVE",
"100 659 CURVE",
"100 50 LINE",
"100 15 OFFCURVE",
"115 0 OFFCURVE",
"146 0 CURVE SMOOTH",
"187 0 OFFCURVE",
"208 17 OFFCURVE",
"208 65 CURVE",
"208 656 LINE",
"531 656 LINE",
"531 77 LINE",
"531 26 OFFCURVE",
"554 0 OFFCURVE",
"595 0 CURVE SMOOTH",
"626 0 OFFCURVE",
"639 13 OFFCURVE",
"639 50 CURVE",
"639 659 LINE",
"639 694 OFFCURVE",
"624 709 OFFCURVE",
"593 709 CURVE SMOOTH"
);
}
);
width = 739;
}
);
unicode = 041F;
},
{
glyphname = "Er-cy";
lastChange = "2016-08-03 16:49:19 +0000";
layers = (
{
layerId = UUID0;
paths = (
{
closed = 1;
nodes = (
"312 275 LINE",
"496 275 OFFCURVE",
"582 377 OFFCURVE",
"582 502 CURVE SMOOTH",
"582 704 OFFCURVE",
"389 709 OFFCURVE",
"311 709 CURVE SMOOTH",
"144 709 LINE SMOOTH",
"113 709 OFFCURVE",
"100 696 OFFCURVE",
"100 659 CURVE SMOOTH",
"100 50 LINE SMOOTH",
"100 15 OFFCURVE",
"115 0 OFFCURVE",
"146 0 CURVE SMOOTH",
"187 0 OFFCURVE",
"208 17 OFFCURVE",
"208 65 CURVE SMOOTH",
"208 275 LINE"
);
},
{
closed = 1;
nodes = (
"311 656 LINE",
"430 656 OFFCURVE",
"469 595 OFFCURVE",
"469 502 CURVE SMOOTH",
"469 379 OFFCURVE",
"407 328 OFFCURVE",
"311 328 CURVE SMOOTH",
"208 328 LINE",
"208 656 LINE"
);
}
);
width = 617;
}
);
unicode = 0420;
},
{
glyphname = "Es-cy";
lastChange = "2016-08-03 16:49:19 +0000";
layers = (
{
layerId = UUID0;
paths = (
{
closed = 1;
nodes = (
"532 529 OFFCURVE",
"546 544 OFFCURVE",
"546 579 CURVE SMOOTH",
"546 639 LINE SMOOTH",
"546 670 OFFCURVE",
"536 678 OFFCURVE",
"505 688 CURVE SMOOTH",
"458 703 OFFCURVE",
"409 709 OFFCURVE",
"359 709 CURVE SMOOTH",
"186 709 OFFCURVE",
"53 598 OFFCURVE",
"53 348 CURVE SMOOTH",
"53 132 OFFCURVE",
"143 0 OFFCURVE",
"351 0 CURVE SMOOTH",
"431 0 OFFCURVE",
"482 14 OFFCURVE",
"531 34 CURVE SMOOTH",
"548 41 LINE SMOOTH",
"557 45 OFFCURVE",
"561 53 OFFCURVE",
"561 61 CURVE SMOOTH",
"561 75 OFFCURVE",
"551 91 OFFCURVE",
"537 91 CURVE SMOOTH",
"534 91 OFFCURVE",
"532 90 OFFCURVE",
"529 89 CURVE SMOOTH",
"510 81 LINE SMOOTH",
"467 63 OFFCURVE",
"420 52 OFFCURVE",
"379 52 CURVE SMOOTH",
"249 52 OFFCURVE",
"166 116 OFFCURVE",
"166 346 CURVE SMOOTH",
"166 555 OFFCURVE",
"249 658 OFFCURVE",
"372 658 CURVE SMOOTH",
"398 658 OFFCURVE",
"422 655 OFFCURVE",
"445 650 CURVE",
"445 594 LINE SMOOTH",
"445 546 OFFCURVE",
"465 529 OFFCURVE",
"503 529 CURVE SMOOTH"
);
}
);
width = 581;
}
);
unicode = 0421;
},
{
glyphname = "Te-cy";
lastChange = "2016-08-03 16:49:19 +0000";
layers = (
{
layerId = UUID0;
paths = (
{
closed = 1;
nodes = (
"529 656 LINE",
"529 585 LINE SMOOTH",
"529 537 OFFCURVE",
"549 520 OFFCURVE",
"587 520 CURVE SMOOTH",
"616 520 OFFCURVE",
"630 535 OFFCURVE",
"630 570 CURVE SMOOTH",
"630 672 LINE SMOOTH",
"630 702 OFFCURVE",
"609 709 OFFCURVE",
"570 709 CURVE SMOOTH",
"80 709 LINE SMOOTH",
"41 709 OFFCURVE",
"20 702 OFFCURVE",
"20 672 CURVE SMOOTH",
"20 570 LINE SMOOTH",
"20 535 OFFCURVE",
"34 520 OFFCURVE",
"63 520 CURVE SMOOTH",
"101 520 OFFCURVE",
"121 537 OFFCURVE",
"121 585 CURVE SMOOTH",
"121 656 LINE",
"271 656 LINE",
"271 50 LINE SMOOTH",
"271 15 OFFCURVE",
"286 0 OFFCURVE",
"317 0 CURVE SMOOTH",
"358 0 OFFCURVE",
"379 12 OFFCURVE",
"379 60 CURVE SMOOTH",
"379 656 LINE"
);
}
);
width = 650;
}
);
unicode = 0422;
},
{
glyphname = "U-cy";
lastChange = "2016-08-03 16:49:19 +0000";
layers = (
{
layerId = UUID0;
paths = (
{
closed = 1;
nodes = (
"354 305 LINE",
"348 305 LINE",
"160 657 LINE SMOOTH",
"138 699 OFFCURVE",
"116 709 OFFCURVE",
"83 709 CURVE SMOOTH",
"61 709 OFFCURVE",
"47 694 OFFCURVE",
"47 674 CURVE SMOOTH",
"47 666 OFFCURVE",
"48 658 OFFCURVE",
"53 649 CURVE SMOOTH",
"300 195 LINE",
"275 133 OFFCURVE",
"241 102 OFFCURVE",
"180 96 CURVE SMOOTH",
"129 90 OFFCURVE",
"113 83 OFFCURVE",
"113 55 CURVE SMOOTH",
"113 15 OFFCURVE",
"135 0 OFFCURVE",
"163 0 CURVE SMOOTH",
"271 0 OFFCURVE",
"348 120 OFFCURVE",
"389 217 CURVE SMOOTH",
"575 654 LINE SMOOTH",
"578 660 OFFCURVE",
"580 668 OFFCURVE",
"580 676 CURVE SMOOTH",
"580 693 OFFCURVE",
"569 709 OFFCURVE",
"549 709 CURVE SMOOTH",
"526 709 OFFCURVE",
"506 696 OFFCURVE",
"491 656 CURVE SMOOTH"
);
}
);
width = 615;
}
);
unicode = 0423;
},
{
glyphname = "Ef-cy";
lastChange = "2016-08-03 16:49:19 +0000";
layers = (
{
layerId = UUID0;
paths = (
{
closed = 1;
nodes = (
"473 659 LINE",
"473 694 OFFCURVE",
"458 709 OFFCURVE",
"423 709 CURVE SMOOTH",
"386 709 OFFCURVE",
"365 697 OFFCURVE",
"365 649 CURVE SMOOTH",
"365 591 LINE",
"245 591 OFFCURVE",
"45 557 OFFCURVE",
"45 356 CURVE SMOOTH",
"45 210 OFFCURVE",
"149 115 OFFCURVE",
"366 115 CURVE",
"366 51 LINE SMOOTH",
"366 17 OFFCURVE",
"381 0 OFFCURVE",
"418 0 CURVE SMOOTH",
"453 0 OFFCURVE",
"473 14 OFFCURVE",
"473 61 CURVE SMOOTH",
"473 115 LINE",
"690 115 OFFCURVE",
"794 210 OFFCURVE",
"794 356 CURVE SMOOTH",
"794 557 OFFCURVE",
"593 591 OFFCURVE",
"473 591 CURVE"
);
},
{
closed = 1;
nodes = (
"472 540 LINE",
"618 540 OFFCURVE",
"682 459 OFFCURVE",
"682 356 CURVE SMOOTH",
"682 218 OFFCURVE",
"588 166 OFFCURVE",
"472 166 CURVE"
);
},
{
closed = 1;
nodes = (
"367 166 LINE",
"251 166 OFFCURVE",
"157 218 OFFCURVE",
"157 356 CURVE SMOOTH",
"157 459 OFFCURVE",
"221 540 OFFCURVE",
"367 540 CURVE"
);
}
);
width = 839;
}
);
unicode = 0424;
},
{
glyphname = "Ha-cy";
lastChange = "2016-08-03 16:49:19 +0000";
layers = (
{
layerId = UUID0;
paths = (
{
closed = 1;
nodes = (
"311 434 LINE",
"305 434 LINE",
"180 656 LINE SMOOTH",
"163 687 OFFCURVE",
"140 709 OFFCURVE",
"102 709 CURVE SMOOTH",
"80 709 OFFCURVE",
"63 693 OFFCURVE",
"63 675 CURVE SMOOTH",
"63 667 OFFCURVE",
"65 659 OFFCURVE",
"70 651 CURVE SMOOTH",
"241 366 LINE",
"41 54 LINE SMOOTH",
"36 46 OFFCURVE",
"30 33 OFFCURVE",
"30 22 CURVE SMOOTH",
"30 11 OFFCURVE",
"38 0 OFFCURVE",
"60 0 CURVE SMOOTH",
"78 0 OFFCURVE",
"98 5 OFFCURVE",
"128 54 CURVE SMOOTH",
"285 307 LINE",
"289 307 LINE",
"439 52 LINE SMOOTH",
"460 16 OFFCURVE",
"479 0 OFFCURVE",
"520 0 CURVE SMOOTH",
"544 0 OFFCURVE",
"559 15 OFFCURVE",
"559 32 CURVE SMOOTH",
"559 41 OFFCURVE",
"556 52 OFFCURVE",
"551 60 CURVE SMOOTH",
"354 382 LINE",
"522 655 LINE SMOOTH",
"530 666 OFFCURVE",
"533 677 OFFCURVE",
"533 685 CURVE SMOOTH",
"533 700 OFFCURVE",
"518 709 OFFCURVE",
"503 709 CURVE SMOOTH",
"479 709 OFFCURVE",
"461 693 OFFCURVE",
"439 656 CURVE SMOOTH"
);
}
);
width = 589;
}
);
unicode = 0425;
},
{
glyphname = "Che-cy";
lastChange = "2016-08-03 16:49:19 +0000";
layers = (
{
layerId = UUID0;
paths = (
{
closed = 1;
nodes = (
"551 0 OFFCURVE",
"564 13 OFFCURVE",
"564 50 CURVE SMOOTH",
"564 659 LINE SMOOTH",
"564 694 OFFCURVE",
"549 709 OFFCURVE",
"518 709 CURVE SMOOTH",
"477 709 OFFCURVE",
"456 692 OFFCURVE",
"456 644 CURVE SMOOTH",
"456 356 LINE",
"410 330 OFFCURVE",
"351 317 OFFCURVE",
"307 317 CURVE SMOOTH",
"215 317 OFFCURVE",
"174 364 OFFCURVE",
"174 451 CURVE SMOOTH",
"174 632 LINE SMOOTH",
"174 683 OFFCURVE",
"154 709 OFFCURVE",
"113 709 CURVE SMOOTH",
"82 709 OFFCURVE",
"70 696 OFFCURVE",
"70 659 CURVE SMOOTH",
"70 448 LINE SMOOTH",
"70 309 OFFCURVE",
"152 261 OFFCURVE",
"278 261 CURVE SMOOTH",
"347 261 OFFCURVE",
"397 276 OFFCURVE",
"456 300 CURVE",
"456 77 LINE SMOOTH",
"456 26 OFFCURVE",
"479 0 OFFCURVE",
"520 0 CURVE SMOOTH"
);
}
);
width = 664;
}
);
unicode = 0427;
},
{
glyphname = "Tse-cy";
lastChange = "2016-08-03 16:49:19 +0000";
layers = (
{
layerId = UUID0;
paths = (
{
closed = 1;
nodes = (
"607 0 LINE",
"607 -102 LINE SMOOTH",
"607 -150 OFFCURVE",
"627 -167 OFFCURVE",
"665 -167 CURVE SMOOTH",
"694 -167 OFFCURVE",
"708 -152 OFFCURVE",
"708 -117 CURVE SMOOTH",
"708 16 LINE SMOOTH",
"708 46 OFFCURVE",
"687 53 OFFCURVE",
"648 53 CURVE SMOOTH",
"618 53 LINE",
"618 659 LINE SMOOTH",
"618 694 OFFCURVE",
"603 709 OFFCURVE",
"572 709 CURVE SMOOTH",
"531 709 OFFCURVE",
"510 692 OFFCURVE",
"510 644 CURVE SMOOTH",
"510 53 LINE",
"208 53 LINE",
"208 632 LINE SMOOTH",
"208 683 OFFCURVE",
"185 709 OFFCURVE",
"144 709 CURVE SMOOTH",
"113 709 OFFCURVE",
"100 696 OFFCURVE",
"100 659 CURVE SMOOTH",
"100 50 LINE SMOOTH",
"100 15 OFFCURVE",
"115 0 OFFCURVE",
"146 0 CURVE SMOOTH"
);
}
);
width = 734;
}
);
unicode = 0426;
},
{
glyphname = "Sha-cy";
lastChange = "2016-08-03 16:49:19 +0000";
layers = (
{
layerId = UUID0;
paths = (
{
closed = 1;
nodes = (
"860 0 LINE",
"891 0 OFFCURVE",
"906 15 OFFCURVE",
"906 50 CURVE SMOOTH",
"906 659 LINE SMOOTH",
"906 694 OFFCURVE",
"891 709 OFFCURVE",
"860 709 CURVE SMOOTH",
"819 709 OFFCURVE",
"798 692 OFFCURVE",
"798 644 CURVE SMOOTH",
"798 53 LINE",
"557 53 LINE",
"557 659 LINE SMOOTH",
"557 694 OFFCURVE",
"542 709 OFFCURVE",
"511 709 CURVE SMOOTH",
"470 709 OFFCURVE",
"449 697 OFFCURVE",
"449 649 CURVE SMOOTH",
"449 53 LINE",
"208 53 LINE",
"208 632 LINE SMOOTH",
"208 683 OFFCURVE",
"185 709 OFFCURVE",
"144 709 CURVE SMOOTH",
"113 709 OFFCURVE",
"100 696 OFFCURVE",
"100 659 CURVE SMOOTH",
"100 50 LINE SMOOTH",
"100 15 OFFCURVE",
"115 0 OFFCURVE",
"146 0 CURVE SMOOTH"
);
}
);
width = 1006;
}
);
unicode = 0428;
},
{
glyphname = "Shcha-cy";
lastChange = "2016-08-03 16:49:19 +0000";
layers = (
{
layerId = UUID0;
paths = (
{
closed = 1;
nodes = (
"557 659 LINE",
"557 694 OFFCURVE",
"542 709 OFFCURVE",
"511 709 CURVE SMOOTH",
"470 709 OFFCURVE",
"449 697 OFFCURVE",
"449 649 CURVE SMOOTH",
"449 53 LINE",
"208 53 LINE",
"208 632 LINE SMOOTH",
"208 683 OFFCURVE",
"185 709 OFFCURVE",
"144 709 CURVE SMOOTH",
"113 709 OFFCURVE",
"100 696 OFFCURVE",
"100 659 CURVE SMOOTH",
"100 50 LINE SMOOTH",
"100 15 OFFCURVE",
"115 0 OFFCURVE",
"146 0 CURVE SMOOTH",
"895 0 LINE",
"895 -102 LINE SMOOTH",
"895 -150 OFFCURVE",
"915 -167 OFFCURVE",
"953 -167 CURVE SMOOTH",
"982 -167 OFFCURVE",
"996 -152 OFFCURVE",
"996 -117 CURVE SMOOTH",
"996 16 LINE SMOOTH",
"996 46 OFFCURVE",
"975 53 OFFCURVE",
"936 53 CURVE SMOOTH",
"906 53 LINE",
"906 659 LINE SMOOTH",
"906 694 OFFCURVE",
"891 709 OFFCURVE",
"860 709 CURVE SMOOTH",
"819 709 OFFCURVE",
"798 692 OFFCURVE",
"798 644 CURVE SMOOTH",
"798 53 LINE",
"557 53 LINE"
);
}
);
width = 1022;
}
);
unicode = 0429;
},
{
glyphname = "Dzhe-cy";
lastChange = "2016-08-03 16:49:19 +0000";
layers = (
{
layerId = UUID0;
paths = (
{
closed = 1;
nodes = (
"406 -182 OFFCURVE",
"420 -167 OFFCURVE",
"420 -132 CURVE SMOOTH",
"420 0 LINE",
"595 0 LINE SMOOTH",
"626 0 OFFCURVE",
"639 13 OFFCURVE",
"639 50 CURVE SMOOTH",
"639 659 LINE SMOOTH",
"639 694 OFFCURVE",
"624 709 OFFCURVE",
"593 709 CURVE SMOOTH",
"552 709 OFFCURVE",
"531 692 OFFCURVE",
"531 644 CURVE SMOOTH",
"531 53 LINE",
"208 53 LINE",
"208 632 LINE SMOOTH",
"208 683 OFFCURVE",
"185 709 OFFCURVE",
"144 709 CURVE SMOOTH",
"113 709 OFFCURVE",
"100 696 OFFCURVE",
"100 659 CURVE SMOOTH",
"100 50 LINE SMOOTH",
"100 15 OFFCURVE",
"115 0 OFFCURVE",
"146 0 CURVE SMOOTH",
"319 0 LINE",
"319 -133 LINE SMOOTH",
"319 -167 OFFCURVE",
"339 -182 OFFCURVE",
"370 -182 CURVE SMOOTH"
);
}
);
width = 739;
}
);
unicode = 040F;
},
{
glyphname = "Softsign-cy";
lastChange = "2016-08-03 16:49:19 +0000";
layers = (
{
layerId = UUID0;
paths = (
{
closed = 1;
nodes = (
"208 632 LINE",
"208 683 OFFCURVE",
"185 709 OFFCURVE",
"144 709 CURVE SMOOTH",
"113 709 OFFCURVE",
"100 696 OFFCURVE",
"100 659 CURVE SMOOTH",
"100 50 LINE SMOOTH",
"100 15 OFFCURVE",
"115 0 OFFCURVE",
"146 0 CURVE SMOOTH",
"336 0 LINE SMOOTH",
"423 0 OFFCURVE",
"585 28 OFFCURVE",
"585 200 CURVE SMOOTH",
"585 352 OFFCURVE",
"487 397 OFFCURVE",
"338 397 CURVE SMOOTH",
"208 397 LINE"
);
},
{
closed = 1;
nodes = (
"318 344 LINE",
"410 344 OFFCURVE",
"472 312 OFFCURVE",
"472 200 CURVE SMOOTH",
"472 80 OFFCURVE",
"389 53 OFFCURVE",
"323 53 CURVE SMOOTH",
"207 53 LINE",
"207 344 LINE"
);
}
);
width = 630;
}
);
unicode = 042C;
},
{
glyphname = "Hardsign-cy";
lastChange = "2016-08-03 16:49:19 +0000";
layers = (
{
layerId = UUID0;
paths = (
{
closed = 1;
nodes = (
"238 656 LINE",
"238 50 LINE SMOOTH",
"238 15 OFFCURVE",
"253 0 OFFCURVE",
"284 0 CURVE SMOOTH",
"474 0 LINE SMOOTH",
"561 0 OFFCURVE",
"723 28 OFFCURVE",
"723 200 CURVE SMOOTH",
"723 352 OFFCURVE",
"625 397 OFFCURVE",
"476 397 CURVE SMOOTH",
"346 397 LINE",
"346 659 LINE SMOOTH",
"346 694 OFFCURVE",
"331 709 OFFCURVE",
"300 709 CURVE SMOOTH",
"68 709 LINE SMOOTH",
"29 709 OFFCURVE",
"8 702 OFFCURVE",
"8 672 CURVE SMOOTH",
"8 570 LINE SMOOTH",
"8 535 OFFCURVE",
"22 520 OFFCURVE",
"51 520 CURVE SMOOTH",
"89 520 OFFCURVE",
"109 537 OFFCURVE",
"109 585 CURVE SMOOTH",
"109 656 LINE"
);
},
{
closed = 1;
nodes = (
"456 344 LINE",
"548 344 OFFCURVE",
"610 312 OFFCURVE",
"610 200 CURVE SMOOTH",
"610 80 OFFCURVE",
"527 53 OFFCURVE",
"461 53 CURVE SMOOTH",
"345 53 LINE",
"345 344 LINE"
);
}
);
width = 758;
}
);
unicode = 042A;
},
{
glyphname = "Yeru-cy";
lastChange = "2016-08-03 16:49:19 +0000";
layers = (
{
layerId = UUID0;
paths = (
{
closed = 1;
nodes = (
"208 632 LINE",
"208 683 OFFCURVE",
"185 709 OFFCURVE",
"144 709 CURVE SMOOTH",
"113 709 OFFCURVE",
"100 696 OFFCURVE",
"100 659 CURVE SMOOTH",
"100 50 LINE SMOOTH",
"100 15 OFFCURVE",
"115 0 OFFCURVE",
"146 0 CURVE SMOOTH",
"326 0 LINE SMOOTH",
"413 0 OFFCURVE",
"575 28 OFFCURVE",
"575 200 CURVE SMOOTH",
"575 352 OFFCURVE",
"477 397 OFFCURVE",
"328 397 CURVE SMOOTH",
"208 397 LINE"
);
},
{
closed = 1;
nodes = (
"308 344 LINE",
"400 344 OFFCURVE",
"462 312 OFFCURVE",
"462 200 CURVE SMOOTH",
"462 80 OFFCURVE",
"379 53 OFFCURVE",
"313 53 CURVE SMOOTH",
"207 53 LINE",
"207 344 LINE"
);
},
{
closed = 1;
nodes = (
"702 709 OFFCURVE",
"681 692 OFFCURVE",
"681 644 CURVE SMOOTH",
"681 77 LINE SMOOTH",
"681 26 OFFCURVE",
"704 0 OFFCURVE",
"745 0 CURVE SMOOTH",
"776 0 OFFCURVE",
"789 13 OFFCURVE",
"789 50 CURVE SMOOTH",
"789 659 LINE SMOOTH",
"789 694 OFFCURVE",
"774 709 OFFCURVE",
"743 709 CURVE SMOOTH"
);
}
);
width = 889;
}
);
unicode = 042B;
},
{
glyphname = "Lje-cy";
lastChange = "2016-08-03 16:49:19 +0000";
layers = (
{
layerId = UUID0;
paths = (
{
closed = 1;
nodes = (
"738 0 LINE SMOOTH",
"825 0 OFFCURVE",
"987 28 OFFCURVE",
"987 200 CURVE SMOOTH",
"987 352 OFFCURVE",
"889 397 OFFCURVE",
"740 397 CURVE SMOOTH",
"615 397 LINE",
"615 659 LINE SMOOTH",
"615 694 OFFCURVE",
"600 709 OFFCURVE",
"569 709 CURVE SMOOTH",
"242 709 LINE SMOOTH",
"211 709 OFFCURVE",
"198 696 OFFCURVE",
"198 659 CURVE SMOOTH",
"198 552 LINE SMOOTH",
"198 403 OFFCURVE",
"198 292 OFFCURVE",
"169 207 CURVE SMOOTH",
"151 154 OFFCURVE",
"121 116 OFFCURVE",
"74 100 CURVE SMOOTH",
"28 85 OFFCURVE",
"20 78 OFFCURVE",
"20 54 CURVE SMOOTH",
"20 27 OFFCURVE",
"38 0 OFFCURVE",
"63 0 CURVE SMOOTH",
"150 0 OFFCURVE",
"215 106 OFFCURVE",
"237 172 CURVE SMOOTH",
"268 267 OFFCURVE",
"277 388 OFFCURVE",
"277 555 CURVE SMOOTH",
"277 656 LINE",
"507 656 LINE",
"507 50 LINE SMOOTH",
"507 15 OFFCURVE",
"522 0 OFFCURVE",
"553 0 CURVE"
);
},
{
closed = 1;
nodes = (
"720 344 LINE",
"812 344 OFFCURVE",
"874 312 OFFCURVE",
"874 200 CURVE SMOOTH",
"874 80 OFFCURVE",
"791 53 OFFCURVE",
"725 53 CURVE SMOOTH",
"614 53 LINE",
"614 344 LINE"
);
}
);
width = 1032;
}
);
unicode = 0409;
},
{
glyphname = "Nje-cy";
lastChange = "2016-08-03 16:49:19 +0000";
layers = (
{
layerId = UUID0;
paths = (
{
closed = 1;
nodes = (
"634 632 LINE",
"634 683 OFFCURVE",
"611 709 OFFCURVE",
"570 709 CURVE SMOOTH",
"539 709 OFFCURVE",
"526 696 OFFCURVE",
"526 659 CURVE SMOOTH",
"526 394 LINE",
"208 394 LINE",
"208 632 LINE SMOOTH",
"208 683 OFFCURVE",
"185 709 OFFCURVE",
"144 709 CURVE SMOOTH",
"113 709 OFFCURVE",
"100 696 OFFCURVE",
"100 659 CURVE SMOOTH",
"100 50 LINE SMOOTH",
"100 15 OFFCURVE",
"115 0 OFFCURVE",
"146 0 CURVE SMOOTH",
"187 0 OFFCURVE",
"208 17 OFFCURVE",
"208 65 CURVE SMOOTH",
"208 339 LINE",
"526 339 LINE",
"526 50 LINE SMOOTH",
"526 15 OFFCURVE",
"541 0 OFFCURVE",
"572 0 CURVE SMOOTH",
"757 0 LINE SMOOTH",
"844 0 OFFCURVE",
"1006 26 OFFCURVE",
"1006 198 CURVE SMOOTH",
"1006 350 OFFCURVE",
"908 392 OFFCURVE",
"759 392 CURVE SMOOTH",
"634 392 LINE"
);
},
{
closed = 1;
nodes = (
"739 339 LINE",
"831 339 OFFCURVE",
"893 310 OFFCURVE",
"893 198 CURVE SMOOTH",
"893 78 OFFCURVE",
"810 53 OFFCURVE",
"744 53 CURVE SMOOTH",
"633 53 LINE",
"633 339 LINE"
);
}
);
width = 1051;
}
);
unicode = 040A;
},
{
glyphname = "Dze-cy";
lastChange = "2016-08-03 16:49:19 +0000";
layers = (
{
layerId = UUID0;
paths = (
{
closed = 1;
nodes = (
"511 527 OFFCURVE",
"525 542 OFFCURVE",
"525 575 CURVE SMOOTH",
"525 633 LINE SMOOTH",
"525 662 OFFCURVE",
"515 670 OFFCURVE",
"484 680 CURVE SMOOTH",
"433 695 OFFCURVE",
"376 709 OFFCURVE",
"299 709 CURVE SMOOTH",
"147 709 OFFCURVE",
"61 635 OFFCURVE",
"61 528 CURVE SMOOTH",
"61 408 OFFCURVE",
"153 372 OFFCURVE",
"291 321 CURVE SMOOTH",
"405 279 OFFCURVE",
"459 251 OFFCURVE",
"459 183 CURVE SMOOTH",
"459 118 OFFCURVE",
"401 51 OFFCURVE",
"287 51 CURVE SMOOTH",
"244 51 OFFCURVE",
"204 59 OFFCURVE",
"165 72 CURVE",
"165 126 LINE SMOOTH",
"165 172 OFFCURVE",
"145 189 OFFCURVE",
"107 189 CURVE SMOOTH",
"78 189 OFFCURVE",
"64 174 OFFCURVE",
"64 141 CURVE SMOOTH",
"64 81 LINE SMOOTH",
"64 52 OFFCURVE",
"74 45 OFFCURVE",
"103 33 CURVE SMOOTH",
"150 15 OFFCURVE",
"230 0 OFFCURVE",
"291 0 CURVE SMOOTH",
"472 0 OFFCURVE",
"571 83 OFFCURVE",
"571 194 CURVE SMOOTH",
"571 309 OFFCURVE",
"483 341 OFFCURVE",
"308 404 CURVE SMOOTH",
"207 441 OFFCURVE",
"173 465 OFFCURVE",
"173 534 CURVE SMOOTH",
"173 589 OFFCURVE",
"212 658 OFFCURVE",
"306 658 CURVE SMOOTH",
"342 658 OFFCURVE",
"375 654 OFFCURVE",
"407 645 CURVE SMOOTH",
"413 643 OFFCURVE",
"418 641 OFFCURVE",
"424 640 CURVE",
"424 589 LINE SMOOTH",
"424 543 OFFCURVE",
"444 527 OFFCURVE",
"482 527 CURVE SMOOTH"
);
}
);
width = 631;
}
);
unicode = 0405;
},
{
glyphname = "E-cy";
lastChange = "2016-08-03 16:49:19 +0000";
layers = (
{
layerId = UUID0;
paths = (
{
closed = 1;
nodes = (
"461 375 OFFCURVE",
"456 388 OFFCURVE",
"446 388 CURVE SMOOTH",
"167 388 LINE",
"178 568 OFFCURVE",
"257 658 OFFCURVE",
"372 658 CURVE SMOOTH",
"398 658 OFFCURVE",
"422 655 OFFCURVE",
"445 650 CURVE",
"445 594 LINE SMOOTH",
"445 546 OFFCURVE",
"465 529 OFFCURVE",
"503 529 CURVE SMOOTH",
"532 529 OFFCURVE",
"546 544 OFFCURVE",
"546 579 CURVE SMOOTH",
"546 639 LINE SMOOTH",
"546 670 OFFCURVE",
"536 678 OFFCURVE",
"505 688 CURVE SMOOTH",
"458 703 OFFCURVE",
"409 709 OFFCURVE",
"359 709 CURVE SMOOTH",
"186 709 OFFCURVE",
"53 598 OFFCURVE",
"53 348 CURVE SMOOTH",
"53 132 OFFCURVE",
"143 0 OFFCURVE",
"351 0 CURVE SMOOTH",
"431 0 OFFCURVE",
"482 14 OFFCURVE",
"531 34 CURVE SMOOTH",
"548 41 LINE SMOOTH",
"557 45 OFFCURVE",
"561 53 OFFCURVE",
"561 61 CURVE SMOOTH",
"561 75 OFFCURVE",
"551 91 OFFCURVE",
"537 91 CURVE SMOOTH",
"534 91 OFFCURVE",
"532 90 OFFCURVE",
"529 89 CURVE SMOOTH",
"510 81 LINE SMOOTH",
"467 63 OFFCURVE",
"420 52 OFFCURVE",
"379 52 CURVE SMOOTH",
"251 52 OFFCURVE",
"169 113 OFFCURVE",
"166 333 CURVE",
"446 333 LINE SMOOTH",
"456 333 OFFCURVE",
"461 347 OFFCURVE",
"461 361 CURVE SMOOTH"
);
}
);
width = 581;
}
);
unicode = 0404;
},
{
glyphname = "Ereversed-cy";
lastChange = "2016-08-03 16:49:19 +0000";
layers = (
{
layerId = UUID0;
paths = (
{
closed = 1;
nodes = (
"141 125 LINE SMOOTH",
"141 171 OFFCURVE",
"121 188 OFFCURVE",
"83 188 CURVE SMOOTH",
"54 188 OFFCURVE",
"40 173 OFFCURVE",
"40 140 CURVE SMOOTH",
"40 80 LINE SMOOTH",
"40 51 OFFCURVE",
"50 44 OFFCURVE",
"79 32 CURVE SMOOTH",
"135 7 OFFCURVE",
"187 0 OFFCURVE",
"248 0 CURVE SMOOTH",
"469 0 OFFCURVE",
"562 163 OFFCURVE",
"562 370 CURVE SMOOTH",
"562 634 OFFCURVE",
"422 709 OFFCURVE",
"254 709 CURVE SMOOTH",
"199 709 OFFCURVE",
"139 697 OFFCURVE",
"89 682 CURVE SMOOTH",
"58 672 OFFCURVE",
"48 664 OFFCURVE",
"48 633 CURVE SMOOTH",
"48 576 LINE SMOOTH",
"48 541 OFFCURVE",
"62 526 OFFCURVE",
"91 526 CURVE SMOOTH",
"129 526 OFFCURVE",
"149 543 OFFCURVE",
"149 591 CURVE SMOOTH",
"149 647 LINE",
"181 654 OFFCURVE",
"212 658 OFFCURVE",
"247 658 CURVE SMOOTH",
"347 657 OFFCURVE",
"435 595 OFFCURVE",
"447 394 CURVE",
"169 394 LINE SMOOTH",
"159 394 OFFCURVE",
"154 380 OFFCURVE",
"154 366 CURVE SMOOTH",
"154 352 OFFCURVE",
"159 339 OFFCURVE",
"169 339 CURVE SMOOTH",
"449 339 LINE",
"443 148 OFFCURVE",
"367 51 OFFCURVE",
"247 51 CURVE SMOOTH",
"205 51 OFFCURVE",
"177 55 OFFCURVE",
"141 71 CURVE"
);
}
);
width = 615;
}
);
unicode = 042D;
},
{
glyphname = "I-cy";
lastChange = "2016-08-03 16:49:19 +0000";
layers = (
{
layerId = UUID0;
paths = (
{
closed = 1;
nodes = (
"358 0 LINE",
"384 0 OFFCURVE",
"388 12 OFFCURVE",
"388 24 CURVE SMOOTH",
"388 39 OFFCURVE",
"382 53 OFFCURVE",
"348 53 CURVE SMOOTH",
"258 53 LINE",
"258 656 LINE",
"348 656 LINE SMOOTH",
"382 656 OFFCURVE",
"388 670 OFFCURVE",
"388 685 CURVE SMOOTH",
"388 697 OFFCURVE",
"384 709 OFFCURVE",
"358 709 CURVE SMOOTH",
"50 709 LINE SMOOTH",
"24 709 OFFCURVE",
"20 697 OFFCURVE",
"20 685 CURVE SMOOTH",
"20 670 OFFCURVE",
"26 656 OFFCURVE",
"60 656 CURVE SMOOTH",
"150 656 LINE",
"150 53 LINE",
"60 53 LINE SMOOTH",
"26 53 OFFCURVE",
"20 39 OFFCURVE",
"20 24 CURVE SMOOTH",
"20 12 OFFCURVE",
"24 0 OFFCURVE",
"50 0 CURVE SMOOTH"
);
}
);
width = 408;
}
);
unicode = 0406;
},
{
glyphname = "Yi-cy";
lastChange = "2016-08-03 16:49:19 +0000";
layers = (
{
layerId = UUID0;
paths = (
{
closed = 1;
nodes = (
"239 816 OFFCURVE",
"271 783 OFFCURVE",
"307 783 CURVE SMOOTH",
"343 783 OFFCURVE",
"376 816 OFFCURVE",
"376 851 CURVE SMOOTH",
"376 889 OFFCURVE",
"343 920 OFFCURVE",
"307 920 CURVE SMOOTH",
"271 920 OFFCURVE",
"239 889 OFFCURVE",
"239 851 CURVE SMOOTH"
);
},
{
closed = 1;
nodes = (
"32 817 OFFCURVE",
"65 784 OFFCURVE",
"99 784 CURVE SMOOTH",
"137 784 OFFCURVE",
"169 817 OFFCURVE",
"169 852 CURVE SMOOTH",
"169 889 OFFCURVE",
"137 921 OFFCURVE",
"99 921 CURVE SMOOTH",
"65 921 OFFCURVE",
"32 889 OFFCURVE",
"32 852 CURVE SMOOTH"
);
},
{
closed = 1;
nodes = (
"358 0 LINE",
"384 0 OFFCURVE",
"388 12 OFFCURVE",
"388 24 CURVE SMOOTH",
"388 39 OFFCURVE",
"382 53 OFFCURVE",
"348 53 CURVE SMOOTH",
"258 53 LINE",
"258 656 LINE",
"348 656 LINE SMOOTH",
"382 656 OFFCURVE",
"388 670 OFFCURVE",
"388 685 CURVE SMOOTH",
"388 697 OFFCURVE",
"384 709 OFFCURVE",
"358 709 CURVE SMOOTH",
"50 709 LINE SMOOTH",
"24 709 OFFCURVE",
"20 697 OFFCURVE",
"20 685 CURVE SMOOTH",
"20 670 OFFCURVE",
"26 656 OFFCURVE",
"60 656 CURVE SMOOTH",
"150 656 LINE",
"150 53 LINE",
"60 53 LINE SMOOTH",
"26 53 OFFCURVE",
"20 39 OFFCURVE",
"20 24 CURVE SMOOTH",
"20 12 OFFCURVE",
"24 0 OFFCURVE",
"50 0 CURVE SMOOTH"
);
}
);
width = 408;
}
);
unicode = 0407;
},
{
glyphname = "Je-cy";
lastChange = "2016-08-03 16:49:19 +0000";
layers = (
{
layerId = UUID0;
paths = (
{
closed = 1;
nodes = (
"321 709 OFFCURVE",
"300 692 OFFCURVE",
"300 644 CURVE SMOOTH",
"300 208 LINE SMOOTH",
"300 138 OFFCURVE",
"276 52 OFFCURVE",
"178 52 CURVE SMOOTH",
"167 52 OFFCURVE",
"148 53 OFFCURVE",
"136 55 CURVE",
"136 104 LINE SMOOTH",
"136 152 OFFCURVE",
"116 169 OFFCURVE",
"78 169 CURVE SMOOTH",
"49 169 OFFCURVE",
"35 154 OFFCURVE",
"35 119 CURVE SMOOTH",
"35 52 LINE",
"35 37 OFFCURVE",
"41 28 OFFCURVE",
"55 21 CURVE SMOOTH",
"77 10 OFFCURVE",
"139 0 OFFCURVE",
"176 0 CURVE SMOOTH",
"383 0 OFFCURVE",
"408 171 OFFCURVE",
"408 261 CURVE SMOOTH",
"408 659 LINE SMOOTH",
"408 694 OFFCURVE",
"393 709 OFFCURVE",
"362 709 CURVE SMOOTH"
);
}
);
width = 484;
}
);
unicode = 0408;
},
{
glyphname = "Tshe-cy";
lastChange = "2016-08-03 16:49:19 +0000";
layers = (
{
layerId = UUID0;
paths = (
{
closed = 1;
nodes = (
"617 382 OFFCURVE",
"656 335 OFFCURVE",
"656 248 CURVE SMOOTH",
"656 77 LINE SMOOTH",
"656 26 OFFCURVE",
"676 0 OFFCURVE",
"717 0 CURVE SMOOTH",
"748 0 OFFCURVE",
"760 13 OFFCURVE",
"760 50 CURVE SMOOTH",
"760 251 LINE SMOOTH",
"760 390 OFFCURVE",
"680 438 OFFCURVE",
"554 438 CURVE SMOOTH",
"485 438 OFFCURVE",
"438 423 OFFCURVE",
"379 399 CURVE",
"379 656 LINE",
"529 656 LINE",
"529 590 LINE SMOOTH",
"529 542 OFFCURVE",
"549 525 OFFCURVE",
"587 525 CURVE SMOOTH",
"616 525 OFFCURVE",
"630 540 OFFCURVE",
"630 575 CURVE SMOOTH",
"630 672 LINE SMOOTH",
"630 702 OFFCURVE",
"609 709 OFFCURVE",
"570 709 CURVE SMOOTH",
"80 709 LINE SMOOTH",
"41 709 OFFCURVE",
"20 702 OFFCURVE",
"20 672 CURVE SMOOTH",
"20 570 LINE SMOOTH",
"20 535 OFFCURVE",
"34 520 OFFCURVE",
"63 520 CURVE SMOOTH",
"101 520 OFFCURVE",
"121 537 OFFCURVE",
"121 585 CURVE SMOOTH",
"121 656 LINE",
"271 656 LINE",
"271 50 LINE SMOOTH",
"271 15 OFFCURVE",
"286 0 OFFCURVE",
"317 0 CURVE SMOOTH",
"358 0 OFFCURVE",
"379 12 OFFCURVE",
"379 60 CURVE SMOOTH",
"379 343 LINE",
"425 369 OFFCURVE",
"481 382 OFFCURVE",
"525 382 CURVE SMOOTH"
);
}
);
width = 845;
}
);
unicode = 040B;
},
{
glyphname = "Iu-cy";
lastChange = "2016-08-03 16:49:19 +0000";
layers = (
{
layerId = UUID0;
paths = (
{
closed = 1;
nodes = (
"933 461 OFFCURVE",
"905 709 OFFCURVE",
"632 709 CURVE SMOOTH",
"389 709 OFFCURVE",
"341 512 OFFCURVE",
"334 394 CURVE",
"208 394 LINE",
"208 632 LINE SMOOTH",
"208 683 OFFCURVE",
"185 709 OFFCURVE",
"144 709 CURVE SMOOTH",
"113 709 OFFCURVE",
"100 696 OFFCURVE",
"100 659 CURVE SMOOTH",
"100 50 LINE SMOOTH",
"100 15 OFFCURVE",
"115 0 OFFCURVE",
"146 0 CURVE SMOOTH",
"187 0 OFFCURVE",
"208 17 OFFCURVE",
"208 65 CURVE SMOOTH",
"208 339 LINE",
"333 339 LINE",
"335 224 OFFCURVE",
"370 0 OFFCURVE",
"632 0 CURVE SMOOTH",
"905 0 OFFCURVE",
"933 245 OFFCURVE",
"933 354 CURVE SMOOTH"
);
},
{
closed = 1;
nodes = (
"820 253 OFFCURVE",
"808 51 OFFCURVE",
"632 51 CURVE SMOOTH",
"459 51 OFFCURVE",
"446 253 OFFCURVE",
"446 354 CURVE SMOOTH",
"446 455 OFFCURVE",
"459 658 OFFCURVE",
"632 658 CURVE SMOOTH",
"808 658 OFFCURVE",
"820 455 OFFCURVE",
"820 354 CURVE SMOOTH"
);
}
);
width = 986;
}
);
unicode = 042E;
},
{
glyphname = "Ia-cy";
lastChange = "2016-08-03 16:49:19 +0000";
layers = (
{
layerId = UUID0;
paths = (
{
closed = 1;
nodes = (
"543 659 LINE",
"543 696 OFFCURVE",
"530 709 OFFCURVE",
"499 709 CURVE SMOOTH",
"310 709 LINE SMOOTH",
"176 709 OFFCURVE",
"57 657 OFFCURVE",
"57 501 CURVE SMOOTH",
"57 398 OFFCURVE",
"147 331 OFFCURVE",
"232 321 CURVE",
"66 59 LINE SMOOTH",
"60 50 OFFCURVE",
"57 41 OFFCURVE",
"57 33 CURVE SMOOTH",
"57 14 OFFCURVE",
"73 0 OFFCURVE",
"108 0 CURVE SMOOTH",
"132 0 OFFCURVE",
"159 10 OFFCURVE",
"176 38 CURVE SMOOTH",
"344 314 LINE",
"435 314 LINE",
"435 65 LINE SMOOTH",
"435 17 OFFCURVE",
"456 0 OFFCURVE",
"497 0 CURVE SMOOTH",
"528 0 OFFCURVE",
"543 15 OFFCURVE",
"543 50 CURVE SMOOTH"
);
},
{
closed = 1;
nodes = (
"435 656 LINE",
"435 367 LINE",
"328 367 LINE SMOOTH",
"252 367 OFFCURVE",
"170 394 OFFCURVE",
"170 507 CURVE SMOOTH",
"170 631 OFFCURVE",
"263 656 OFFCURVE",
"320 656 CURVE"
);
}
);
width = 643;
}
);
unicode = 042F;
},
{
glyphname = "Dje-cy";
lastChange = "2016-08-03 16:49:19 +0000";
layers = (
{
layerId = UUID0;
paths = (
{
closed = 1;
nodes = (
"617 382 OFFCURVE",
"661 323 OFFCURVE",
"661 227 CURVE SMOOTH",
"661 97 OFFCURVE",
"615 67 OFFCURVE",
"572 61 CURVE SMOOTH",
"547 58 OFFCURVE",
"529 44 OFFCURVE",
"529 24 CURVE SMOOTH",
"529 9 OFFCURVE",
"540 0 OFFCURVE",
"562 0 CURVE SMOOTH",
"664 0 OFFCURVE",
"774 90 OFFCURVE",
"774 226 CURVE SMOOTH",
"774 384 OFFCURVE",
"680 438 OFFCURVE",
"549 438 CURVE SMOOTH",
"485 438 OFFCURVE",
"433 424 OFFCURVE",
"379 399 CURVE",
"379 656 LINE",
"529 656 LINE",
"529 590 LINE SMOOTH",
"529 542 OFFCURVE",
"549 525 OFFCURVE",
"587 525 CURVE SMOOTH",
"616 525 OFFCURVE",
"630 540 OFFCURVE",
"630 575 CURVE SMOOTH",
"630 672 LINE SMOOTH",
"630 702 OFFCURVE",
"609 709 OFFCURVE",
"570 709 CURVE SMOOTH",
"80 709 LINE SMOOTH",
"41 709 OFFCURVE",
"20 702 OFFCURVE",
"20 672 CURVE SMOOTH",
"20 570 LINE SMOOTH",
"20 535 OFFCURVE",
"34 520 OFFCURVE",
"63 520 CURVE SMOOTH",
"101 520 OFFCURVE",
"121 537 OFFCURVE",
"121 585 CURVE SMOOTH",
"121 656 LINE",
"271 656 LINE",
"271 50 LINE SMOOTH",
"271 15 OFFCURVE",
"286 0 OFFCURVE",
"317 0 CURVE SMOOTH",
"358 0 OFFCURVE",
"379 12 OFFCURVE",
"379 60 CURVE SMOOTH",
"379 343 LINE",
"425 369 OFFCURVE",
"481 382 OFFCURVE",
"521 382 CURVE SMOOTH"
);
}
);
width = 834;
}
);
unicode = 0402;
},
{
glyphname = "a-cy";
lastChange = "2016-08-03 16:49:19 +0000";
layers = (
{
layerId = UUID0;
paths = (
{
closed = 1;
nodes = (
"373 94 LINE",
"373 29 OFFCURVE",
"390 0 OFFCURVE",
"434 0 CURVE SMOOTH",
"466 0 OFFCURVE",
"473 17 OFFCURVE",
"473 47 CURVE SMOOTH",
"473 321 LINE SMOOTH",
"473 440 OFFCURVE",
"436 502 OFFCURVE",
"288 502 CURVE SMOOTH",
"245 502 OFFCURVE",
"184 494 OFFCURVE",
"139 475 CURVE SMOOTH",
"108 462 OFFCURVE",
"84 447 OFFCURVE",
"84 419 CURVE SMOOTH",
"84 401 OFFCURVE",
"95 385 OFFCURVE",
"119 385 CURVE SMOOTH",
"140 385 OFFCURVE",
"160 398 OFFCURVE",
"180 420 CURVE SMOOTH",
"199 441 OFFCURVE",
"226 462 OFFCURVE",
"268 462 CURVE SMOOTH",
"338 462 OFFCURVE",
"368 430 OFFCURVE",
"368 338 CURVE SMOOTH",
"368 310 LINE",
"295 310 LINE SMOOTH",
"93 310 OFFCURVE",
"43 221 OFFCURVE",
"43 135 CURVE SMOOTH",
"43 55 OFFCURVE",
"92 0 OFFCURVE",
"194 0 CURVE SMOOTH",
"271 0 OFFCURVE",
"326 29 OFFCURVE",
"370 95 CURVE"
);
},
{
closed = 1;
nodes = (
"369 268 LINE",
"369 184 LINE SMOOTH",
"369 104 OFFCURVE",
"283 67 OFFCURVE",
"234 67 CURVE SMOOTH",
"182 67 OFFCURVE",
"147 88 OFFCURVE",
"147 149 CURVE SMOOTH",
"147 214 OFFCURVE",
"182 268 OFFCURVE",
"311 268 CURVE SMOOTH"
);
}
);
width = 546;
}
);
unicode = 0430;
},
{
glyphname = "be-cy";
lastChange = "2016-08-03 16:49:19 +0000";
layers = (
{
layerId = UUID0;
paths = (
{
closed = 1;
nodes = (
"513 435 OFFCURVE",
"421 502 OFFCURVE",
"303 502 CURVE SMOOTH",
"220 502 OFFCURVE",
"160 459 OFFCURVE",
"127 367 CURVE",
"120 367 LINE",
"120 543 OFFCURVE",
"174 611 OFFCURVE",
"300 632 CURVE SMOOTH",
"410 650 OFFCURVE",
"481 672 OFFCURVE",
"481 737 CURVE SMOOTH",
"481 755 OFFCURVE",
"467 760 OFFCURVE",
"456 760 CURVE SMOOTH",
"429 760 OFFCURVE",
"406 747 OFFCURVE",
"382 740 CURVE SMOOTH",
"373 737 OFFCURVE",
"298 719 OFFCURVE",
"268 711 CURVE SMOOTH",
"115 673 OFFCURVE",
"55 556 OFFCURVE",
"55 290 CURVE SMOOTH",
"55 66 OFFCURVE",
"151 0 OFFCURVE",
"284 0 CURVE SMOOTH",
"414 0 OFFCURVE",
"513 79 OFFCURVE",
"513 251 CURVE SMOOTH"
);
},
{
closed = 1;
nodes = (
"162 350 OFFCURVE",
"210 450 OFFCURVE",
"287 450 CURVE SMOOTH",
"398 450 OFFCURVE",
"405 301 OFFCURVE",
"405 251 CURVE SMOOTH",
"405 177 OFFCURVE",
"393 40 OFFCURVE",
"284 40 CURVE SMOOTH",
"192 40 OFFCURVE",
"162 117 OFFCURVE",
"162 251 CURVE SMOOTH"
);
}
);
width = 563;
}
);
unicode = 0431;
},
{
glyphname = "ve-cy";
lastChange = "2016-08-03 16:49:19 +0000";
layers = (
{
layerId = UUID0;
paths = (
{
closed = 1;
nodes = (
"80 47 LINE SMOOTH",
"80 17 OFFCURVE",
"88 0 OFFCURVE",
"120 0 CURVE SMOOTH",
"278 0 LINE SMOOTH",
"363 0 OFFCURVE",
"483 29 OFFCURVE",
"483 148 CURVE SMOOTH",
"483 207 OFFCURVE",
"437 258 OFFCURVE",
"359 261 CURVE",
"359 267 LINE",
"427 278 OFFCURVE",
"463 326 OFFCURVE",
"463 382 CURVE SMOOTH",
"463 471 OFFCURVE",
"374 502 OFFCURVE",
"290 502 CURVE SMOOTH",
"120 502 LINE SMOOTH",
"88 502 OFFCURVE",
"80 485 OFFCURVE",
"80 455 CURVE"
);
},
{
closed = 1;
nodes = (
"182 238 LINE",
"264 238 LINE SMOOTH",
"339 238 OFFCURVE",
"375 202 OFFCURVE",
"375 143 CURVE SMOOTH",
"375 97 OFFCURVE",
"348 45 OFFCURVE",
"266 45 CURVE SMOOTH",
"182 45 LINE"
);
},
{
closed = 1;
nodes = (
"182 280 LINE",
"182 457 LINE",
"263 457 LINE SMOOTH",
"322 457 OFFCURVE",
"358 425 OFFCURVE",
"358 372 CURVE SMOOTH",
"358 305 OFFCURVE",
"315 280 OFFCURVE",
"268 280 CURVE SMOOTH"
);
}
);
width = 519;
}
);
unicode = 0432;
},
{
glyphname = "ge-cy";
lastChange = "2016-08-03 16:49:19 +0000";
layers = (
{
layerId = UUID0;
paths = (
{
closed = 1;
nodes = (
"80 47 LINE SMOOTH",
"80 17 OFFCURVE",
"88 0 OFFCURVE",
"120 0 CURVE SMOOTH",
"164 0 OFFCURVE",
"184 11 OFFCURVE",
"184 71 CURVE SMOOTH",
"184 455 LINE",
"339 455 LINE",
"339 408 LINE SMOOTH",
"339 354 OFFCURVE",
"353 344 OFFCURVE",
"394 344 CURVE SMOOTH",
"423 344 OFFCURVE",
"431 359 OFFCURVE",
"431 386 CURVE SMOOTH",
"431 471 LINE SMOOTH",
"431 494 OFFCURVE",
"418 502 OFFCURVE",
"399 502 CURVE SMOOTH",
"120 502 LINE SMOOTH",
"88 502 OFFCURVE",
"80 485 OFFCURVE",
"80 455 CURVE"
);
}
);
width = 444;
}
);
unicode = 0433;
},
{
glyphname = "gheupturn-cy";
lastChange = "2016-08-03 16:49:19 +0000";
layers = (
{
layerId = UUID0;
paths = (
{
closed = 1;
nodes = (
"80 47 LINE SMOOTH",
"80 17 OFFCURVE",
"88 0 OFFCURVE",
"120 0 CURVE SMOOTH",
"164 0 OFFCURVE",
"184 11 OFFCURVE",
"184 71 CURVE SMOOTH",
"184 455 LINE",
"387 455 LINE SMOOTH",
"406 455 OFFCURVE",
"419 463 OFFCURVE",
"419 486 CURVE SMOOTH",
"419 576 LINE SMOOTH",
"419 603 OFFCURVE",
"411 618 OFFCURVE",
"382 618 CURVE SMOOTH",
"341 618 OFFCURVE",
"327 608 OFFCURVE",
"327 554 CURVE SMOOTH",
"327 502 LINE",
"120 502 LINE SMOOTH",
"88 502 OFFCURVE",
"80 485 OFFCURVE",
"80 455 CURVE"
);
}
);
width = 419;
}
);
unicode = 0491;
},
{
glyphname = "de-cy";
lastChange = "2016-08-03 16:49:19 +0000";
layers = (
{
layerId = UUID0;
paths = (
{
closed = 1;
nodes = (
"32 47 LINE",
"13 47 OFFCURVE",
"0 39 OFFCURVE",
"0 16 CURVE SMOOTH",
"0 -77 LINE SMOOTH",
"0 -104 OFFCURVE",
"8 -119 OFFCURVE",
"37 -119 CURVE SMOOTH",
"78 -119 OFFCURVE",
"92 -109 OFFCURVE",
"92 -55 CURVE SMOOTH",
"92 0 LINE",
"442 0 LINE",
"442 -55 LINE SMOOTH",
"442 -109 OFFCURVE",
"456 -119 OFFCURVE",
"497 -119 CURVE SMOOTH",
"526 -119 OFFCURVE",
"534 -104 OFFCURVE",
"534 -77 CURVE SMOOTH",
"534 16 LINE SMOOTH",
"534 39 OFFCURVE",
"521 47 OFFCURVE",
"502 47 CURVE SMOOTH",
"458 47 LINE",
"458 455 LINE SMOOTH",
"458 485 OFFCURVE",
"450 502 OFFCURVE",
"418 502 CURVE SMOOTH",
"169 502 LINE SMOOTH",
"137 502 OFFCURVE",
"128 486 OFFCURVE",
"128 455 CURVE SMOOTH",
"128 356 LINE SMOOTH",
"128 182 OFFCURVE",
"103 103 OFFCURVE",
"61 47 CURVE"
);
},
{
closed = 1;
nodes = (
"135 47 LINE",
"176 120 OFFCURVE",
"194 206 OFFCURVE",
"194 356 CURVE SMOOTH",
"194 455 LINE",
"354 455 LINE",
"354 47 LINE"
);
}
);
width = 549;
}
);
unicode = 0434;
},
{
glyphname = "ie-cy";
lastChange = "2016-08-03 16:49:19 +0000";
layers = (
{
layerId = UUID0;
paths = (
{
closed = 1;
nodes = (
"411 97 OFFCURVE",
"378 44 OFFCURVE",
"297 44 CURVE SMOOTH",
"198 44 OFFCURVE",
"158 121 OFFCURVE",
"158 230 CURVE SMOOTH",
"158 237 OFFCURVE",
"158 244 OFFCURVE",
"159 252 CURVE",
"428 252 LINE SMOOTH",
"454 252 OFFCURVE",
"485 260 OFFCURVE",
"485 301 CURVE SMOOTH",
"485 434 OFFCURVE",
"402 502 OFFCURVE",
"284 502 CURVE SMOOTH",
"132 502 OFFCURVE",
"50 410 OFFCURVE",
"50 239 CURVE SMOOTH",
"50 94 OFFCURVE",
"126 0 OFFCURVE",
"286 0 CURVE SMOOTH",
"376 0 OFFCURVE",
"433 36 OFFCURVE",
"470 82 CURVE SMOOTH",
"479 93 OFFCURVE",
"483 102 OFFCURVE",
"483 116 CURVE SMOOTH",
"483 129 OFFCURVE",
"471 137 OFFCURVE",
"460 137 CURVE SMOOTH",
"450 137 OFFCURVE",
"442 134 OFFCURVE",
"435 126 CURVE SMOOTH"
);
},
{
closed = 1;
nodes = (
"329 462 OFFCURVE",
"383 419 OFFCURVE",
"383 323 CURVE SMOOTH",
"383 300 OFFCURVE",
"371 294 OFFCURVE",
"349 294 CURVE SMOOTH",
"162 294 LINE",
"171 414 OFFCURVE",
"217 462 OFFCURVE",
"278 462 CURVE SMOOTH"
);
}
);
width = 525;
}
);
unicode = 0435;
},
{
glyphname = "io-cy";
lastChange = "2016-08-03 16:49:19 +0000";
layers = (
{
layerId = UUID0;
paths = (
{
closed = 1;
nodes = (
"411 97 OFFCURVE",
"378 44 OFFCURVE",
"297 44 CURVE SMOOTH",
"198 44 OFFCURVE",
"158 121 OFFCURVE",
"158 230 CURVE SMOOTH",
"158 237 OFFCURVE",
"158 244 OFFCURVE",
"159 252 CURVE",
"428 252 LINE SMOOTH",
"454 252 OFFCURVE",
"485 260 OFFCURVE",
"485 301 CURVE SMOOTH",
"485 434 OFFCURVE",
"402 502 OFFCURVE",
"284 502 CURVE SMOOTH",
"132 502 OFFCURVE",
"50 410 OFFCURVE",
"50 239 CURVE SMOOTH",
"50 94 OFFCURVE",
"126 0 OFFCURVE",
"286 0 CURVE SMOOTH",
"376 0 OFFCURVE",
"433 36 OFFCURVE",
"470 82 CURVE SMOOTH",
"479 93 OFFCURVE",
"483 102 OFFCURVE",
"483 116 CURVE SMOOTH",
"483 129 OFFCURVE",
"471 137 OFFCURVE",
"460 137 CURVE SMOOTH",
"450 137 OFFCURVE",
"442 134 OFFCURVE",
"435 126 CURVE SMOOTH"
);
},
{
closed = 1;
nodes = (
"329 462 OFFCURVE",
"383 419 OFFCURVE",
"383 323 CURVE SMOOTH",
"383 300 OFFCURVE",
"371 294 OFFCURVE",
"349 294 CURVE SMOOTH",
"162 294 LINE",
"171 414 OFFCURVE",
"217 462 OFFCURVE",
"278 462 CURVE SMOOTH"
);
},
{
closed = 1;
nodes = (
"114 595 OFFCURVE",
"142 567 OFFCURVE",
"175 567 CURVE SMOOTH",
"208 567 OFFCURVE",
"236 595 OFFCURVE",
"236 628 CURVE SMOOTH",
"236 661 OFFCURVE",
"208 689 OFFCURVE",
"175 689 CURVE SMOOTH",
"142 689 OFFCURVE",
"114 661 OFFCURVE",
"114 628 CURVE SMOOTH"
);
},
{
closed = 1;
nodes = (
"310 595 OFFCURVE",
"338 567 OFFCURVE",
"371 567 CURVE SMOOTH",
"404 567 OFFCURVE",
"432 595 OFFCURVE",
"432 628 CURVE SMOOTH",
"432 661 OFFCURVE",
"404 689 OFFCURVE",
"371 689 CURVE SMOOTH",
"338 689 OFFCURVE",
"310 661 OFFCURVE",
"310 628 CURVE SMOOTH"
);
}
);
width = 525;
}
);
unicode = 0451;
},
{
glyphname = "zhe-cy";
lastChange = "2016-08-03 16:49:19 +0000";
layers = (
{
layerId = UUID0;
paths = (
{
closed = 1;
nodes = (
"320 285 LINE",
"291 285 LINE",
"133 461 LINE SMOOTH",
"105 492 OFFCURVE",
"83 502 OFFCURVE",
"60 502 CURVE SMOOTH",
"40 502 OFFCURVE",
"32 491 OFFCURVE",
"32 477 CURVE SMOOTH",
"32 442 OFFCURVE",
"96 418 OFFCURVE",
"155 356 CURVE SMOOTH",
"184 326 OFFCURVE",
"199 308 OFFCURVE",
"226 281 CURVE",
"37 51 LINE SMOOTH",
"26 39 OFFCURVE",
"20 28 OFFCURVE",
"20 19 CURVE SMOOTH",
"20 9 OFFCURVE",
"24 0 OFFCURVE",
"67 0 CURVE SMOOTH",
"113 0 OFFCURVE",
"127 12 OFFCURVE",
"141 31 CURVE SMOOTH",
"299 240 LINE",
"320 240 LINE",
"320 47 LINE SMOOTH",
"320 17 OFFCURVE",
"328 0 OFFCURVE",
"369 0 CURVE SMOOTH",
"402 0 OFFCURVE",
"421 11 OFFCURVE",
"421 61 CURVE SMOOTH",
"421 240 LINE",
"442 240 LINE",
"600 31 LINE SMOOTH",
"614 12 OFFCURVE",
"628 0 OFFCURVE",
"674 0 CURVE SMOOTH",
"717 0 OFFCURVE",
"721 9 OFFCURVE",
"721 19 CURVE SMOOTH",
"721 28 OFFCURVE",
"715 39 OFFCURVE",
"704 51 CURVE SMOOTH",
"515 281 LINE",
"542 308 OFFCURVE",
"557 326 OFFCURVE",
"586 356 CURVE SMOOTH",
"645 418 OFFCURVE",
"709 442 OFFCURVE",
"709 477 CURVE SMOOTH",
"709 491 OFFCURVE",
"701 502 OFFCURVE",
"681 502 CURVE SMOOTH",
"658 502 OFFCURVE",
"636 492 OFFCURVE",
"608 461 CURVE SMOOTH",
"450 285 LINE",
"421 285 LINE",
"421 441 LINE SMOOTH",
"421 495 OFFCURVE",
"402 502 OFFCURVE",
"369 502 CURVE SMOOTH",
"328 502 OFFCURVE",
"320 480 OFFCURVE",
"320 455 CURVE SMOOTH"
);
}
);
width = 741;
}
);
unicode = 0436;
},
{
glyphname = "ze-cy";
lastChange = "2016-08-03 16:49:19 +0000";
layers = (
{
layerId = UUID0;
paths = (
{
closed = 1;
nodes = (
"104 121 OFFCURVE",
"88 139 OFFCURVE",
"59 139 CURVE SMOOTH",
"41 139 OFFCURVE",
"20 124 OFFCURVE",
"20 102 CURVE SMOOTH",
"20 70 OFFCURVE",
"44 50 OFFCURVE",
"69 34 CURVE SMOOTH",
"98 16 OFFCURVE",
"148 0 OFFCURVE",
"208 0 CURVE SMOOTH",
"365 0 OFFCURVE",
"436 60 OFFCURVE",
"436 147 CURVE SMOOTH",
"436 211 OFFCURVE",
"388 255 OFFCURVE",
"309 260 CURVE",
"309 264 LINE",
"390 281 OFFCURVE",
"423 330 OFFCURVE",
"423 382 CURVE SMOOTH",
"423 457 OFFCURVE",
"364 502 OFFCURVE",
"226 502 CURVE SMOOTH",
"185 502 OFFCURVE",
"122 490 OFFCURVE",
"92 473 CURVE SMOOTH",
"65 458 OFFCURVE",
"38 438 OFFCURVE",
"38 406 CURVE SMOOTH",
"38 384 OFFCURVE",
"54 370 OFFCURVE",
"74 370 CURVE SMOOTH",
"103 370 OFFCURVE",
"117 386 OFFCURVE",
"130 408 CURVE SMOOTH",
"146 435 OFFCURVE",
"172 462 OFFCURVE",
"225 462 CURVE SMOOTH",
"283 462 OFFCURVE",
"318 430 OFFCURVE",
"318 379 CURVE SMOOTH",
"318 316 OFFCURVE",
"279 282 OFFCURVE",
"213 282 CURVE SMOOTH",
"151 282 LINE SMOOTH",
"136 282 OFFCURVE",
"132 271 OFFCURVE",
"132 261 CURVE SMOOTH",
"132 250 OFFCURVE",
"137 236 OFFCURVE",
"151 236 CURVE SMOOTH",
"211 236 LINE SMOOTH",
"267 236 OFFCURVE",
"328 219 OFFCURVE",
"328 145 CURVE SMOOTH",
"328 70 OFFCURVE",
"286 40 OFFCURVE",
"217 40 CURVE SMOOTH",
"150 40 OFFCURVE",
"127 70 OFFCURVE",
"114 99 CURVE SMOOTH"
);
}
);
width = 475;
}
);
unicode = 0437;
},
{
glyphname = "ii-cy";
lastChange = "2016-08-03 16:49:19 +0000";
layers = (
{
layerId = UUID0;
paths = (
{
closed = 1;
nodes = (
"507 455 LINE",
"507 485 OFFCURVE",
"499 502 OFFCURVE",
"467 502 CURVE SMOOTH",
"436 502 OFFCURVE",
"423 494 OFFCURVE",
"409 472 CURVE SMOOTH",
"184 130 LINE",
"184 420 LINE SMOOTH",
"184 480 OFFCURVE",
"164 502 OFFCURVE",
"120 502 CURVE SMOOTH",
"88 502 OFFCURVE",
"80 485 OFFCURVE",
"80 455 CURVE SMOOTH",
"80 47 LINE SMOOTH",
"80 17 OFFCURVE",
"88 0 OFFCURVE",
"120 0 CURVE SMOOTH",
"149 0 OFFCURVE",
"165 7 OFFCURVE",
"177 26 CURVE SMOOTH",
"403 368 LINE",
"403 82 LINE SMOOTH",
"403 22 OFFCURVE",
"423 0 OFFCURVE",
"467 0 CURVE SMOOTH",
"499 0 OFFCURVE",
"507 17 OFFCURVE",
"507 47 CURVE SMOOTH"
);
}
);
width = 587;
}
);
unicode = 0438;
},
{
glyphname = "iishort-cy";
lastChange = "2016-08-03 16:49:19 +0000";
layers = (
{
layerId = UUID0;
paths = (
{
closed = 1;
nodes = (
"507 455 LINE",
"507 485 OFFCURVE",
"499 502 OFFCURVE",
"467 502 CURVE SMOOTH",
"436 502 OFFCURVE",
"423 494 OFFCURVE",
"409 472 CURVE SMOOTH",
"184 130 LINE",
"184 420 LINE SMOOTH",
"184 480 OFFCURVE",
"164 502 OFFCURVE",
"120 502 CURVE SMOOTH",
"88 502 OFFCURVE",
"80 485 OFFCURVE",
"80 455 CURVE SMOOTH",
"80 47 LINE SMOOTH",
"80 17 OFFCURVE",
"88 0 OFFCURVE",
"120 0 CURVE SMOOTH",
"149 0 OFFCURVE",
"164 7 OFFCURVE",
"177 26 CURVE SMOOTH",
"403 368 LINE",
"403 82 LINE SMOOTH",
"403 22 OFFCURVE",
"423 0 OFFCURVE",
"467 0 CURVE SMOOTH",
"499 0 OFFCURVE",
"507 17 OFFCURVE",
"507 47 CURVE SMOOTH"
);
},
{
closed = 1;
nodes = (
"346 619 OFFCURVE",
"333 594 OFFCURVE",
"292 594 CURVE SMOOTH",
"252 594 OFFCURVE",
"240 619 OFFCURVE",
"235 651 CURVE SMOOTH",
"229 684 OFFCURVE",
"203 696 OFFCURVE",
"177 696 CURVE SMOOTH",
"156 696 OFFCURVE",
"133 681 OFFCURVE",
"133 653 CURVE SMOOTH",
"133 597 OFFCURVE",
"190 556 OFFCURVE",
"292 556 CURVE SMOOTH",
"396 556 OFFCURVE",
"453 597 OFFCURVE",
"453 652 CURVE SMOOTH",
"453 681 OFFCURVE",
"430 696 OFFCURVE",
"410 696 CURVE SMOOTH",
"383 696 OFFCURVE",
"357 684 OFFCURVE",
"351 651 CURVE SMOOTH"
);
}
);
width = 587;
}
);
unicode = 0439;
},
{
glyphname = "ka-cy";
lastChange = "2016-08-03 16:49:19 +0000";
layers = (
{
layerId = UUID0;
paths = (
{
closed = 1;
nodes = (
"184 420 LINE",
"184 480 OFFCURVE",
"164 502 OFFCURVE",
"120 502 CURVE SMOOTH",
"88 502 OFFCURVE",
"80 485 OFFCURVE",
"80 455 CURVE SMOOTH",
"80 47 LINE SMOOTH",
"80 17 OFFCURVE",
"88 0 OFFCURVE",
"120 0 CURVE SMOOTH",
"164 0 OFFCURVE",
"184 11 OFFCURVE",
"184 71 CURVE SMOOTH",
"184 240 LINE",
"208 240 LINE",
"374 31 LINE SMOOTH",
"389 12 OFFCURVE",
"402 0 OFFCURVE",
"450 0 CURVE SMOOTH",
"494 0 OFFCURVE",
"498 9 OFFCURVE",
"498 19 CURVE SMOOTH",
"498 28 OFFCURVE",
"491 38 OFFCURVE",
"480 51 CURVE SMOOTH",
"283 283 LINE",
"312 310 OFFCURVE",
"336 333 OFFCURVE",
"367 360 CURVE SMOOTH",
"435 418 OFFCURVE",
"494 436 OFFCURVE",
"494 477 CURVE SMOOTH",
"494 491 OFFCURVE",
"486 502 OFFCURVE",
"466 502 CURVE SMOOTH",
"442 502 OFFCURVE",
"422 490 OFFCURVE",
"392 461 CURVE SMOOTH",
"217 287 LINE",
"184 287 LINE"
);
}
);
width = 518;
}
);
unicode = 043A;
},
{
glyphname = "el-cy";
lastChange = "2016-08-03 16:49:19 +0000";
layers = (
{
layerId = UUID0;
paths = (
{
closed = 1;
nodes = (
"480 455 LINE",
"480 485 OFFCURVE",
"472 502 OFFCURVE",
"440 502 CURVE SMOOTH",
"192 502 LINE SMOOTH",
"156 502 OFFCURVE",
"150 483 OFFCURVE",
"150 455 CURVE SMOOTH",
"150 356 LINE SMOOTH",
"150 213 OFFCURVE",
"146 103 OFFCURVE",
"53 82 CURVE SMOOTH",
"29 77 OFFCURVE",
"10 56 OFFCURVE",
"10 39 CURVE SMOOTH",
"10 11 OFFCURVE",
"29 0 OFFCURVE",
"53 0 CURVE SMOOTH",
"103 0 OFFCURVE",
"134 28 OFFCURVE",
"161 69 CURVE SMOOTH",
"205 137 OFFCURVE",
"216 237 OFFCURVE",
"216 350 CURVE SMOOTH",
"216 455 LINE",
"376 455 LINE",
"376 82 LINE SMOOTH",
"376 22 OFFCURVE",
"396 0 OFFCURVE",
"440 0 CURVE SMOOTH",
"472 0 OFFCURVE",
"480 17 OFFCURVE",
"480 47 CURVE SMOOTH"
);
}
);
width = 560;
}
);
unicode = 043B;
},
{
glyphname = "em-cy";
lastChange = "2016-08-03 16:49:19 +0000";
layers = (
{
layerId = UUID0;
paths = (
{
closed = 1;
nodes = (
"80 43 LINE",
"80 17 OFFCURVE",
"88 0 OFFCURVE",
"114 0 CURVE SMOOTH",
"148 0 OFFCURVE",
"152 22 OFFCURVE",
"152 82 CURVE SMOOTH",
"152 342 LINE",
"156 342 LINE",
"295 27 LINE SMOOTH",
"304 7 OFFCURVE",
"317 0 OFFCURVE",
"335 0 CURVE SMOOTH",
"351 0 OFFCURVE",
"366 6 OFFCURVE",
"377 32 CURVE SMOOTH",
"504 320 LINE",
"508 320 LINE",
"508 82 LINE SMOOTH",
"508 22 OFFCURVE",
"528 0 OFFCURVE",
"572 0 CURVE SMOOTH",
"604 0 OFFCURVE",
"612 17 OFFCURVE",
"612 47 CURVE SMOOTH",
"612 455 LINE SMOOTH",
"612 485 OFFCURVE",
"604 502 OFFCURVE",
"572 502 CURVE SMOOTH",
"541 502 OFFCURVE",
"515 493 OFFCURVE",
"506 472 CURVE SMOOTH",
"351 108 LINE",
"349 108 LINE",
"194 472 LINE SMOOTH",
"180 494 OFFCURVE",
"166 502 OFFCURVE",
"124 502 CURVE SMOOTH",
"92 502 OFFCURVE",
"80 485 OFFCURVE",
"80 455 CURVE SMOOTH"
);
}
);
width = 692;
}
);
unicode = 043C;
},
{
glyphname = "en-cy";
lastChange = "2016-08-03 16:49:19 +0000";
layers = (
{
layerId = UUID0;
paths = (
{
closed = 1;
nodes = (
"507 455 LINE",
"507 485 OFFCURVE",
"499 502 OFFCURVE",
"467 502 CURVE SMOOTH",
"423 502 OFFCURVE",
"403 490 OFFCURVE",
"403 430 CURVE SMOOTH",
"403 282 LINE",
"184 282 LINE",
"184 420 LINE SMOOTH",
"184 480 OFFCURVE",
"164 502 OFFCURVE",
"120 502 CURVE SMOOTH",
"88 502 OFFCURVE",
"80 485 OFFCURVE",
"80 455 CURVE SMOOTH",
"80 47 LINE SMOOTH",
"80 17 OFFCURVE",
"88 0 OFFCURVE",
"120 0 CURVE SMOOTH",
"164 0 OFFCURVE",
"184 11 OFFCURVE",
"184 71 CURVE SMOOTH",
"184 233 LINE",
"403 233 LINE",
"403 82 LINE SMOOTH",
"403 22 OFFCURVE",
"423 0 OFFCURVE",
"467 0 CURVE SMOOTH",
"499 0 OFFCURVE",
"507 17 OFFCURVE",
"507 47 CURVE SMOOTH"
);
}
);
width = 587;
}
);
unicode = 043D;
},
{
glyphname = "o-cy";
lastChange = "2016-08-03 16:49:19 +0000";
layers = (
{
layerId = UUID0;
paths = (
{
closed = 1;
nodes = (
"421 0 OFFCURVE",
"508 80 OFFCURVE",
"508 251 CURVE SMOOTH",
"508 426 OFFCURVE",
"416 502 OFFCURVE",
"279 502 CURVE SMOOTH",
"143 502 OFFCURVE",
"50 426 OFFCURVE",
"50 251 CURVE SMOOTH",
"50 80 OFFCURVE",
"137 0 OFFCURVE",
"279 0 CURVE SMOOTH"
);
},
{
closed = 1;
nodes = (
"208 40 OFFCURVE",
"158 82 OFFCURVE",
"158 251 CURVE SMOOTH",
"158 420 OFFCURVE",
"213 462 OFFCURVE",
"279 462 CURVE SMOOTH",
"347 462 OFFCURVE",
"400 420 OFFCURVE",
"400 251 CURVE SMOOTH",
"400 80 OFFCURVE",
"350 40 OFFCURVE",
"279 40 CURVE SMOOTH"
);
}
);
width = 558;
}
);
unicode = 043E;
},
{
glyphname = "pe-cy";
lastChange = "2016-08-03 16:49:19 +0000";
layers = (
{
layerId = UUID0;
paths = (
{
closed = 1;
nodes = (
"504 455 LINE",
"504 485 OFFCURVE",
"496 502 OFFCURVE",
"464 502 CURVE",
"120 502 LINE",
"88 502 OFFCURVE",
"80 485 OFFCURVE",
"80 455 CURVE SMOOTH",
"80 47 LINE SMOOTH",
"80 17 OFFCURVE",
"88 0 OFFCURVE",
"120 0 CURVE SMOOTH",
"164 0 OFFCURVE",
"184 11 OFFCURVE",
"184 71 CURVE SMOOTH",
"184 455 LINE",
"400 455 LINE",
"400 82 LINE SMOOTH",
"400 22 OFFCURVE",
"420 0 OFFCURVE",
"464 0 CURVE SMOOTH",
"496 0 OFFCURVE",
"504 17 OFFCURVE",
"504 47 CURVE SMOOTH"
);
}
);
width = 584;
}
);
unicode = 043F;
},
{
glyphname = "er-cy";
lastChange = "2016-08-03 16:49:19 +0000";
layers = (
{
layerId = UUID0;
paths = (
{
closed = 1;
nodes = (
"80 -173 LINE",
"80 -203 OFFCURVE",
"88 -220 OFFCURVE",
"120 -220 CURVE SMOOTH",
"164 -220 OFFCURVE",
"184 -209 OFFCURVE",
"184 -149 CURVE SMOOTH",
"184 19 LINE",
"210 7 OFFCURVE",
"243 0 OFFCURVE",
"275 0 CURVE SMOOTH",
"421 0 OFFCURVE",
"513 89 OFFCURVE",
"513 276 CURVE SMOOTH",
"513 458 OFFCURVE",
"430 502 OFFCURVE",
"342 502 CURVE SMOOTH",
"259 502 OFFCURVE",
"215 461 OFFCURVE",
"183 408 CURVE",
"182 408 LINE",
"182 416 LINE",
"181 476 OFFCURVE",
"161 502 OFFCURVE",
"119 502 CURVE SMOOTH",
"96 502 OFFCURVE",
"80 492 OFFCURVE",
"80 459 CURVE SMOOTH"
);
},
{
closed = 1;
nodes = (
"405 95 OFFCURVE",
"353 40 OFFCURVE",
"275 40 CURVE SMOOTH",
"215 40 OFFCURVE",
"183 74 OFFCURVE",
"183 101 CURVE SMOOTH",
"183 318 LINE SMOOTH",
"183 377 OFFCURVE",
"247 435 OFFCURVE",
"302 435 CURVE SMOOTH",
"359 435 OFFCURVE",
"405 404 OFFCURVE",
"405 268 CURVE SMOOTH"
);
}
);
width = 566;
}
);
unicode = 0440;
},
{
glyphname = "es-cy";
lastChange = "2016-08-03 16:49:19 +0000";
layers = (
{
layerId = UUID0;
paths = (
{
closed = 1;
nodes = (
"398 97 OFFCURVE",
"368 44 OFFCURVE",
"287 44 CURVE SMOOTH",
"190 44 OFFCURVE",
"158 119 OFFCURVE",
"158 250 CURVE SMOOTH",
"158 412 OFFCURVE",
"202 462 OFFCURVE",
"285 462 CURVE SMOOTH",
"334 462 OFFCURVE",
"352 430 OFFCURVE",
"363 398 CURVE SMOOTH",
"372 372 OFFCURVE",
"386 356 OFFCURVE",
"417 356 CURVE SMOOTH",
"436 356 OFFCURVE",
"459 370 OFFCURVE",
"459 395 CURVE SMOOTH",
"459 429 OFFCURVE",
"432 455 OFFCURVE",
"404 472 CURVE SMOOTH",
"370 492 OFFCURVE",
"332 502 OFFCURVE",
"287 502 CURVE SMOOTH",
"155 502 OFFCURVE",
"50 435 OFFCURVE",
"50 250 CURVE SMOOTH",
"50 107 OFFCURVE",
"109 0 OFFCURVE",
"276 0 CURVE SMOOTH",
"366 0 OFFCURVE",
"420 36 OFFCURVE",
"457 82 CURVE SMOOTH",
"466 93 OFFCURVE",
"470 102 OFFCURVE",
"470 116 CURVE SMOOTH",
"470 129 OFFCURVE",
"458 137 OFFCURVE",
"447 137 CURVE SMOOTH",
"437 137 OFFCURVE",
"429 134 OFFCURVE",
"422 126 CURVE SMOOTH"
);
}
);
width = 490;
}
);
unicode = 0441;
},
{
glyphname = "te-cy";
lastChange = "2016-08-03 16:49:19 +0000";
layers = (
{
layerId = UUID0;
paths = (
{
closed = 1;
nodes = (
"391 455 LINE",
"391 418 LINE SMOOTH",
"391 364 OFFCURVE",
"405 354 OFFCURVE",
"446 354 CURVE SMOOTH",
"475 354 OFFCURVE",
"483 369 OFFCURVE",
"483 396 CURVE SMOOTH",
"483 471 LINE SMOOTH",
"483 494 OFFCURVE",
"470 502 OFFCURVE",
"451 502 CURVE SMOOTH",
"45 502 LINE SMOOTH",
"26 502 OFFCURVE",
"13 494 OFFCURVE",
"13 471 CURVE SMOOTH",
"13 396 LINE SMOOTH",
"13 369 OFFCURVE",
"21 354 OFFCURVE",
"50 354 CURVE SMOOTH",
"91 354 OFFCURVE",
"105 364 OFFCURVE",
"105 418 CURVE SMOOTH",
"105 455 LINE",
"195 455 LINE",
"195 47 LINE SMOOTH",
"195 17 OFFCURVE",
"203 0 OFFCURVE",
"242 0 CURVE SMOOTH",
"279 0 OFFCURVE",
"299 8 OFFCURVE",
"299 65 CURVE SMOOTH",
"299 455 LINE"
);
}
);
width = 496;
}
);
unicode = 0442;
},
{
glyphname = "u-cy";
lastChange = "2016-08-03 16:49:19 +0000";
layers = (
{
layerId = UUID0;
paths = (
{
closed = 1;
nodes = (
"477 452 LINE",
"480 461 OFFCURVE",
"482 467 OFFCURVE",
"482 479 CURVE SMOOTH",
"482 496 OFFCURVE",
"467 502 OFFCURVE",
"450 502 CURVE SMOOTH",
"414 502 OFFCURVE",
"401 471 OFFCURVE",
"392 439 CURVE SMOOTH",
"378 389 OFFCURVE",
"369 353 OFFCURVE",
"345 283 CURVE SMOOTH",
"285 108 LINE",
"280 108 LINE",
"149 435 LINE SMOOTH",
"130 483 OFFCURVE",
"98 502 OFFCURVE",
"67 502 CURVE SMOOTH",
"49 502 OFFCURVE",
"30 498 OFFCURVE",
"30 475 CURVE SMOOTH",
"30 469 OFFCURVE",
"31 461 OFFCURVE",
"35 452 CURVE SMOOTH",
"233 -9 LINE",
"221 -47 OFFCURVE",
"209 -77 OFFCURVE",
"191 -102 CURVE SMOOTH",
"172 -128 OFFCURVE",
"142 -139 OFFCURVE",
"105 -139 CURVE SMOOTH",
"73 -139 OFFCURVE",
"51 -151 OFFCURVE",
"51 -184 CURVE SMOOTH",
"51 -204 OFFCURVE",
"72 -220 OFFCURVE",
"99 -220 CURVE SMOOTH",
"201 -220 OFFCURVE",
"265 -92 OFFCURVE",
"304 8 CURVE SMOOTH"
);
}
);
width = 512;
}
);
unicode = 0443;
},
{
glyphname = "ef-cy";
lastChange = "2016-08-03 16:49:19 +0000";
layers = (
{
layerId = UUID0;
paths = (
{
closed = 1;
nodes = (
"435 691 LINE",
"435 751 OFFCURVE",
"416 760 OFFCURVE",
"379 760 CURVE SMOOTH",
"340 760 OFFCURVE",
"332 743 OFFCURVE",
"332 713 CURVE SMOOTH",
"332 449 LINE",
"331 449 LINE",
"305 494 OFFCURVE",
"265 502 OFFCURVE",
"222 502 CURVE SMOOTH",
"145 502 OFFCURVE",
"53 439 OFFCURVE",
"53 247 CURVE SMOOTH",
"53 78 OFFCURVE",
"115 0 OFFCURVE",
"218 0 CURVE SMOOTH",
"263 0 OFFCURVE",
"305 13 OFFCURVE",
"332 44 CURVE",
"332 -173 LINE SMOOTH",
"332 -203 OFFCURVE",
"340 -220 OFFCURVE",
"380 -220 CURVE SMOOTH",
"416 -220 OFFCURVE",
"435 -209 OFFCURVE",
"435 -157 CURVE SMOOTH",
"435 34 LINE",
"462 8 OFFCURVE",
"494 0 OFFCURVE",
"526 0 CURVE SMOOTH",
"637 0 OFFCURVE",
"714 91 OFFCURVE",
"714 262 CURVE SMOOTH",
"714 459 OFFCURVE",
"632 502 OFFCURVE",
"552 502 CURVE SMOOTH",
"512 502 OFFCURVE",
"466 485 OFFCURVE",
"436 442 CURVE",
"435 442 LINE"
);
},
{
closed = 1;
nodes = (
"333 122 LINE",
"333 86 OFFCURVE",
"290 47 OFFCURVE",
"252 47 CURVE SMOOTH",
"177 47 OFFCURVE",
"157 116 OFFCURVE",
"157 247 CURVE SMOOTH",
"157 371 OFFCURVE",
"187 434 OFFCURVE",
"256 434 CURVE SMOOTH",
"295 434 OFFCURVE",
"333 419 OFFCURVE",
"333 360 CURVE SMOOTH"
);
},
{
closed = 1;
nodes = (
"434 350 LINE",
"434 412 OFFCURVE",
"474 434 OFFCURVE",
"518 434 CURVE SMOOTH",
"585 434 OFFCURVE",
"610 375 OFFCURVE",
"610 254 CURVE SMOOTH",
"610 113 OFFCURVE",
"580 47 OFFCURVE",
"510 47 CURVE SMOOTH",
"470 47 OFFCURVE",
"434 72 OFFCURVE",
"434 120 CURVE SMOOTH"
);
}
);
width = 767;
}
);
unicode = 0444;
},
{
glyphname = "ha-cy";
lastChange = "2016-08-03 16:49:19 +0000";
layers = (
{
layerId = UUID0;
paths = (
{
closed = 1;
nodes = (
"48 50 LINE",
"41 41 OFFCURVE",
"35 30 OFFCURVE",
"35 20 CURVE SMOOTH",
"35 7 OFFCURVE",
"46 0 OFFCURVE",
"62 0 CURVE SMOOTH",
"91 0 OFFCURVE",
"106 7 OFFCURVE",
"120 29 CURVE SMOOTH",
"233 199 LINE",
"235 199 LINE",
"332 48 LINE SMOOTH",
"349 21 OFFCURVE",
"363 0 OFFCURVE",
"411 0 CURVE SMOOTH",
"439 0 OFFCURVE",
"448 12 OFFCURVE",
"448 26 CURVE SMOOTH",
"448 33 OFFCURVE",
"444 42 OFFCURVE",
"436 55 CURVE SMOOTH",
"296 267 LINE",
"429 452 LINE SMOOTH",
"435 462 OFFCURVE",
"440 473 OFFCURVE",
"440 483 CURVE SMOOTH",
"440 496 OFFCURVE",
"429 502 OFFCURVE",
"415 502 CURVE SMOOTH",
"388 502 OFFCURVE",
"374 495 OFFCURVE",
"358 469 CURVE SMOOTH",
"258 307 LINE",
"254 307 LINE",
"167 452 LINE SMOOTH",
"148 485 OFFCURVE",
"127 502 OFFCURVE",
"85 502 CURVE SMOOTH",
"71 502 OFFCURVE",
"53 496 OFFCURVE",
"53 478 CURVE SMOOTH",
"53 469 OFFCURVE",
"56 456 OFFCURVE",
"67 439 CURVE SMOOTH",
"194 244 LINE"
);
}
);
width = 483;
}
);
unicode = 0445;
},
{
glyphname = "che-cy";
lastChange = "2016-08-03 16:49:19 +0000";
layers = (
{
layerId = UUID0;
paths = (
{
closed = 1;
nodes = (
"150 420 LINE",
"150 480 OFFCURVE",
"134 502 OFFCURVE",
"90 502 CURVE SMOOTH",
"58 502 OFFCURVE",
"50 485 OFFCURVE",
"50 455 CURVE SMOOTH",
"50 300 LINE SMOOTH",
"50 210 OFFCURVE",
"92 166 OFFCURVE",
"200 166 CURVE SMOOTH",
"251 166 OFFCURVE",
"313 180 OFFCURVE",
"347 197 CURVE",
"347 82 LINE SMOOTH",
"347 22 OFFCURVE",
"367 0 OFFCURVE",
"411 0 CURVE SMOOTH",
"443 0 OFFCURVE",
"451 17 OFFCURVE",
"451 47 CURVE SMOOTH",
"451 455 LINE SMOOTH",
"451 485 OFFCURVE",
"443 502 OFFCURVE",
"411 502 CURVE SMOOTH",
"367 502 OFFCURVE",
"347 490 OFFCURVE",
"347 430 CURVE SMOOTH",
"347 240 LINE",
"320 226 OFFCURVE",
"283 216 OFFCURVE",
"236 216 CURVE SMOOTH",
"173 216 OFFCURVE",
"150 247 OFFCURVE",
"150 308 CURVE SMOOTH"
);
}
);
width = 531;
}
);
unicode = 0447;
},
{
glyphname = "tse-cy";
lastChange = "2016-08-03 16:49:19 +0000";
layers = (
{
layerId = UUID0;
paths = (
{
closed = 1;
nodes = (
"471 0 LINE",
"471 -55 LINE SMOOTH",
"471 -109 OFFCURVE",
"485 -119 OFFCURVE",
"526 -119 CURVE SMOOTH",
"555 -119 OFFCURVE",
"563 -104 OFFCURVE",
"563 -77 CURVE SMOOTH",
"563 16 LINE SMOOTH",
"563 39 OFFCURVE",
"550 47 OFFCURVE",
"531 47 CURVE SMOOTH",
"487 47 LINE",
"487 455 LINE SMOOTH",
"487 485 OFFCURVE",
"479 502 OFFCURVE",
"447 502 CURVE SMOOTH",
"403 502 OFFCURVE",
"383 491 OFFCURVE",
"383 431 CURVE SMOOTH",
"383 47 LINE",
"184 47 LINE",
"184 420 LINE SMOOTH",
"184 480 OFFCURVE",
"164 502 OFFCURVE",
"120 502 CURVE SMOOTH",
"88 502 OFFCURVE",
"80 485 OFFCURVE",
"80 455 CURVE SMOOTH",
"80 47 LINE SMOOTH",
"80 17 OFFCURVE",
"88 0 OFFCURVE",
"120 0 CURVE SMOOTH"
);
}
);
width = 578;
}
);
unicode = 0446;
},
{
glyphname = "sha-cy";
lastChange = "2016-08-03 16:49:19 +0000";
layers = (
{
layerId = UUID0;
paths = (
{
closed = 1;
nodes = (
"661 0 LINE",
"693 0 OFFCURVE",
"701 17 OFFCURVE",
"701 47 CURVE SMOOTH",
"701 455 LINE SMOOTH",
"701 485 OFFCURVE",
"693 502 OFFCURVE",
"661 502 CURVE SMOOTH",
"617 502 OFFCURVE",
"597 491 OFFCURVE",
"597 431 CURVE SMOOTH",
"597 47 LINE",
"442 47 LINE",
"442 439 LINE SMOOTH",
"442 491 OFFCURVE",
"426 502 OFFCURVE",
"390 502 CURVE SMOOTH",
"358 502 OFFCURVE",
"339 491 OFFCURVE",
"339 439 CURVE SMOOTH",
"339 47 LINE",
"184 47 LINE",
"184 420 LINE SMOOTH",
"184 480 OFFCURVE",
"164 502 OFFCURVE",
"120 502 CURVE SMOOTH",
"88 502 OFFCURVE",
"80 485 OFFCURVE",
"80 455 CURVE SMOOTH",
"80 47 LINE SMOOTH",
"80 17 OFFCURVE",
"88 0 OFFCURVE",
"120 0 CURVE SMOOTH"
);
}
);
width = 781;
}
);
unicode = 0448;
},
{
glyphname = "shcha-cy";
lastChange = "2016-08-03 16:49:19 +0000";
layers = (
{
layerId = UUID0;
paths = (
{
closed = 1;
nodes = (
"685 0 LINE",
"685 -55 LINE SMOOTH",
"685 -109 OFFCURVE",
"699 -119 OFFCURVE",
"740 -119 CURVE SMOOTH",
"769 -119 OFFCURVE",
"777 -104 OFFCURVE",
"777 -77 CURVE SMOOTH",
"777 16 LINE SMOOTH",
"777 39 OFFCURVE",
"764 47 OFFCURVE",
"745 47 CURVE SMOOTH",
"701 47 LINE",
"701 455 LINE SMOOTH",
"701 485 OFFCURVE",
"693 502 OFFCURVE",
"661 502 CURVE SMOOTH",
"617 502 OFFCURVE",
"597 491 OFFCURVE",
"597 431 CURVE SMOOTH",
"597 47 LINE",
"442 47 LINE",
"442 439 LINE SMOOTH",
"442 491 OFFCURVE",
"426 502 OFFCURVE",
"390 502 CURVE SMOOTH",
"358 502 OFFCURVE",
"339 491 OFFCURVE",
"339 439 CURVE SMOOTH",
"339 47 LINE",
"184 47 LINE",
"184 420 LINE SMOOTH",
"184 480 OFFCURVE",
"164 502 OFFCURVE",
"120 502 CURVE SMOOTH",
"88 502 OFFCURVE",
"80 485 OFFCURVE",
"80 455 CURVE SMOOTH",
"80 47 LINE SMOOTH",
"80 17 OFFCURVE",
"88 0 OFFCURVE",
"120 0 CURVE SMOOTH"
);
}
);
width = 792;
}
);
unicode = 0449;
},
{
glyphname = "dzhe-cy";
lastChange = "2016-08-03 16:49:19 +0000";
layers = (
{
layerId = UUID0;
paths = (
{
closed = 1;
nodes = (
"330 -153 OFFCURVE",
"343 -138 OFFCURVE",
"343 -104 CURVE SMOOTH",
"343 0 LINE",
"464 0 LINE SMOOTH",
"496 0 OFFCURVE",
"504 17 OFFCURVE",
"504 47 CURVE SMOOTH",
"504 455 LINE SMOOTH",
"504 485 OFFCURVE",
"496 502 OFFCURVE",
"464 502 CURVE SMOOTH",
"420 502 OFFCURVE",
"400 491 OFFCURVE",
"400 431 CURVE SMOOTH",
"400 47 LINE",
"184 47 LINE",
"184 420 LINE SMOOTH",
"184 480 OFFCURVE",
"164 502 OFFCURVE",
"120 502 CURVE SMOOTH",
"88 502 OFFCURVE",
"80 485 OFFCURVE",
"80 455 CURVE SMOOTH",
"80 47 LINE SMOOTH",
"80 17 OFFCURVE",
"88 0 OFFCURVE",
"120 0 CURVE SMOOTH",
"251 0 LINE",
"251 -105 LINE SMOOTH",
"251 -138 OFFCURVE",
"270 -153 OFFCURVE",
"297 -153 CURVE SMOOTH"
);
}
);
width = 584;
}
);
unicode = 045F;
},
{
glyphname = "softsign-cy";
lastChange = "2016-08-03 16:49:19 +0000";
layers = (
{
layerId = UUID0;
paths = (
{
closed = 1;
nodes = (
"184 420 LINE",
"184 480 OFFCURVE",
"164 502 OFFCURVE",
"120 502 CURVE SMOOTH",
"88 502 OFFCURVE",
"80 485 OFFCURVE",
"80 455 CURVE SMOOTH",
"80 47 LINE SMOOTH",
"80 17 OFFCURVE",
"88 0 OFFCURVE",
"120 0 CURVE SMOOTH",
"249 0 LINE SMOOTH",
"386 0 OFFCURVE",
"464 53 OFFCURVE",
"464 152 CURVE SMOOTH",
"464 239 OFFCURVE",
"414 289 OFFCURVE",
"277 289 CURVE SMOOTH",
"184 289 LINE"
);
},
{
closed = 1;
nodes = (
"183 45 LINE",
"183 244 LINE",
"245 244 LINE SMOOTH",
"310 244 OFFCURVE",
"356 226 OFFCURVE",
"356 148 CURVE SMOOTH",
"356 72 OFFCURVE",
"317 45 OFFCURVE",
"245 45 CURVE SMOOTH"
);
}
);
width = 492;
}
);
unicode = 044C;
},
{
glyphname = "hardsign-cy";
lastChange = "2016-08-03 16:49:19 +0000";
layers = (
{
layerId = UUID0;
paths = (
{
closed = 1;
nodes = (
"45 502 LINE",
"26 502 OFFCURVE",
"13 494 OFFCURVE",
"13 471 CURVE SMOOTH",
"13 398 LINE SMOOTH",
"13 371 OFFCURVE",
"21 356 OFFCURVE",
"50 356 CURVE SMOOTH",
"91 356 OFFCURVE",
"105 366 OFFCURVE",
"105 420 CURVE SMOOTH",
"105 457 LINE",
"188 457 LINE",
"188 47 LINE SMOOTH",
"188 17 OFFCURVE",
"196 0 OFFCURVE",
"228 0 CURVE SMOOTH",
"357 0 LINE SMOOTH",
"494 0 OFFCURVE",
"572 53 OFFCURVE",
"572 152 CURVE SMOOTH",
"572 239 OFFCURVE",
"522 289 OFFCURVE",
"385 289 CURVE SMOOTH",
"292 289 LINE",
"292 460 LINE SMOOTH",
"292 492 OFFCURVE",
"284 502 OFFCURVE",
"252 502 CURVE SMOOTH"
);
},
{
closed = 1;
nodes = (
"291 45 LINE",
"291 244 LINE",
"353 244 LINE SMOOTH",
"418 244 OFFCURVE",
"464 226 OFFCURVE",
"464 148 CURVE SMOOTH",
"464 72 OFFCURVE",
"425 45 OFFCURVE",
"353 45 CURVE SMOOTH"
);
}
);
width = 600;
}
);
unicode = 044A;
},
{
glyphname = "yeru-cy";
lastChange = "2016-08-03 16:49:19 +0000";
layers = (
{
layerId = UUID0;
paths = (
{
closed = 1;
nodes = (
"184 420 LINE",
"184 480 OFFCURVE",
"164 502 OFFCURVE",
"120 502 CURVE SMOOTH",
"88 502 OFFCURVE",
"80 485 OFFCURVE",
"80 455 CURVE SMOOTH",
"80 47 LINE SMOOTH",
"80 17 OFFCURVE",
"88 0 OFFCURVE",
"120 0 CURVE SMOOTH",
"240 0 LINE SMOOTH",
"377 0 OFFCURVE",
"453 53 OFFCURVE",
"453 152 CURVE SMOOTH",
"453 239 OFFCURVE",
"405 289 OFFCURVE",
"268 289 CURVE SMOOTH",
"184 289 LINE"
);
},
{
closed = 1;
nodes = (
"183 45 LINE",
"183 244 LINE",
"236 244 LINE SMOOTH",
"301 244 OFFCURVE",
"347 226 OFFCURVE",
"347 148 CURVE SMOOTH",
"347 72 OFFCURVE",
"308 45 OFFCURVE",
"236 45 CURVE SMOOTH"
);
},
{
closed = 1;
nodes = (
"624 455 LINE",
"624 485 OFFCURVE",
"616 502 OFFCURVE",
"584 502 CURVE SMOOTH",
"540 502 OFFCURVE",
"520 490 OFFCURVE",
"520 430 CURVE SMOOTH",
"520 82 LINE SMOOTH",
"520 22 OFFCURVE",
"540 0 OFFCURVE",
"584 0 CURVE SMOOTH",
"616 0 OFFCURVE",
"624 17 OFFCURVE",
"624 47 CURVE SMOOTH"
);
}
);
width = 704;
}
);
unicode = 044B;
},
{
glyphname = "lje-cy";
lastChange = "2016-08-03 16:49:19 +0000";
layers = (
{
layerId = UUID0;
paths = (
{
closed = 1;
nodes = (
"535 0 LINE SMOOTH",
"672 0 OFFCURVE",
"750 53 OFFCURVE",
"750 152 CURVE SMOOTH",
"750 239 OFFCURVE",
"700 289 OFFCURVE",
"563 289 CURVE SMOOTH",
"475 289 LINE",
"475 455 LINE SMOOTH",
"475 485 OFFCURVE",
"467 502 OFFCURVE",
"435 502 CURVE SMOOTH",
"192 502 LINE SMOOTH",
"156 502 OFFCURVE",
"150 483 OFFCURVE",
"150 455 CURVE SMOOTH",
"150 356 LINE SMOOTH",
"150 213 OFFCURVE",
"146 103 OFFCURVE",
"53 82 CURVE SMOOTH",
"29 77 OFFCURVE",
"10 56 OFFCURVE",
"10 39 CURVE SMOOTH",
"10 11 OFFCURVE",
"29 0 OFFCURVE",
"53 0 CURVE SMOOTH",
"103 0 OFFCURVE",
"134 28 OFFCURVE",
"161 69 CURVE SMOOTH",
"205 137 OFFCURVE",
"216 237 OFFCURVE",
"216 350 CURVE SMOOTH",
"216 455 LINE",
"371 455 LINE",
"371 47 LINE SMOOTH",
"371 17 OFFCURVE",
"379 0 OFFCURVE",
"411 0 CURVE"
);
},
{
closed = 1;
nodes = (
"474 45 LINE",
"474 244 LINE",
"531 244 LINE SMOOTH",
"596 244 OFFCURVE",
"642 226 OFFCURVE",
"642 148 CURVE SMOOTH",
"642 72 OFFCURVE",
"603 45 OFFCURVE",
"531 45 CURVE SMOOTH"
);
}
);
width = 778;
}
);
unicode = 0459;
},
{
glyphname = "nje-cy";
lastChange = "2016-08-03 16:49:19 +0000";
layers = (
{
layerId = UUID0;
paths = (
{
closed = 1;
nodes = (
"501 420 LINE",
"501 480 OFFCURVE",
"481 502 OFFCURVE",
"437 502 CURVE SMOOTH",
"405 502 OFFCURVE",
"397 485 OFFCURVE",
"397 455 CURVE SMOOTH",
"397 282 LINE",
"184 282 LINE",
"184 420 LINE SMOOTH",
"184 480 OFFCURVE",
"164 502 OFFCURVE",
"120 502 CURVE SMOOTH",
"88 502 OFFCURVE",
"80 485 OFFCURVE",
"80 455 CURVE SMOOTH",
"80 47 LINE SMOOTH",
"80 17 OFFCURVE",
"88 0 OFFCURVE",
"120 0 CURVE SMOOTH",
"164 0 OFFCURVE",
"184 11 OFFCURVE",
"184 71 CURVE SMOOTH",
"184 233 LINE",
"397 233 LINE",
"397 47 LINE SMOOTH",
"397 17 OFFCURVE",
"405 0 OFFCURVE",
"437 0 CURVE SMOOTH",
"561 0 LINE SMOOTH",
"698 0 OFFCURVE",
"776 50 OFFCURVE",
"776 149 CURVE SMOOTH",
"776 236 OFFCURVE",
"726 283 OFFCURVE",
"589 283 CURVE SMOOTH",
"501 283 LINE"
);
},
{
closed = 1;
nodes = (
"500 45 LINE",
"500 238 LINE",
"557 238 LINE SMOOTH",
"622 238 OFFCURVE",
"668 223 OFFCURVE",
"668 145 CURVE SMOOTH",
"668 69 OFFCURVE",
"629 45 OFFCURVE",
"557 45 CURVE SMOOTH"
);
}
);
width = 804;
}
);
unicode = 045A;
},
{
glyphname = "dze-cy";
lastChange = "2016-08-03 16:49:19 +0000";
layers = (
{
layerId = UUID0;
paths = (
{
closed = 1;
nodes = (
"349 63 OFFCURVE",
"299 40 OFFCURVE",
"246 40 CURVE SMOOTH",
"179 40 OFFCURVE",
"156 72 OFFCURVE",
"143 99 CURVE SMOOTH",
"133 121 OFFCURVE",
"117 135 OFFCURVE",
"88 135 CURVE SMOOTH",
"70 135 OFFCURVE",
"49 120 OFFCURVE",
"49 98 CURVE SMOOTH",
"49 68 OFFCURVE",
"71 46 OFFCURVE",
"98 32 CURVE SMOOTH",
"130 15 OFFCURVE",
"183 0 OFFCURVE",
"244 0 CURVE SMOOTH",
"366 0 OFFCURVE",
"451 59 OFFCURVE",
"451 149 CURVE SMOOTH",
"451 230 OFFCURVE",
"359 262 OFFCURVE",
"277 291 CURVE SMOOTH",
"209 315 OFFCURVE",
"156 334 OFFCURVE",
"156 388 CURVE SMOOTH",
"156 440 OFFCURVE",
"197 462 OFFCURVE",
"242 462 CURVE SMOOTH",
"295 462 OFFCURVE",
"318 437 OFFCURVE",
"331 410 CURVE SMOOTH",
"341 388 OFFCURVE",
"356 374 OFFCURVE",
"385 374 CURVE SMOOTH",
"405 374 OFFCURVE",
"424 388 OFFCURVE",
"424 410 CURVE SMOOTH",
"424 440 OFFCURVE",
"398 463 OFFCURVE",
"371 477 CURVE SMOOTH",
"339 494 OFFCURVE",
"291 502 OFFCURVE",
"241 502 CURVE SMOOTH",
"183 502 OFFCURVE",
"56 482 OFFCURVE",
"56 369 CURVE SMOOTH",
"56 283 OFFCURVE",
"126 257 OFFCURVE",
"218 226 CURVE SMOOTH",
"290 201 OFFCURVE",
"349 181 OFFCURVE",
"349 122 CURVE SMOOTH"
);
}
);
width = 494;
}
);
unicode = 0455;
},
{
glyphname = "e-cy";
lastChange = "2016-08-03 16:49:19 +0000";
layers = (
{
layerId = UUID0;
paths = (
{
closed = 1;
nodes = (
"370 263 OFFCURVE",
"364 275 OFFCURVE",
"352 275 CURVE SMOOTH",
"158 275 LINE",
"163 417 OFFCURVE",
"206 462 OFFCURVE",
"285 462 CURVE SMOOTH",
"334 462 OFFCURVE",
"352 433 OFFCURVE",
"363 401 CURVE SMOOTH",
"372 375 OFFCURVE",
"386 359 OFFCURVE",
"417 359 CURVE SMOOTH",
"436 359 OFFCURVE",
"459 373 OFFCURVE",
"459 398 CURVE SMOOTH",
"459 432 OFFCURVE",
"434 456 OFFCURVE",
"406 473 CURVE SMOOTH",
"372 493 OFFCURVE",
"332 502 OFFCURVE",
"287 502 CURVE SMOOTH",
"155 502 OFFCURVE",
"50 435 OFFCURVE",
"50 250 CURVE SMOOTH",
"50 107 OFFCURVE",
"109 0 OFFCURVE",
"276 0 CURVE SMOOTH",
"366 0 OFFCURVE",
"420 33 OFFCURVE",
"457 79 CURVE SMOOTH",
"466 90 OFFCURVE",
"470 99 OFFCURVE",
"470 113 CURVE SMOOTH",
"470 126 OFFCURVE",
"458 134 OFFCURVE",
"447 134 CURVE SMOOTH",
"437 134 OFFCURVE",
"429 131 OFFCURVE",
"422 123 CURVE SMOOTH",
"398 94 OFFCURVE",
"368 44 OFFCURVE",
"287 44 CURVE SMOOTH",
"195 44 OFFCURVE",
"161 111 OFFCURVE",
"158 229 CURVE",
"352 229 LINE SMOOTH",
"364 229 OFFCURVE",
"370 241 OFFCURVE",
"370 252 CURVE SMOOTH"
);
}
);
width = 490;
}
);
unicode = 0454;
},
{
glyphname = "ereversed-cy";
lastChange = "2016-08-03 16:49:19 +0000";
layers = (
{
layerId = UUID0;
paths = (
{
closed = 1;
nodes = (
"349 236 LINE",
"349 88 OFFCURVE",
"291 44 OFFCURVE",
"217 40 CURVE",
"150 40 OFFCURVE",
"127 70 OFFCURVE",
"114 99 CURVE SMOOTH",
"104 121 OFFCURVE",
"88 139 OFFCURVE",
"59 139 CURVE SMOOTH",
"41 139 OFFCURVE",
"20 124 OFFCURVE",
"20 102 CURVE SMOOTH",
"20 73 OFFCURVE",
"44 50 OFFCURVE",
"69 34 CURVE SMOOTH",
"98 16 OFFCURVE",
"148 0 OFFCURVE",
"208 0 CURVE SMOOTH",
"346 0 OFFCURVE",
"457 73 OFFCURVE",
"457 261 CURVE SMOOTH",
"457 427 OFFCURVE",
"376 502 OFFCURVE",
"226 502 CURVE SMOOTH",
"185 502 OFFCURVE",
"122 490 OFFCURVE",
"92 473 CURVE SMOOTH",
"65 458 OFFCURVE",
"38 438 OFFCURVE",
"38 406 CURVE SMOOTH",
"38 384 OFFCURVE",
"54 370 OFFCURVE",
"74 370 CURVE SMOOTH",
"103 370 OFFCURVE",
"117 386 OFFCURVE",
"130 408 CURVE SMOOTH",
"146 435 OFFCURVE",
"167 462 OFFCURVE",
"220 462 CURVE SMOOTH",
"304 462 OFFCURVE",
"349 405 OFFCURVE",
"349 282 CURVE",
"150 282 LINE SMOOTH",
"138 282 OFFCURVE",
"132 270 OFFCURVE",
"132 259 CURVE SMOOTH",
"132 248 OFFCURVE",
"138 236 OFFCURVE",
"150 236 CURVE SMOOTH"
);
}
);
width = 507;
}
);
unicode = 044D;
},
{
glyphname = "i-cy";
lastChange = "2016-08-03 16:49:19 +0000";
layers = (
{
layerId = UUID0;
paths = (
{
closed = 1;
nodes = (
"189 420 LINE",
"189 480 OFFCURVE",
"169 502 OFFCURVE",
"125 502 CURVE SMOOTH",
"93 502 OFFCURVE",
"85 485 OFFCURVE",
"85 455 CURVE",
"85 47 LINE",
"85 17 OFFCURVE",
"93 0 OFFCURVE",
"125 0 CURVE SMOOTH",
"169 0 OFFCURVE",
"189 8 OFFCURVE",
"189 68 CURVE"
);
},
{
closed = 1;
nodes = (
"73 595 OFFCURVE",
"101 567 OFFCURVE",
"135 567 CURVE SMOOTH",
"169 567 OFFCURVE",
"197 595 OFFCURVE",
"197 629 CURVE SMOOTH",
"197 663 OFFCURVE",
"169 691 OFFCURVE",
"135 691 CURVE SMOOTH",
"101 691 OFFCURVE",
"73 663 OFFCURVE",
"73 629 CURVE SMOOTH"
);
}
);
width = 274;
}
);
unicode = 0456;
},
{
glyphname = "yi-cy";
lastChange = "2016-08-03 16:49:19 +0000";
layers = (
{
layerId = UUID0;
paths = (
{
closed = 1;
nodes = (
"189 434 LINE",
"189 480 OFFCURVE",
"169 502 OFFCURVE",
"125 502 CURVE SMOOTH",
"93 502 OFFCURVE",
"85 485 OFFCURVE",
"85 455 CURVE",
"85 47 LINE",
"85 17 OFFCURVE",
"93 0 OFFCURVE",
"125 0 CURVE SMOOTH",
"169 0 OFFCURVE",
"189 8 OFFCURVE",
"189 68 CURVE"
);
},
{
closed = 1;
nodes = (
"-10 595 OFFCURVE",
"18 567 OFFCURVE",
"51 567 CURVE SMOOTH",
"84 567 OFFCURVE",
"112 595 OFFCURVE",
"112 628 CURVE SMOOTH",
"112 661 OFFCURVE",
"84 689 OFFCURVE",
"51 689 CURVE SMOOTH",
"18 689 OFFCURVE",
"-10 661 OFFCURVE",
"-10 628 CURVE SMOOTH"
);
},
{
closed = 1;
nodes = (
"162 595 OFFCURVE",
"190 567 OFFCURVE",
"223 567 CURVE SMOOTH",
"256 567 OFFCURVE",
"284 595 OFFCURVE",
"284 628 CURVE SMOOTH",
"284 661 OFFCURVE",
"256 689 OFFCURVE",
"223 689 CURVE SMOOTH",
"190 689 OFFCURVE",
"162 661 OFFCURVE",
"162 628 CURVE SMOOTH"
);
}
);
width = 274;
}
);
unicode = 0457;
},
{
glyphname = "je-cy";
lastChange = "2016-08-03 16:49:19 +0000";
layers = (
{
layerId = UUID0;
paths = (
{
closed = 1;
nodes = (
"85 44 LINE",
"85 -28 OFFCURVE",
"81 -71 OFFCURVE",
"70 -101 CURVE SMOOTH",
"56 -139 OFFCURVE",
"25 -150 OFFCURVE",
"6 -162 CURVE SMOOTH",
"-9 -172 OFFCURVE",
"-17 -182 OFFCURVE",
"-17 -199 CURVE SMOOTH",
"-17 -214 OFFCURVE",
"-2 -220 OFFCURVE",
"13 -220 CURVE SMOOTH",
"27 -220 OFFCURVE",
"42 -213 OFFCURVE",
"56 -203 CURVE SMOOTH",
"90 -179 OFFCURVE",
"118 -137 OFFCURVE",
"131 -116 CURVE SMOOTH",
"170 -50 OFFCURVE",
"189 27 OFFCURVE",
"189 121 CURVE SMOOTH",
"189 420 LINE SMOOTH",
"189 480 OFFCURVE",
"169 502 OFFCURVE",
"125 502 CURVE SMOOTH",
"93 502 OFFCURVE",
"85 485 OFFCURVE",
"85 455 CURVE"
);
},
{
closed = 1;
nodes = (
"73 595 OFFCURVE",
"101 567 OFFCURVE",
"135 567 CURVE SMOOTH",
"169 567 OFFCURVE",
"197 595 OFFCURVE",
"197 629 CURVE SMOOTH",
"197 663 OFFCURVE",
"169 691 OFFCURVE",
"135 691 CURVE SMOOTH",
"101 691 OFFCURVE",
"73 663 OFFCURVE",
"73 629 CURVE SMOOTH"
);
}
);
width = 274;
}
);
unicode = 0458;
},
{
glyphname = "tshe-cy";
lastChange = "2016-08-03 16:49:19 +0000";
layers = (
{
layerId = UUID0;
paths = (
{
closed = 1;
nodes = (
"7 612 LINE",
"-1 612 OFFCURVE",
"-5 600 OFFCURVE",
"-5 587 CURVE SMOOTH",
"-5 575 OFFCURVE",
"-1 563 OFFCURVE",
"7 563 CURVE SMOOTH",
"89 563 LINE",
"89 47 LINE SMOOTH",
"89 17 OFFCURVE",
"97 0 OFFCURVE",
"129 0 CURVE SMOOTH",
"173 0 OFFCURVE",
"193 11 OFFCURVE",
"193 71 CURVE SMOOTH",
"193 290 LINE SMOOTH",
"193 355 OFFCURVE",
"264 415 OFFCURVE",
"320 415 CURVE SMOOTH",
"366 415 OFFCURVE",
"405 391 OFFCURVE",
"405 312 CURVE SMOOTH",
"405 82 LINE SMOOTH",
"405 22 OFFCURVE",
"425 0 OFFCURVE",
"469 0 CURVE SMOOTH",
"501 0 OFFCURVE",
"509 17 OFFCURVE",
"509 47 CURVE SMOOTH",
"509 331 LINE SMOOTH",
"509 432 OFFCURVE",
"462 482 OFFCURVE",
"368 482 CURVE SMOOTH",
"285 482 OFFCURVE",
"228 433 OFFCURVE",
"195 380 CURVE",
"193 380 LINE",
"193 563 LINE",
"396 563 LINE SMOOTH",
"404 563 OFFCURVE",
"408 575 OFFCURVE",
"408 587 CURVE SMOOTH",
"408 600 OFFCURVE",
"404 612 OFFCURVE",
"396 612 CURVE SMOOTH",
"193 612 LINE",
"193 678 LINE SMOOTH",
"193 738 OFFCURVE",
"173 760 OFFCURVE",
"129 760 CURVE SMOOTH",
"97 760 OFFCURVE",
"89 743 OFFCURVE",
"89 713 CURVE SMOOTH",
"89 612 LINE"
);
}
);
width = 589;
}
);
unicode = 045B;
},
{
glyphname = "iu-cy";
lastChange = "2016-08-03 16:49:19 +0000";
layers = (
{
layerId = UUID0;
paths = (
{
closed = 1;
nodes = (
"642 -10 OFFCURVE",
"728 80 OFFCURVE",
"728 251 CURVE SMOOTH",
"728 426 OFFCURVE",
"637 512 OFFCURVE",
"500 512 CURVE SMOOTH",
"372 512 OFFCURVE",
"283 436 OFFCURVE",
"273 282 CURVE",
"184 282 LINE",
"184 420 LINE SMOOTH",
"184 480 OFFCURVE",
"164 502 OFFCURVE",
"120 502 CURVE SMOOTH",
"88 502 OFFCURVE",
"80 485 OFFCURVE",
"80 455 CURVE SMOOTH",
"80 47 LINE SMOOTH",
"80 17 OFFCURVE",
"88 0 OFFCURVE",
"120 0 CURVE SMOOTH",
"164 0 OFFCURVE",
"184 11 OFFCURVE",
"184 71 CURVE SMOOTH",
"184 233 LINE",
"272 233 LINE",
"278 74 OFFCURVE",
"363 -10 OFFCURVE",
"500 -10 CURVE SMOOTH"
);
},
{
closed = 1;
nodes = (
"429 30 OFFCURVE",
"380 82 OFFCURVE",
"380 251 CURVE SMOOTH",
"380 420 OFFCURVE",
"434 472 OFFCURVE",
"500 472 CURVE SMOOTH",
"568 472 OFFCURVE",
"620 420 OFFCURVE",
"620 251 CURVE SMOOTH",
"620 80 OFFCURVE",
"571 30 OFFCURVE",
"500 30 CURVE SMOOTH"
);
}
);
width = 778;
}
);
unicode = 044E;
},
{
glyphname = "ia-cy";
lastChange = "2016-08-03 16:49:19 +0000";
layers = (
{
layerId = UUID0;
paths = (
{
closed = 1;
nodes = (
"30 9 OFFCURVE",
"34 0 OFFCURVE",
"78 0 CURVE SMOOTH",
"126 0 OFFCURVE",
"139 12 OFFCURVE",
"154 31 CURVE SMOOTH",
"296 213 LINE",
"337 213 LINE",
"337 82 LINE SMOOTH",
"337 22 OFFCURVE",
"357 0 OFFCURVE",
"401 0 CURVE SMOOTH",
"433 0 OFFCURVE",
"441 17 OFFCURVE",
"441 47 CURVE SMOOTH",
"441 455 LINE SMOOTH",
"441 485 OFFCURVE",
"433 502 OFFCURVE",
"401 502 CURVE SMOOTH",
"246 502 LINE SMOOTH",
"116 502 OFFCURVE",
"54 443 OFFCURVE",
"54 349 CURVE SMOOTH",
"54 284 OFFCURVE",
"106 226 OFFCURVE",
"194 218 CURVE",
"48 51 LINE SMOOTH",
"37 38 OFFCURVE",
"30 28 OFFCURVE",
"30 19 CURVE SMOOTH"
);
},
{
closed = 1;
nodes = (
"159 413 OFFCURVE",
"197 457 OFFCURVE",
"266 457 CURVE SMOOTH",
"337 457 LINE",
"337 258 LINE",
"267 258 LINE SMOOTH",
"199 258 OFFCURVE",
"159 295 OFFCURVE",
"159 348 CURVE SMOOTH"
);
}
);
width = 521;
}
);
unicode = 044F;
},
{
glyphname = "dje-cy";
lastChange = "2016-08-03 16:49:19 +0000";
layers = (
{
layerId = UUID0;
paths = (
{
closed = 1;
nodes = (
"416 44 OFFCURVE",
"379 -58 OFFCURVE",
"293 -94 CURVE SMOOTH",
"278 -100 OFFCURVE",
"273 -110 OFFCURVE",
"273 -121 CURVE SMOOTH",
"274 -136 OFFCURVE",
"288 -144 OFFCURVE",
"301 -144 CURVE",
"434 -126 OFFCURVE",
"519 12 OFFCURVE",
"519 233 CURVE SMOOTH",
"519 434 OFFCURVE",
"457 482 OFFCURVE",
"356 482 CURVE SMOOTH",
"284 482 OFFCURVE",
"228 433 OFFCURVE",
"195 380 CURVE",
"193 380 LINE",
"193 563 LINE",
"396 563 LINE SMOOTH",
"404 563 OFFCURVE",
"408 575 OFFCURVE",
"408 587 CURVE SMOOTH",
"408 600 OFFCURVE",
"404 612 OFFCURVE",
"396 612 CURVE SMOOTH",
"193 612 LINE",
"193 678 LINE SMOOTH",
"193 738 OFFCURVE",
"173 760 OFFCURVE",
"129 760 CURVE SMOOTH",
"97 760 OFFCURVE",
"89 743 OFFCURVE",
"89 713 CURVE SMOOTH",
"89 612 LINE",
"7 612 LINE SMOOTH",
"-1 612 OFFCURVE",
"-5 600 OFFCURVE",
"-5 587 CURVE SMOOTH",
"-5 575 OFFCURVE",
"-1 563 OFFCURVE",
"7 563 CURVE SMOOTH",
"89 563 LINE",
"89 47 LINE SMOOTH",
"89 17 OFFCURVE",
"97 0 OFFCURVE",
"129 0 CURVE SMOOTH",
"173 0 OFFCURVE",
"193 11 OFFCURVE",
"193 71 CURVE SMOOTH",
"193 290 LINE SMOOTH",
"193 355 OFFCURVE",
"263 415 OFFCURVE",
"319 415 CURVE SMOOTH",
"401 415 OFFCURVE",
"416 345 OFFCURVE",
"416 233 CURVE SMOOTH"
);
}
);
width = 579;
}
);
unicode = 0452;
},
{
glyphname = zero;
lastChange = "2016-08-03 16:06:21 +0000";
layers = (
{
layerId = UUID0;
paths = (
{
closed = 1;
nodes = (
"34 151 OFFCURVE",
"93 0 OFFCURVE",
"265 0 CURVE SMOOTH",
"437 0 OFFCURVE",
"496 151 OFFCURVE",
"496 354 CURVE SMOOTH",
"496 547 OFFCURVE",
"437 709 OFFCURVE",
"265 709 CURVE SMOOTH",
"93 709 OFFCURVE",
"34 547 OFFCURVE",
"34 354 CURVE SMOOTH"
);
},
{
closed = 1;
nodes = (
"386 203 OFFCURVE",
"375 51 OFFCURVE",
"265 51 CURVE SMOOTH",
"155 51 OFFCURVE",
"144 203 OFFCURVE",
"144 354 CURVE SMOOTH",
"144 487 OFFCURVE",
"155 658 OFFCURVE",
"265 658 CURVE SMOOTH",
"375 658 OFFCURVE",
"386 487 OFFCURVE",
"386 354 CURVE SMOOTH"
);
}
);
width = 530;
}
);
unicode = 0030;
},
{
glyphname = one;
lastChange = "2016-08-03 16:06:21 +0000";
layers = (
{
layerId = UUID0;
paths = (
{
closed = 1;
nodes = (
"236 640 LINE",
"236 53 LINE",
"150 53 LINE SMOOTH",
"116 53 OFFCURVE",
"110 39 OFFCURVE",
"110 24 CURVE SMOOTH",
"110 12 OFFCURVE",
"114 0 OFFCURVE",
"140 0 CURVE SMOOTH",
"438 0 LINE SMOOTH",
"464 0 OFFCURVE",
"468 12 OFFCURVE",
"468 24 CURVE SMOOTH",
"468 39 OFFCURVE",
"462 53 OFFCURVE",
"428 53 CURVE SMOOTH",
"342 53 LINE",
"342 659 LINE SMOOTH",
"342 694 OFFCURVE",
"327 709 OFFCURVE",
"291 709 CURVE SMOOTH",
"276 709 OFFCURVE",
"256 706 OFFCURVE",
"237 699 CURVE SMOOTH",
"96 644 LINE SMOOTH",
"79 638 OFFCURVE",
"75 630 OFFCURVE",
"75 622 CURVE SMOOTH",
"75 609 OFFCURVE",
"83 593 OFFCURVE",
"101 593 CURVE SMOOTH",
"108 593 OFFCURVE",
"115 594 OFFCURVE",
"125 598 CURVE SMOOTH"
);
}
);
width = 530;
}
);
unicode = 0031;
},
{
glyphname = two;
lastChange = "2016-08-03 16:06:21 +0000";
layers = (
{
layerId = UUID0;
paths = (
{
closed = 1;
nodes = (
"128 495 OFFCURVE",
"143 512 OFFCURVE",
"143 560 CURVE",
"143 632 LINE",
"173 648 OFFCURVE",
"208 658 OFFCURVE",
"240 658 CURVE SMOOTH",
"335 658 OFFCURVE",
"353 574 OFFCURVE",
"353 516 CURVE SMOOTH",
"353 461 OFFCURVE",
"329 321 OFFCURVE",
"64 75 CURVE",
"50 62 LINE",
"40 53 OFFCURVE",
"35 40 OFFCURVE",
"35 28 CURVE SMOOTH",
"35 13 OFFCURVE",
"43 0 OFFCURVE",
"60 0 CURVE",
"415 0 LINE",
"454 0 OFFCURVE",
"475 8 OFFCURVE",
"475 32 CURVE",
"475 130 LINE",
"475 165 OFFCURVE",
"461 180 OFFCURVE",
"432 180 CURVE SMOOTH",
"399 180 OFFCURVE",
"379 163 OFFCURVE",
"379 115 CURVE",
"379 53 LINE",
"118 53 LINE",
"389 272 OFFCURVE",
"466 410 OFFCURVE",
"466 531 CURVE SMOOTH",
"466 625 OFFCURVE",
"412 709 OFFCURVE",
"272 709 CURVE SMOOTH",
"199 709 OFFCURVE",
"140 693 OFFCURVE",
"70 647 CURVE SMOOTH",
"53 636 OFFCURVE",
"47 629 OFFCURVE",
"47 605 CURVE",
"47 545 LINE",
"47 510 OFFCURVE",
"61 495 OFFCURVE",
"90 495 CURVE SMOOTH"
);
}
);
width = 530;
}
);
unicode = 0032;
},
{
glyphname = three;
lastChange = "2016-08-03 16:06:21 +0000";
layers = (
{
layerId = UUID0;
paths = (
{
closed = 1;
nodes = (
"44 213 OFFCURVE",
"30 198 OFFCURVE",
"30 163 CURVE SMOOTH",
"30 103 LINE SMOOTH",
"30 79 OFFCURVE",
"36 62 OFFCURVE",
"53 52 CURVE SMOOTH",
"114 16 OFFCURVE",
"178 0 OFFCURVE",
"240 0 CURVE SMOOTH",
"382 0 OFFCURVE",
"476 79 OFFCURVE",
"476 202 CURVE SMOOTH",
"476 312 OFFCURVE",
"409 360 OFFCURVE",
"327 371 CURVE",
"327 380 LINE",
"393 394 OFFCURVE",
"453 450 OFFCURVE",
"453 537 CURVE SMOOTH",
"453 634 OFFCURVE",
"395 709 OFFCURVE",
"254 709 CURVE SMOOTH",
"183 709 OFFCURVE",
"126 692 OFFCURVE",
"63 652 CURVE SMOOTH",
"46 641 OFFCURVE",
"40 631 OFFCURVE",
"40 607 CURVE SMOOTH",
"40 547 LINE SMOOTH",
"40 512 OFFCURVE",
"54 497 OFFCURVE",
"83 497 CURVE SMOOTH",
"121 497 OFFCURVE",
"136 514 OFFCURVE",
"136 562 CURVE SMOOTH",
"136 634 LINE",
"163 649 OFFCURVE",
"198 658 OFFCURVE",
"229 658 CURVE SMOOTH",
"294 658 OFFCURVE",
"343 624 OFFCURVE",
"343 537 CURVE SMOOTH",
"343 443 OFFCURVE",
"302 397 OFFCURVE",
"217 397 CURVE SMOOTH",
"188 397 LINE SMOOTH",
"179 397 OFFCURVE",
"172 383 OFFCURVE",
"172 369 CURVE SMOOTH",
"172 355 OFFCURVE",
"179 342 OFFCURVE",
"188 342 CURVE SMOOTH",
"217 342 LINE SMOOTH",
"302 342 OFFCURVE",
"364 314 OFFCURVE",
"364 201 CURVE SMOOTH",
"364 95 OFFCURVE",
"301 51 OFFCURVE",
"228 51 CURVE SMOOTH",
"189 51 OFFCURVE",
"157 58 OFFCURVE",
"126 76 CURVE",
"126 148 LINE SMOOTH",
"126 196 OFFCURVE",
"111 213 OFFCURVE",
"73 213 CURVE SMOOTH"
);
}
);
width = 530;
}
);
unicode = 0033;
},
{
glyphname = four;
lastChange = "2016-08-03 16:06:21 +0000";
layers = (
{
layerId = UUID0;
paths = (
{
closed = 1;
nodes = (
"235 53 LINE",
"201 53 OFFCURVE",
"195 39 OFFCURVE",
"195 24 CURVE SMOOTH",
"195 12 OFFCURVE",
"199 0 OFFCURVE",
"225 0 CURVE SMOOTH",
"485 0 LINE SMOOTH",
"511 0 OFFCURVE",
"515 12 OFFCURVE",
"515 24 CURVE SMOOTH",
"515 39 OFFCURVE",
"509 53 OFFCURVE",
"475 53 CURVE SMOOTH",
"418 53 LINE",
"418 173 LINE",
"490 173 LINE SMOOTH",
"516 173 OFFCURVE",
"520 185 OFFCURVE",
"520 197 CURVE SMOOTH",
"520 212 OFFCURVE",
"514 226 OFFCURVE",
"480 226 CURVE SMOOTH",
"418 226 LINE",
"418 659 LINE SMOOTH",
"418 694 OFFCURVE",
"403 709 OFFCURVE",
"367 709 CURVE SMOOTH",
"341 709 OFFCURVE",
"315 700 OFFCURVE",
"297 672 CURVE SMOOTH",
"0 221 LINE",
"-3 215 OFFCURVE",
"-7 206 OFFCURVE",
"-7 197 CURVE SMOOTH",
"-7 184 OFFCURVE",
"-1 173 OFFCURVE",
"21 173 CURVE SMOOTH",
"312 173 LINE",
"312 53 LINE"
);
},
{
closed = 1;
nodes = (
"312 226 LINE",
"77 226 LINE",
"312 578 LINE"
);
}
);
width = 530;
}
);
unicode = 0034;
},
{
glyphname = five;
lastChange = "2016-08-03 16:06:21 +0000";
layers = (
{
layerId = UUID0;
paths = (
{
closed = 1;
nodes = (
"422 620 LINE",
"455 620 OFFCURVE",
"467 650 OFFCURVE",
"467 670 CURVE SMOOTH",
"467 685 OFFCURVE",
"465 709 OFFCURVE",
"433 709 CURVE SMOOTH",
"140 709 LINE SMOOTH",
"117 709 OFFCURVE",
"106 700 OFFCURVE",
"105 680 CURVE SMOOTH",
"82 354 LINE",
"82 331 OFFCURVE",
"93 323 OFFCURVE",
"110 323 CURVE SMOOTH",
"126 323 OFFCURVE",
"140 327 OFFCURVE",
"151 343 CURVE SMOOTH",
"171 375 OFFCURVE",
"209 396 OFFCURVE",
"252 396 CURVE SMOOTH",
"304 396 OFFCURVE",
"366 367 OFFCURVE",
"366 239 CURVE SMOOTH",
"366 117 OFFCURVE",
"311 51 OFFCURVE",
"241 51 CURVE SMOOTH",
"200 51 OFFCURVE",
"178 53 OFFCURVE",
"152 65 CURVE",
"152 122 LINE SMOOTH",
"152 170 OFFCURVE",
"137 187 OFFCURVE",
"99 187 CURVE SMOOTH",
"70 187 OFFCURVE",
"56 172 OFFCURVE",
"56 137 CURVE SMOOTH",
"56 92 LINE SMOOTH",
"56 68 OFFCURVE",
"62 51 OFFCURVE",
"79 41 CURVE SMOOTH",
"133 9 OFFCURVE",
"188 0 OFFCURVE",
"246 0 CURVE SMOOTH",
"420 0 OFFCURVE",
"478 137 OFFCURVE",
"478 245 CURVE SMOOTH",
"478 407 OFFCURVE",
"399 460 OFFCURVE",
"291 460 CURVE SMOOTH",
"261 460 OFFCURVE",
"206 455 OFFCURVE",
"162 413 CURVE",
"178 620 LINE"
);
}
);
width = 530;
}
);
unicode = 0035;
},
{
glyphname = six;
lastChange = "2016-08-03 16:06:21 +0000";
layers = (
{
layerId = UUID0;
paths = (
{
closed = 1;
nodes = (
"451 537 OFFCURVE",
"465 552 OFFCURVE",
"465 585 CURVE SMOOTH",
"465 636 LINE SMOOTH",
"465 669 OFFCURVE",
"443 680 OFFCURVE",
"424 687 CURVE SMOOTH",
"390 699 OFFCURVE",
"354 709 OFFCURVE",
"303 709 CURVE SMOOTH",
"173 709 OFFCURVE",
"50 644 OFFCURVE",
"50 315 CURVE SMOOTH",
"50 157 OFFCURVE",
"89 0 OFFCURVE",
"278 0 CURVE SMOOTH",
"404 0 OFFCURVE",
"490 87 OFFCURVE",
"490 233 CURVE SMOOTH",
"490 359 OFFCURVE",
"428 448 OFFCURVE",
"307 448 CURVE SMOOTH",
"253 448 OFFCURVE",
"189 426 OFFCURVE",
"157 360 CURVE",
"157 402 LINE SMOOTH",
"157 603 OFFCURVE",
"240 658 OFFCURVE",
"307 658 CURVE SMOOTH",
"327 658 OFFCURVE",
"347 657 OFFCURVE",
"369 648 CURVE",
"369 599 LINE SMOOTH",
"369 553 OFFCURVE",
"384 537 OFFCURVE",
"422 537 CURVE SMOOTH"
);
},
{
closed = 1;
nodes = (
"341 384 OFFCURVE",
"381 344 OFFCURVE",
"381 234 CURVE SMOOTH",
"381 105 OFFCURVE",
"340 51 OFFCURVE",
"275 51 CURVE SMOOTH",
"187 51 OFFCURVE",
"165 155 OFFCURVE",
"165 225 CURVE SMOOTH",
"165 328 OFFCURVE",
"218 384 OFFCURVE",
"278 384 CURVE SMOOTH"
);
}
);
width = 530;
}
);
unicode = 0036;
},
{
glyphname = seven;
lastChange = "2016-08-03 16:06:21 +0000";
layers = (
{
layerId = UUID0;
paths = (
{
closed = 1;
nodes = (
"52 584 LINE SMOOTH",
"52 549 OFFCURVE",
"66 534 OFFCURVE",
"95 534 CURVE SMOOTH",
"133 534 OFFCURVE",
"148 551 OFFCURVE",
"148 599 CURVE SMOOTH",
"148 656 LINE",
"403 656 LINE",
"305 517 OFFCURVE",
"220 312 OFFCURVE",
"163 99 CURVE SMOOTH",
"151 53 OFFCURVE",
"150 40 OFFCURVE",
"150 30 CURVE SMOOTH",
"150 12 OFFCURVE",
"162 0 OFFCURVE",
"208 0 CURVE SMOOTH",
"267 0 OFFCURVE",
"263 27 OFFCURVE",
"270 67 CURVE SMOOTH",
"299 246 OFFCURVE",
"344 429 OFFCURVE",
"473 635 CURVE SMOOTH",
"479 645 OFFCURVE",
"484 660 OFFCURVE",
"484 674 CURVE SMOOTH",
"484 692 OFFCURVE",
"475 709 OFFCURVE",
"447 709 CURVE SMOOTH",
"112 709 LINE SMOOTH",
"73 709 OFFCURVE",
"52 702 OFFCURVE",
"52 672 CURVE"
);
}
);
width = 530;
}
);
unicode = 0037;
},
{
glyphname = eight;
lastChange = "2016-08-03 16:06:21 +0000";
layers = (
{
layerId = UUID0;
paths = (
{
closed = 1;
nodes = (
"367 388 LINE",
"430 402 OFFCURVE",
"481 461 OFFCURVE",
"481 533 CURVE SMOOTH",
"481 614 OFFCURVE",
"430 709 OFFCURVE",
"265 709 CURVE SMOOTH",
"100 709 OFFCURVE",
"49 614 OFFCURVE",
"49 532 CURVE SMOOTH",
"49 460 OFFCURVE",
"100 404 OFFCURVE",
"163 388 CURVE",
"163 380 LINE",
"77 356 OFFCURVE",
"37 288 OFFCURVE",
"37 209 CURVE SMOOTH",
"37 75 OFFCURVE",
"127 0 OFFCURVE",
"265 0 CURVE SMOOTH",
"403 0 OFFCURVE",
"493 75 OFFCURVE",
"493 209 CURVE SMOOTH",
"493 288 OFFCURVE",
"453 361 OFFCURVE",
"367 380 CURVE"
);
},
{
closed = 1;
nodes = (
"148 322 OFFCURVE",
"209 359 OFFCURVE",
"265 359 CURVE SMOOTH",
"321 359 OFFCURVE",
"382 322 OFFCURVE",
"382 207 CURVE SMOOTH",
"382 98 OFFCURVE",
"327 51 OFFCURVE",
"265 51 CURVE SMOOTH",
"203 51 OFFCURVE",
"148 99 OFFCURVE",
"148 207 CURVE SMOOTH"
);
},
{
closed = 1;
nodes = (
"208 407 OFFCURVE",
"156 443 OFFCURVE",
"156 535 CURVE SMOOTH",
"156 631 OFFCURVE",
"218 658 OFFCURVE",
"265 658 CURVE SMOOTH",
"312 658 OFFCURVE",
"374 631 OFFCURVE",
"374 535 CURVE SMOOTH",
"374 443 OFFCURVE",
"322 407 OFFCURVE",
"265 407 CURVE SMOOTH"
);
}
);
width = 530;
}
);
unicode = 0038;
},
{
glyphname = nine;
lastChange = "2016-08-03 16:06:21 +0000";
layers = (
{
layerId = UUID0;
paths = (
{
closed = 1;
nodes = (
"79 172 OFFCURVE",
"65 157 OFFCURVE",
"65 124 CURVE SMOOTH",
"65 73 LINE SMOOTH",
"65 40 OFFCURVE",
"87 29 OFFCURVE",
"106 22 CURVE SMOOTH",
"140 10 OFFCURVE",
"176 0 OFFCURVE",
"227 0 CURVE SMOOTH",
"357 0 OFFCURVE",
"480 80 OFFCURVE",
"480 401 CURVE SMOOTH",
"480 564 OFFCURVE",
"448 709 OFFCURVE",
"259 709 CURVE SMOOTH",
"133 709 OFFCURVE",
"40 625 OFFCURVE",
"40 479 CURVE SMOOTH",
"40 353 OFFCURVE",
"103 261 OFFCURVE",
"224 261 CURVE SMOOTH",
"278 261 OFFCURVE",
"341 283 OFFCURVE",
"373 349 CURVE",
"373 307 LINE SMOOTH",
"373 113 OFFCURVE",
"293 51 OFFCURVE",
"226 51 CURVE SMOOTH",
"206 51 OFFCURVE",
"183 52 OFFCURVE",
"161 61 CURVE",
"161 110 LINE SMOOTH",
"161 156 OFFCURVE",
"146 172 OFFCURVE",
"108 172 CURVE SMOOTH"
);
},
{
closed = 1;
nodes = (
"190 325 OFFCURVE",
"149 368 OFFCURVE",
"149 478 CURVE SMOOTH",
"149 607 OFFCURVE",
"197 658 OFFCURVE",
"262 658 CURVE SMOOTH",
"350 658 OFFCURVE",
"365 554 OFFCURVE",
"365 484 CURVE SMOOTH",
"365 381 OFFCURVE",
"313 325 OFFCURVE",
"253 325 CURVE SMOOTH"
);
}
);
width = 530;
}
);
unicode = 0039;
},
{
glyphname = onesuperior;
lastChange = "2016-08-03 16:06:21 +0000";
layers = (
{
layerId = UUID0;
paths = (
{
closed = 1;
nodes = (
"151 653 LINE",
"151 348 LINE",
"115 348 LINE",
"86 348 OFFCURVE",
"81 337 OFFCURVE",
"81 327 CURVE SMOOTH",
"81 318 OFFCURVE",
"84 308 OFFCURVE",
"110 308 CURVE",
"276 308 LINE",
"302 308 OFFCURVE",
"305 318 OFFCURVE",
"305 327 CURVE SMOOTH",
"305 337 OFFCURVE",
"300 348 OFFCURVE",
"271 348 CURVE",
"234 348 LINE",
"234 677 LINE SMOOTH",
"234 700 OFFCURVE",
"224 709 OFFCURVE",
"194 709 CURVE SMOOTH",
"184 709 OFFCURVE",
"170 707 OFFCURVE",
"160 703 CURVE SMOOTH",
"81 672 LINE SMOOTH",
"65 666 OFFCURVE",
"61 656 OFFCURVE",
"61 651 CURVE SMOOTH",
"61 642 OFFCURVE",
"70 633 OFFCURVE",
"88 633 CURVE SMOOTH",
"95 633 OFFCURVE",
"100 634 OFFCURVE",
"105 636 CURVE"
);
}
);
width = 360;
}
);
unicode = 00B9;
},
{
glyphname = twosuperior;
lastChange = "2016-08-03 16:06:21 +0000";
layers = (
{
layerId = UUID0;
paths = (
{
closed = 1;
nodes = (
"102 581 OFFCURVE",
"112 592 OFFCURVE",
"112 622 CURVE",
"112 660 LINE",
"126 667 OFFCURVE",
"142 672 OFFCURVE",
"154 672 CURVE SMOOTH",
"198 672 OFFCURVE",
"208 628 OFFCURVE",
"208 597 CURVE SMOOTH",
"208 567 OFFCURVE",
"195 491 OFFCURVE",
"50 356 CURVE SMOOTH",
"34 341 OFFCURVE",
"31 333 OFFCURVE",
"31 327 CURVE SMOOTH",
"31 316 OFFCURVE",
"39 308 OFFCURVE",
"56 308 CURVE",
"255 308 LINE",
"285 308 OFFCURVE",
"300 313 OFFCURVE",
"300 329 CURVE",
"300 385 LINE SMOOTH",
"300 406 OFFCURVE",
"291 416 OFFCURVE",
"267 416 CURVE SMOOTH",
"240 416 OFFCURVE",
"226 405 OFFCURVE",
"226 376 CURVE",
"226 348 LINE",
"103 348 LINE",
"249 468 OFFCURVE",
"296 539 OFFCURVE",
"296 605 CURVE SMOOTH",
"296 659 OFFCURVE",
"262 709 OFFCURVE",
"175 709 CURVE SMOOTH",
"131 709 OFFCURVE",
"96 698 OFFCURVE",
"55 673 CURVE SMOOTH",
"41 664 OFFCURVE",
"37 660 OFFCURVE",
"37 647 CURVE",
"37 613 LINE",
"37 590 OFFCURVE",
"47 581 OFFCURVE",
"71 581 CURVE SMOOTH"
);
}
);
width = 360;
}
);
unicode = 00B2;
},
{
glyphname = threesuperior;
lastChange = "2016-08-03 16:06:21 +0000";
layers = (
{
layerId = UUID0;
paths = (
{
closed = 1;
nodes = (
"52 434 OFFCURVE",
"43 425 OFFCURVE",
"43 402 CURVE",
"43 369 LINE",
"43 356 OFFCURVE",
"47 345 OFFCURVE",
"61 337 CURVE SMOOTH",
"97 316 OFFCURVE",
"135 308 OFFCURVE",
"172 308 CURVE SMOOTH",
"258 308 OFFCURVE",
"315 354 OFFCURVE",
"315 424 CURVE SMOOTH",
"315 484 OFFCURVE",
"279 511 OFFCURVE",
"232 520 CURVE",
"232 521 LINE",
"272 531 OFFCURVE",
"303 562 OFFCURVE",
"303 609 CURVE SMOOTH",
"303 665 OFFCURVE",
"266 709 OFFCURVE",
"180 709 CURVE SMOOTH",
"137 709 OFFCURVE",
"103 698 OFFCURVE",
"67 676 CURVE SMOOTH",
"53 668 OFFCURVE",
"48 661 OFFCURVE",
"48 648 CURVE",
"48 614 LINE",
"48 592 OFFCURVE",
"58 582 OFFCURVE",
"82 582 CURVE SMOOTH",
"111 582 OFFCURVE",
"123 593 OFFCURVE",
"123 623 CURVE",
"123 662 LINE",
"135 668 OFFCURVE",
"154 672 OFFCURVE",
"166 672 CURVE SMOOTH",
"195 672 OFFCURVE",
"218 655 OFFCURVE",
"218 609 CURVE SMOOTH",
"218 560 OFFCURVE",
"199 537 OFFCURVE",
"159 537 CURVE",
"142 537 LINE",
"131 537 OFFCURVE",
"122 527 OFFCURVE",
"122 517 CURVE SMOOTH",
"122 507 OFFCURVE",
"131 497 OFFCURVE",
"142 497 CURVE",
"159 497 LINE",
"200 497 OFFCURVE",
"229 484 OFFCURVE",
"229 424 CURVE SMOOTH",
"229 368 OFFCURVE",
"200 344 OFFCURVE",
"165 344 CURVE SMOOTH",
"148 344 OFFCURVE",
"132 347 OFFCURVE",
"117 354 CURVE",
"117 395 LINE",
"117 424 OFFCURVE",
"107 434 OFFCURVE",
"76 434 CURVE SMOOTH"
);
}
);
width = 360;
}
);
unicode = 00B3;
},
{
glyphname = foursuperior;
lastChange = "2016-08-03 16:06:21 +0000";
layers = (
{
layerId = UUID0;
paths = (
{
closed = 1;
nodes = (
"155 348 LINE",
"126 348 OFFCURVE",
"118 337 OFFCURVE",
"118 327 CURVE SMOOTH",
"118 318 OFFCURVE",
"125 308 OFFCURVE",
"149 308 CURVE SMOOTH",
"292 308 LINE SMOOTH",
"318 308 OFFCURVE",
"321 318 OFFCURVE",
"321 327 CURVE SMOOTH",
"321 337 OFFCURVE",
"316 348 OFFCURVE",
"287 348 CURVE SMOOTH",
"266 348 LINE",
"266 407 LINE",
"295 407 LINE SMOOTH",
"321 407 OFFCURVE",
"324 416 OFFCURVE",
"324 424 CURVE SMOOTH",
"324 435 OFFCURVE",
"321 445 OFFCURVE",
"291 445 CURVE SMOOTH",
"266 445 LINE",
"266 677 LINE SMOOTH",
"266 700 OFFCURVE",
"255 709 OFFCURVE",
"227 709 CURVE SMOOTH",
"207 709 OFFCURVE",
"188 703 OFFCURVE",
"177 686 CURVE SMOOTH",
"11 440 LINE SMOOTH",
"6 433 OFFCURVE",
"5 427 OFFCURVE",
"5 424 CURVE SMOOTH",
"5 415 OFFCURVE",
"10 407 OFFCURVE",
"33 407 CURVE SMOOTH",
"184 407 LINE",
"184 348 LINE"
);
},
{
closed = 1;
nodes = (
"184 445 LINE",
"73 445 LINE",
"184 614 LINE"
);
}
);
width = 360;
}
);
unicode = 2074;
},
{
glyphname = fraction;
lastChange = "2016-08-03 16:06:21 +0000";
layers = (
{
layerId = UUID0;
paths = (
{
closed = 1;
nodes = (
"-194 14 LINE",
"-195 12 OFFCURVE",
"-195 11 OFFCURVE",
"-195 9 CURVE SMOOTH",
"-195 -4 OFFCURVE",
"-170 -20 OFFCURVE",
"-153 -20 CURVE SMOOTH",
"-148 -20 OFFCURVE",
"-144 -19 OFFCURVE",
"-142 -15 CURVE SMOOTH",
"281 698 LINE SMOOTH",
"282 699 OFFCURVE",
"282 701 OFFCURVE",
"282 702 CURVE SMOOTH",
"282 715 OFFCURVE",
"256 730 OFFCURVE",
"240 730 CURVE SMOOTH",
"235 730 OFFCURVE",
"230 729 OFFCURVE",
"228 725 CURVE SMOOTH"
);
}
);
width = 87;
}
);
unicode = 2044;
},
{
glyphname = onehalf;
lastChange = "2016-08-03 16:06:21 +0000";
layers = (
{
layerId = UUID0;
paths = (
{
closed = 1;
nodes = (
"130 653 LINE",
"130 348 LINE",
"94 348 LINE",
"65 348 OFFCURVE",
"60 337 OFFCURVE",
"60 327 CURVE SMOOTH",
"60 318 OFFCURVE",
"63 308 OFFCURVE",
"89 308 CURVE",
"255 308 LINE",
"281 308 OFFCURVE",
"284 318 OFFCURVE",
"284 327 CURVE SMOOTH",
"284 337 OFFCURVE",
"279 348 OFFCURVE",
"250 348 CURVE",
"213 348 LINE",
"213 677 LINE SMOOTH",
"213 700 OFFCURVE",
"203 709 OFFCURVE",
"173 709 CURVE SMOOTH",
"163 709 OFFCURVE",
"149 707 OFFCURVE",
"139 703 CURVE SMOOTH",
"60 672 LINE SMOOTH",
"44 666 OFFCURVE",
"40 656 OFFCURVE",
"40 651 CURVE SMOOTH",
"40 642 OFFCURVE",
"49 633 OFFCURVE",
"67 633 CURVE SMOOTH",
"74 633 OFFCURVE",
"79 634 OFFCURVE",
"84 636 CURVE"
);
},
{
closed = 1;
nodes = (
"161 14 LINE",
"160 12 OFFCURVE",
"160 11 OFFCURVE",
"160 9 CURVE SMOOTH",
"160 -4 OFFCURVE",
"185 -20 OFFCURVE",
"202 -20 CURVE SMOOTH",
"207 -20 OFFCURVE",
"211 -19 OFFCURVE",
"213 -15 CURVE SMOOTH",
"636 698 LINE SMOOTH",
"637 699 OFFCURVE",
"637 701 OFFCURVE",
"637 702 CURVE SMOOTH",
"637 715 OFFCURVE",
"611 730 OFFCURVE",
"595 730 CURVE SMOOTH",
"590 730 OFFCURVE",
"585 729 OFFCURVE",
"583 725 CURVE SMOOTH"
);
},
{
closed = 1;
nodes = (
"552 273 OFFCURVE",
"562 284 OFFCURVE",
"562 314 CURVE",
"562 352 LINE",
"576 359 OFFCURVE",
"592 364 OFFCURVE",
"604 364 CURVE SMOOTH",
"648 364 OFFCURVE",
"658 320 OFFCURVE",
"658 289 CURVE SMOOTH",
"658 259 OFFCURVE",
"645 183 OFFCURVE",
"500 48 CURVE SMOOTH",
"484 33 OFFCURVE",
"481 25 OFFCURVE",
"481 19 CURVE SMOOTH",
"481 8 OFFCURVE",
"489 0 OFFCURVE",
"506 0 CURVE",
"705 0 LINE",
"735 0 OFFCURVE",
"750 5 OFFCURVE",
"750 21 CURVE",
"750 77 LINE SMOOTH",
"750 98 OFFCURVE",
"741 108 OFFCURVE",
"717 108 CURVE SMOOTH",
"690 108 OFFCURVE",
"676 97 OFFCURVE",
"676 68 CURVE",
"676 40 LINE",
"553 40 LINE",
"699 160 OFFCURVE",
"746 231 OFFCURVE",
"746 297 CURVE SMOOTH",
"746 351 OFFCURVE",
"712 401 OFFCURVE",
"625 401 CURVE SMOOTH",
"581 401 OFFCURVE",
"546 390 OFFCURVE",
"505 365 CURVE SMOOTH",
"491 356 OFFCURVE",
"487 352 OFFCURVE",
"487 339 CURVE",
"487 305 LINE",
"487 282 OFFCURVE",
"497 273 OFFCURVE",
"521 273 CURVE SMOOTH"
);
}
);
width = 800;
}
);
unicode = 00BD;
},
{
glyphname = onequarter;
lastChange = "2016-08-03 16:06:21 +0000";
layers = (
{
layerId = UUID0;
paths = (
{
closed = 1;
nodes = (
"140 653 LINE",
"140 348 LINE",
"104 348 LINE",
"75 348 OFFCURVE",
"70 337 OFFCURVE",
"70 327 CURVE SMOOTH",
"70 318 OFFCURVE",
"73 308 OFFCURVE",
"99 308 CURVE",
"265 308 LINE",
"291 308 OFFCURVE",
"294 318 OFFCURVE",
"294 327 CURVE SMOOTH",
"294 337 OFFCURVE",
"289 348 OFFCURVE",
"260 348 CURVE",
"223 348 LINE",
"223 677 LINE SMOOTH",
"223 700 OFFCURVE",
"213 709 OFFCURVE",
"183 709 CURVE SMOOTH",
"173 709 OFFCURVE",
"159 707 OFFCURVE",
"149 703 CURVE SMOOTH",
"70 672 LINE SMOOTH",
"54 666 OFFCURVE",
"50 656 OFFCURVE",
"50 651 CURVE SMOOTH",
"50 642 OFFCURVE",
"59 633 OFFCURVE",
"77 633 CURVE SMOOTH",
"84 633 OFFCURVE",
"89 634 OFFCURVE",
"94 636 CURVE"
);
},
{
closed = 1;
nodes = (
"171 14 LINE",
"170 12 OFFCURVE",
"170 11 OFFCURVE",
"170 9 CURVE SMOOTH",
"170 -4 OFFCURVE",
"195 -20 OFFCURVE",
"212 -20 CURVE SMOOTH",
"217 -20 OFFCURVE",
"221 -19 OFFCURVE",
"223 -15 CURVE SMOOTH",
"646 698 LINE SMOOTH",
"647 699 OFFCURVE",
"647 701 OFFCURVE",
"647 702 CURVE SMOOTH",
"647 715 OFFCURVE",
"621 730 OFFCURVE",
"605 730 CURVE SMOOTH",
"600 730 OFFCURVE",
"595 729 OFFCURVE",
"593 725 CURVE SMOOTH"
);
},
{
closed = 1;
nodes = (
"561 40 LINE",
"532 40 OFFCURVE",
"524 29 OFFCURVE",
"524 19 CURVE SMOOTH",
"524 10 OFFCURVE",
"531 0 OFFCURVE",
"555 0 CURVE",
"698 0 LINE",
"724 0 OFFCURVE",
"727 10 OFFCURVE",
"727 19 CURVE SMOOTH",
"727 29 OFFCURVE",
"722 40 OFFCURVE",
"693 40 CURVE",
"672 40 LINE",
"672 99 LINE",
"701 99 LINE SMOOTH",
"727 99 OFFCURVE",
"730 108 OFFCURVE",
"730 116 CURVE SMOOTH",
"730 127 OFFCURVE",
"727 137 OFFCURVE",
"697 137 CURVE SMOOTH",
"672 137 LINE",
"672 369 LINE",
"672 392 OFFCURVE",
"661 401 OFFCURVE",
"633 401 CURVE SMOOTH",
"613 401 OFFCURVE",
"594 395 OFFCURVE",
"583 378 CURVE",
"417 132 LINE SMOOTH",
"412 125 OFFCURVE",
"411 119 OFFCURVE",
"411 116 CURVE SMOOTH",
"411 107 OFFCURVE",
"416 99 OFFCURVE",
"439 99 CURVE SMOOTH",
"590 99 LINE",
"590 40 LINE"
);
},
{
closed = 1;
nodes = (
"590 137 LINE",
"479 137 LINE",
"590 306 LINE"
);
}
);
width = 800;
}
);
unicode = 00BC;
},
{
glyphname = threequarters;
lastChange = "2016-08-03 16:06:21 +0000";
layers = (
{
layerId = UUID0;
paths = (
{
closed = 1;
nodes = (
"181 14 LINE",
"180 12 OFFCURVE",
"180 11 OFFCURVE",
"180 9 CURVE SMOOTH",
"180 -4 OFFCURVE",
"205 -20 OFFCURVE",
"222 -20 CURVE SMOOTH",
"227 -20 OFFCURVE",
"231 -19 OFFCURVE",
"233 -15 CURVE SMOOTH",
"656 698 LINE SMOOTH",
"657 699 OFFCURVE",
"657 701 OFFCURVE",
"657 702 CURVE SMOOTH",
"657 715 OFFCURVE",
"631 730 OFFCURVE",
"615 730 CURVE SMOOTH",
"610 730 OFFCURVE",
"605 729 OFFCURVE",
"603 725 CURVE SMOOTH"
);
},
{
closed = 1;
nodes = (
"571 40 LINE",
"542 40 OFFCURVE",
"534 29 OFFCURVE",
"534 19 CURVE SMOOTH",
"534 10 OFFCURVE",
"541 0 OFFCURVE",
"565 0 CURVE",
"708 0 LINE",
"734 0 OFFCURVE",
"737 10 OFFCURVE",
"737 19 CURVE SMOOTH",
"737 29 OFFCURVE",
"732 40 OFFCURVE",
"703 40 CURVE",
"682 40 LINE",
"682 99 LINE",
"711 99 LINE SMOOTH",
"737 99 OFFCURVE",
"740 108 OFFCURVE",
"740 116 CURVE SMOOTH",
"740 127 OFFCURVE",
"737 137 OFFCURVE",
"707 137 CURVE SMOOTH",
"682 137 LINE",
"682 369 LINE",
"682 392 OFFCURVE",
"671 401 OFFCURVE",
"643 401 CURVE SMOOTH",
"623 401 OFFCURVE",
"604 395 OFFCURVE",
"593 378 CURVE",
"427 132 LINE SMOOTH",
"422 125 OFFCURVE",
"421 119 OFFCURVE",
"421 116 CURVE SMOOTH",
"421 107 OFFCURVE",
"426 99 OFFCURVE",
"449 99 CURVE SMOOTH",
"600 99 LINE",
"600 40 LINE"
);
},
{
closed = 1;
nodes = (
"600 137 LINE",
"489 137 LINE",
"600 306 LINE"
);
},
{
closed = 1;
nodes = (
"59 434 OFFCURVE",
"50 425 OFFCURVE",
"50 402 CURVE",
"50 369 LINE",
"50 356 OFFCURVE",
"54 345 OFFCURVE",
"68 337 CURVE SMOOTH",
"104 316 OFFCURVE",
"142 308 OFFCURVE",
"179 308 CURVE SMOOTH",
"265 308 OFFCURVE",
"322 354 OFFCURVE",
"322 424 CURVE SMOOTH",
"322 484 OFFCURVE",
"286 511 OFFCURVE",
"239 520 CURVE",
"239 521 LINE",
"279 531 OFFCURVE",
"310 562 OFFCURVE",
"310 609 CURVE SMOOTH",
"310 665 OFFCURVE",
"273 709 OFFCURVE",
"187 709 CURVE SMOOTH",
"144 709 OFFCURVE",
"110 698 OFFCURVE",
"74 676 CURVE SMOOTH",
"60 668 OFFCURVE",
"55 661 OFFCURVE",
"55 648 CURVE",
"55 614 LINE",
"55 592 OFFCURVE",
"65 582 OFFCURVE",
"89 582 CURVE SMOOTH",
"118 582 OFFCURVE",
"130 593 OFFCURVE",
"130 623 CURVE",
"130 662 LINE",
"142 668 OFFCURVE",
"161 672 OFFCURVE",
"173 672 CURVE SMOOTH",
"202 672 OFFCURVE",
"225 655 OFFCURVE",
"225 609 CURVE SMOOTH",
"225 560 OFFCURVE",
"206 537 OFFCURVE",
"166 537 CURVE",
"149 537 LINE",
"138 537 OFFCURVE",
"129 527 OFFCURVE",
"129 517 CURVE SMOOTH",
"129 507 OFFCURVE",
"138 497 OFFCURVE",
"149 497 CURVE",
"166 497 LINE",
"207 497 OFFCURVE",
"236 484 OFFCURVE",
"236 424 CURVE SMOOTH",
"236 368 OFFCURVE",
"207 344 OFFCURVE",
"172 344 CURVE SMOOTH",
"155 344 OFFCURVE",
"139 347 OFFCURVE",
"124 354 CURVE",
"124 395 LINE",
"124 424 OFFCURVE",
"114 434 OFFCURVE",
"83 434 CURVE SMOOTH"
);
}
);
width = 800;
}
);
unicode = 00BE;
},
{
glyphname = asterisk;
lastChange = "2016-08-03 16:06:21 +0000";
layers = (
{
layerId = UUID0;
paths = (
{
closed = 1;
nodes = (
"263 692 LINE",
"263 703 OFFCURVE",
"245 709 OFFCURVE",
"225 709 CURVE SMOOTH",
"205 709 OFFCURVE",
"187 703 OFFCURVE",
"187 692 CURVE",
"198 568 LINE",
"195 566 LINE",
"95 637 LINE SMOOTH",
"93 638 OFFCURVE",
"91 639 OFFCURVE",
"89 639 CURVE SMOOTH",
"72 639 OFFCURVE",
"50 607 OFFCURVE",
"50 588 CURVE SMOOTH",
"50 582 OFFCURVE",
"52 578 OFFCURVE",
"57 576 CURVE SMOOTH",
"175 522 LINE",
"175 519 LINE",
"61 467 LINE SMOOTH",
"56 465 OFFCURVE",
"54 460 OFFCURVE",
"54 454 CURVE SMOOTH",
"54 435 OFFCURVE",
"75 403 OFFCURVE",
"90 403 CURVE SMOOTH",
"92 403 OFFCURVE",
"94 404 OFFCURVE",
"96 405 CURVE SMOOTH",
"194 479 LINE",
"197 477 LINE",
"187 352 LINE",
"187 340 OFFCURVE",
"205 335 OFFCURVE",
"225 335 CURVE SMOOTH",
"245 335 OFFCURVE",
"263 340 OFFCURVE",
"263 352 CURVE",
"253 477 LINE",
"256 479 LINE",
"355 405 LINE SMOOTH",
"357 404 OFFCURVE",
"359 403 OFFCURVE",
"361 403 CURVE SMOOTH",
"376 403 OFFCURVE",
"397 435 OFFCURVE",
"397 454 CURVE SMOOTH",
"397 460 OFFCURVE",
"395 465 OFFCURVE",
"390 467 CURVE SMOOTH",
"275 519 LINE",
"275 522 LINE",
"394 576 LINE SMOOTH",
"398 578 OFFCURVE",
"400 582 OFFCURVE",
"400 588 CURVE SMOOTH",
"400 607 OFFCURVE",
"378 639 OFFCURVE",
"362 639 CURVE SMOOTH",
"360 639 OFFCURVE",
"358 638 OFFCURVE",
"356 637 CURVE SMOOTH",
"255 566 LINE",
"252 568 LINE"
);
}
);
width = 450;
}
);
unicode = 002A;
},
{
glyphname = backslash;
lastChange = "2016-08-03 16:06:21 +0000";
layers = (
{
layerId = UUID0;
paths = (
{
closed = 1;
nodes = (
"51 709 LINE",
"50 711 OFFCURVE",
"50 713 OFFCURVE",
"50 715 CURVE SMOOTH",
"50 731 OFFCURVE",
"81 751 OFFCURVE",
"100 751 CURVE SMOOTH",
"106 751 OFFCURVE",
"111 749 OFFCURVE",
"113 745 CURVE SMOOTH",
"629 -169 LINE SMOOTH",
"630 -171 OFFCURVE",
"630 -172 OFFCURVE",
"630 -174 CURVE SMOOTH",
"630 -188 OFFCURVE",
"600 -206 OFFCURVE",
"581 -206 CURVE SMOOTH",
"575 -206 OFFCURVE",
"571 -204 OFFCURVE",
"568 -200 CURVE SMOOTH"
);
}
);
width = 670;
}
);
unicode = 005C;
},
{
glyphname = periodcentered;
lastChange = "2016-08-03 16:06:21 +0000";
layers = (
{
layerId = UUID0;
paths = (
{
closed = 1;
nodes = (
"90 210 OFFCURVE",
"124 177 OFFCURVE",
"166 177 CURVE SMOOTH",
"209 177 OFFCURVE",
"242 210 OFFCURVE",
"242 254 CURVE SMOOTH",
"242 300 OFFCURVE",
"209 333 OFFCURVE",
"166 333 CURVE SMOOTH",
"124 333 OFFCURVE",
"90 301 OFFCURVE",
"90 254 CURVE SMOOTH"
);
}
);
width = 332;
}
);
unicode = 00B7;
},
{
glyphname = bullet;
lastChange = "2016-08-03 16:06:21 +0000";
layers = (
{
layerId = UUID0;
paths = (
{
closed = 1;
nodes = (
"90 289 OFFCURVE",
"143 236 OFFCURVE",
"207 236 CURVE SMOOTH",
"271 236 OFFCURVE",
"324 289 OFFCURVE",
"324 353 CURVE SMOOTH",
"324 417 OFFCURVE",
"271 470 OFFCURVE",
"207 470 CURVE SMOOTH",
"143 470 OFFCURVE",
"90 417 OFFCURVE",
"90 353 CURVE"
);
}
);
width = 414;
}
);
unicode = 2022;
},
{
glyphname = colon;
lastChange = "2016-08-03 16:06:21 +0000";
layers = (
{
layerId = UUID0;
paths = (
{
closed = 1;
nodes = (
"60 372 OFFCURVE",
"94 339 OFFCURVE",
"136 339 CURVE SMOOTH",
"179 339 OFFCURVE",
"212 372 OFFCURVE",
"212 416 CURVE SMOOTH",
"212 462 OFFCURVE",
"179 495 OFFCURVE",
"136 495 CURVE SMOOTH",
"94 495 OFFCURVE",
"60 463 OFFCURVE",
"60 416 CURVE SMOOTH"
);
},
{
closed = 1;
nodes = (
"60 33 OFFCURVE",
"94 0 OFFCURVE",
"136 0 CURVE SMOOTH",
"179 0 OFFCURVE",
"212 33 OFFCURVE",
"212 77 CURVE SMOOTH",
"212 123 OFFCURVE",
"179 156 OFFCURVE",
"136 156 CURVE SMOOTH",
"94 156 OFFCURVE",
"60 124 OFFCURVE",
"60 77 CURVE SMOOTH"
);
}
);
width = 272;
}
);
unicode = 003A;
},
{
glyphname = comma;
lastChange = "2016-08-03 16:06:21 +0000";
layers = (
{
layerId = UUID0;
paths = (
{
closed = 1;
nodes = (
"84 -68 LINE",
"83 -71 OFFCURVE",
"82 -74 OFFCURVE",
"82 -77 CURVE SMOOTH",
"82 -91 OFFCURVE",
"95 -103 OFFCURVE",
"112 -103 CURVE SMOOTH",
"125 -103 OFFCURVE",
"140 -96 OFFCURVE",
"149 -76 CURVE SMOOTH",
"191 13 LINE SMOOTH",
"206 45 OFFCURVE",
"212 63 OFFCURVE",
"212 89 CURVE SMOOTH",
"212 134 OFFCURVE",
"173 156 OFFCURVE",
"139 156 CURVE SMOOTH",
"104 156 OFFCURVE",
"60 135 OFFCURVE",
"60 84 CURVE SMOOTH",
"60 61 OFFCURVE",
"69 21 OFFCURVE",
"122 12 CURVE"
);
}
);
width = 272;
}
);
unicode = 002C;
},
{
glyphname = ellipsis;
lastChange = "2016-08-03 16:06:21 +0000";
layers = (
{
layerId = UUID0;
paths = (
{
closed = 1;
nodes = (
"584 33 OFFCURVE",
"618 0 OFFCURVE",
"660 0 CURVE SMOOTH",
"703 0 OFFCURVE",
"736 33 OFFCURVE",
"736 77 CURVE SMOOTH",
"736 123 OFFCURVE",
"703 156 OFFCURVE",
"660 156 CURVE SMOOTH",
"618 156 OFFCURVE",
"584 124 OFFCURVE",
"584 77 CURVE SMOOTH"
);
},
{
closed = 1;
nodes = (
"60 33 OFFCURVE",
"94 0 OFFCURVE",
"136 0 CURVE SMOOTH",
"179 0 OFFCURVE",
"212 33 OFFCURVE",
"212 77 CURVE SMOOTH",
"212 123 OFFCURVE",
"179 156 OFFCURVE",
"136 156 CURVE SMOOTH",
"94 156 OFFCURVE",
"60 124 OFFCURVE",
"60 77 CURVE SMOOTH"
);
},
{
closed = 1;
nodes = (
"322 33 OFFCURVE",
"356 0 OFFCURVE",
"398 0 CURVE SMOOTH",
"441 0 OFFCURVE",
"474 33 OFFCURVE",
"474 77 CURVE SMOOTH",
"474 123 OFFCURVE",
"441 156 OFFCURVE",
"398 156 CURVE SMOOTH",
"356 156 OFFCURVE",
"322 124 OFFCURVE",
"322 77 CURVE SMOOTH"
);
}
);
width = 796;
}
);
unicode = 2026;
},
